<?xml version="1.0" encoding="utf-8"?>
<!-- Generator: Adobe Illustrator 22.0.1, SVG Export Plug-In . SVG Version: 6.00 Build 0)  -->
<svg version="1.1" id="Camada_1" xmlns="http://www.w3.org/2000/svg" xmlns:xlink="http://www.w3.org/1999/xlink" x="0px" y="0px"
	 viewBox="0 0 200 200" style="enable-background:new 0 0 200 200;" xml:space="preserve">
<style type="text/css">
	.st0{fill-rule:evenodd;clip-rule:evenodd;fill:#D2BD64;}
	.st1{clip-path:url(#SVGID_2_);}
	.st2{fill-rule:evenodd;clip-rule:evenodd;fill:none;stroke:#D2BD64;stroke-width:9.018549e-02;stroke-miterlimit:22.9256;}
	.st3{fill-rule:evenodd;clip-rule:evenodd;fill:#D2BD64;stroke:#D2BD64;stroke-width:9.018549e-02;stroke-miterlimit:22.9256;}
	.st4{fill:#FF0000;}
	.st5{fill:#2E3192;}
	.st6{fill-rule:evenodd;clip-rule:evenodd;fill:#FFFFFF;stroke:#2E3192;stroke-width:0.3421;stroke-miterlimit:10;}
	.st7{fill:#FFFF00;stroke:#2E3192;stroke-width:0.5038;stroke-miterlimit:10;}
	.st8{fill-rule:evenodd;clip-rule:evenodd;fill:#FFFF00;stroke:#2E3192;stroke-width:0.5038;stroke-miterlimit:10;}
	.st9{fill-rule:evenodd;clip-rule:evenodd;fill:url(#SVGID_5_);}
	.st10{fill:#D2BD64;}
	.st11{fill-rule:evenodd;clip-rule:evenodd;fill:url(#SVGID_6_);}
	.st12{fill-rule:evenodd;clip-rule:evenodd;fill:#231F20;}
	.st13{fill-rule:evenodd;clip-rule:evenodd;fill:url(#SVGID_7_);}
	.st14{fill:#DDB11E;}
	.st15{fill:#BD1622;}
	.st16{fill:url(#SVGID_8_);}
	.st17{fill:#A82024;}
	.st18{fill:#E68220;}
</style>
<g>
	<g>
		<g>
			
				<image style="overflow:visible;opacity:0.75;" width="162" height="162" xlink:href="7387403F.png"  transform="matrix(1 0 0 1 20.4515 38.4515)">
			</image>
			<g>
				<circle class="st14" cx="101.3" cy="117.4" r="73.8"/>
			</g>
		</g>
		<g>
			<g>
				<g>
					
						<ellipse transform="matrix(0.7071 -0.7071 0.7071 0.7071 -55.0249 106.0267)" class="st15" cx="100.5" cy="119.4" rx="49.8" ry="49.8"/>
				</g>
			</g>
		</g>
		<g>
			<g>
				<g>
					<polygon class="st14" points="101.3,72.5 103.4,76.8 108.2,77.5 104.8,80.8 105.6,85.5 101.3,83.3 97.1,85.5 97.9,80.8 
						94.5,77.5 99.2,76.8 					"/>
					<polygon class="st14" points="120.2,78.7 121.9,82.2 125.7,82.7 123,85.4 123.6,89.2 120.2,87.4 116.8,89.2 117.4,85.4 
						114.7,82.7 118.5,82.2 					"/>
					<polygon class="st14" points="82.5,78.7 84.2,82.2 88,82.7 85.2,85.4 85.9,89.2 82.5,87.4 79.1,89.2 79.7,85.4 77,82.7 
						80.8,82.2 					"/>
				</g>
			</g>
			<g>
				<g>
					<polygon class="st14" points="101.3,162.2 99.2,157.9 94.5,157.2 97.9,153.9 97.1,149.2 101.3,151.4 105.6,149.2 104.8,153.9 
						108.2,157.2 103.4,157.9 					"/>
					<polygon class="st14" points="82.5,156 80.8,152.6 77,152 79.7,149.3 79.1,145.5 82.5,147.3 85.9,145.5 85.2,149.3 88,152 
						84.2,152.6 					"/>
					<polygon class="st14" points="120.2,156 118.5,152.6 114.7,152 117.4,149.3 116.8,145.5 120.2,147.3 123.6,145.5 123,149.3 
						125.7,152 121.9,152.6 					"/>
				</g>
			</g>
		</g>
		<path class="st14" d="M115.3,105.7c-2.7,0.9-7.2,3.9-9.3,6.3c-3.7,4-5.8,4-9.5,0c-2.1-2.4-6.5-5.4-9.3-6.3
			c-11.1-3.5-18.4,6.8-27.6-1.5c0.4,4.2,3.9,11.6,7.3,15.5c3.5,4.1,8,9.1,16.5,10.6c10,1.7,13.6-5.2,17.8-5c4.2-0.3,7.8,6.7,17.8,5
			c8.5-1.5,13-6.5,16.5-10.6c3.4-3.9,6.8-11.3,7.3-15.5C133.8,112.5,126.4,102.2,115.3,105.7z M85.3,121.7
			c-3.8-0.2-8.5-2.6-10.7-6.3c6.6,1,8.7-0.5,12.9,0.3c2.8,0.5,6.7,2.6,9.1,4.7C93.9,119.9,88.2,121.8,85.3,121.7z M117.3,121.7
			c-2.8,0.1-8.5-1.8-11.2-1.4c2.3-2,6.2-4.1,9.1-4.7c4.1-0.8,6.2,0.8,12.9-0.3C125.9,119.1,121.1,121.5,117.3,121.7z"/>
		<g>
			<path d="M51.9,78.3c-0.1,0.4-0.3,0.8-0.7,1.1c-0.4,0.4-0.9,0.6-1.4,0.6c-0.2-0.1-0.5-0.3-0.7-0.5c-0.2-0.2-0.4-0.4-0.7-0.7
				c-0.2-0.2-0.5-0.5-0.7-0.7c-0.2-0.2-0.5-0.4-0.7-0.6c-0.1,0.1-0.2,0.1-0.3,0.2c0,0.1,0,0.2,0,0.3c0,0.1,0,0.2,0,0.3
				c0,0.1,0,0.2,0,0.2c0,0.5,0,1,0.1,1.5c0.1,0.5,0.5,0.9,1.1,1.4c0.4,0.2,0.8,0.4,1.3,0.6c0.5,0.2,1.1,0.3,1.6,0.4
				c0.5,0.1,1,0.1,1.5,0c0.5,0,0.8-0.1,1-0.3c0.1-0.1,0.2-0.2,0.3-0.4c0.1-0.2,0.1-0.3,0.2-0.5c0-0.2,0.1-0.3,0.2-0.5
				c0.1-0.2,0.2-0.3,0.4-0.4c0.4,0,0.7,0,0.9,0.2c0.2,0.2,0.5,0.5,0.8,0.9c0,0.8-0.1,1.5-0.5,2c-0.4,0.6-0.9,1-1.5,1.3
				c-0.6,0.3-1.3,0.5-2.1,0.6c-0.8,0.1-1.6,0.1-2.4,0c-0.8-0.1-1.6-0.3-2.3-0.7c-0.8-0.3-1.4-0.8-1.9-1.3c-0.7-0.6-1.1-1.3-1.4-2
				c-0.2-0.7-0.3-1.4-0.3-2.1c0.1-0.7,0.2-1.4,0.6-2c0.3-0.6,0.7-1.1,1.2-1.5c0.2-0.2,0.4-0.3,0.8-0.6c0.4-0.2,0.7-0.4,0.9-0.4
				c0.4-0.1,0.8,0,1.3,0.2c0.5,0.2,1,0.5,1.4,0.8c0.5,0.4,0.9,0.8,1.2,1.2C51.4,77.4,51.7,77.8,51.9,78.3z"/>
			<path d="M59.4,71.8c0.2-0.1,0.4-0.2,0.5-0.2c0.2-0.1,0.3-0.1,0.5-0.1c0.2,0.2,0.3,0.3,0.4,0.3c0,0.2,0.1,0.4,0.1,0.5
				c0,0.2,0,0.4,0,0.5c0.1,0.1,0.3,0.2,0.4,0.3c0.2,0.1,0.3,0.1,0.3-0.1c0.1,0.3,0.3,0.5,0.6,0.7c0.2,0.2,0.5,0.3,0.8,0.5
				c0.3,0.2,0.6,0.4,0.9,0.6c0.3,0.2,0.6,0.6,0.8,1c-0.1,0.5-0.3,0.9-0.5,1C64,77,63.7,77,63.4,77c-0.3,0-0.6-0.1-0.9-0.3
				c-0.3-0.2-0.7-0.4-1-0.6c-0.3-0.2-0.7-0.5-1-0.7c-0.3-0.2-0.6-0.4-0.9-0.5c-0.3,0.3-0.5,0.6-0.9,0.7c-0.3,0.2-0.5,0.4-0.6,0.6
				c-0.1,0.2-0.1,0.4,0,0.6c0.1,0.2,0.2,0.4,0.3,0.7c0.1,0.2,0.2,0.5,0.3,0.7c0.1,0.2,0.1,0.5,0.1,0.7c-0.3,0.4-0.6,0.6-1,0.7
				c-0.4,0.1-0.8,0.1-1.1-0.1c-0.2-0.3-0.4-0.6-0.5-0.8c-0.1-0.3-0.2-0.5-0.3-0.8c-0.3-0.2-0.6-0.3-0.9-0.5
				c-0.3-0.2-0.5-0.5-0.8-0.9c0-0.2,0-0.4,0.1-0.7c0.1-0.2,0.2-0.4,0.2-0.6c-0.3-0.5-0.6-1-0.7-1.6c-0.2-0.6-0.4-1.1-0.7-1.6
				c-0.1-0.2-0.3-0.4-0.5-0.7c-0.2-0.2-0.3-0.5-0.3-0.8c0-0.1,0.1-0.1,0.2-0.3c0.1-0.1,0.2-0.2,0.2-0.4c0.1-0.2,0.1-0.4,0.2-0.6
				c0.1-0.2,0.2-0.4,0.4-0.5c0.2-0.1,0.4-0.2,0.6-0.2s0.5,0,0.9,0.1c0.4,0.4,0.8,0.7,1.1,1c0.4,0.3,0.8,0.5,1.1,0.7
				c0.4,0.2,0.8,0.4,1.1,0.6C58.6,71.4,59,71.6,59.4,71.8z M56.9,73.9c0.1,0,0.2-0.1,0.2-0.2c0-0.1,0.1-0.1,0.1-0.2
				c-0.2-0.1-0.3-0.2-0.5-0.3c-0.2-0.1-0.3-0.1-0.5-0.1c0.1,0.2,0.1,0.4,0.2,0.5C56.6,73.6,56.7,73.8,56.9,73.9z"/>
			<path d="M64.9,62.5C64.9,62.5,64.9,62.5,64.9,62.5C64.9,62.5,65,62.5,64.9,62.5c0.4-0.3,0.7-0.5,1-0.7c0.3-0.2,0.7-0.4,1-0.5
				c0.3-0.1,0.7-0.1,1,0c0.3,0.1,0.5,0.3,0.7,0.7c0.2,0.4,0.3,0.8,0.4,1.4c0.1,0.6,0.1,1.2,0.1,1.7c0,0.4-0.1,0.9-0.1,1.3
				c-0.1,0.4-0.2,0.9-0.3,1.3c-0.1,0.4-0.2,0.8-0.3,1.1c-0.1,0.4-0.2,0.7-0.3,0.9c0.6,0.2,1.3,0.3,1.9,0.4c0.7,0.1,1.4,0.1,2.1,0
				c0.3-0.1,0.4-0.2,0.6-0.3c0.1-0.1,0.3-0.2,0.4-0.2c0.2,0,0.3,0.1,0.4,0.2c0.1,0.1,0.1,0.2,0.2,0.4c0,0.1,0,0.3,0,0.4
				c0,0.2-0.1,0.3-0.1,0.4c-0.5,0.4-1,0.7-1.5,0.9c-0.5,0.1-1,0.2-1.5,0.2c-0.5,0-1,0-1.5,0c-0.5-0.1-0.9-0.1-1.4,0
				c0,0.3,0,0.5,0.1,0.8c0.1,0.3,0.2,0.5,0.3,0.8c0.1,0.3,0.1,0.5,0.1,0.7c0,0.2-0.2,0.5-0.5,0.6c-0.2,0.2-0.5,0.3-0.7,0.3
				c-0.3,0-0.5,0-0.8,0c-0.3-0.4-0.5-0.8-0.7-1.3c-0.2-0.5-0.4-0.9-0.6-1.4c-0.2-0.5-0.4-1-0.6-1.5c-0.2-0.5-0.4-0.9-0.7-1.4
				c-0.1-0.2-0.3-0.5-0.5-0.7c-0.2-0.2-0.3-0.4-0.4-0.6c-0.1-0.2-0.1-0.4-0.1-0.6c0-0.2,0.2-0.4,0.5-0.7c0-0.3,0.1-0.6,0.2-0.8
				c0.1-0.2,0.1-0.5,0.1-0.9c0.2-0.4,0.4-0.8,0.6-1.2c0.2-0.4,0.4-0.8,0.4-1.3c0.2,0,0.3,0,0.4-0.2c0.1-0.2,0.2-0.3,0.3-0.4
				C65,62.6,65,62.5,64.9,62.5z M66.1,68.7c0.1-0.3,0.2-0.5,0.3-0.9c0.1-0.3,0.2-0.6,0.2-0.9c0-0.3,0.1-0.6,0-0.9
				c0-0.3-0.1-0.6-0.2-0.8c0.1-0.1,0.2-0.1,0.2-0.2c0-0.1,0-0.2,0-0.3c0-0.1-0.1-0.2-0.1-0.3c0-0.1,0-0.2,0-0.3
				c-0.2,0.4-0.4,0.7-0.6,1.2c-0.2,0.4-0.3,0.8-0.3,1.2c-0.1,0.4-0.1,0.8,0,1.2C65.6,68.1,65.8,68.4,66.1,68.7z"/>
			<path d="M77.7,66.8c0.3,0.4,0.4,0.8,0.5,1.2c0,0.4,0,0.8-0.2,1c-0.2,0.3-0.4,0.5-0.7,0.6c-0.3,0.1-0.7,0.1-1.1-0.1
				c-0.4-0.7-0.8-1.5-1.2-2.2c-0.4-0.7-0.8-1.4-1.1-2.2c-0.4-0.7-0.7-1.5-1-2.3c-0.3-0.8-0.6-1.7-0.8-2.6c0.2-0.3,0.5-0.6,0.9-0.9
				c0.4-0.3,0.8-0.4,1.2-0.5c0.5,0.5,0.9,1.1,1.4,1.7c0.4,0.6,0.9,1.1,1.4,1.7c0.5,0.5,0.9,1,1.4,1.5c0.5,0.4,1,0.8,1.6,1
				c-0.1-0.4-0.2-0.8-0.4-1.3c-0.2-0.5-0.3-1-0.5-1.6c-0.2-0.5-0.3-1.1-0.5-1.7c-0.1-0.6-0.3-1.1-0.4-1.7c0.1-0.5,0.4-0.8,0.9-1
				c0.4-0.2,0.9-0.1,1.3,0.1c0.3,0.4,0.6,1,0.8,1.7c0.2,0.7,0.4,1.3,0.5,1.9c0,0.1,0.1,0.1,0.1,0.1c0,0,0-0.1,0-0.1
				c0,0.3,0.1,0.8,0.3,1.2c0.2,0.5,0.4,1,0.6,1.6c0.2,0.6,0.5,1.1,0.7,1.7c0.2,0.6,0.4,1.1,0.5,1.6c0.1,0.5,0.1,0.9,0,1.3
				c-0.1,0.4-0.4,0.6-0.8,0.8c-0.4,0.1-0.9,0.1-1.4-0.1c-0.5-0.2-0.9-0.4-1.4-0.7c-0.5-0.3-0.9-0.6-1.3-1
				C78.4,67.2,78.1,67,77.7,66.8z"/>
			<path d="M90.6,59.8c0.2,0,0.4,0,0.6,0c0.2,0,0.4,0,0.5,0.1c0,0.3,0.1,0.4,0.3,0.4c0,0.2-0.1,0.4-0.1,0.5c0,0.2-0.1,0.3-0.2,0.5
				c0.1,0.2,0.2,0.3,0.3,0.5c0.1,0.2,0.2,0.2,0.4,0c0,0.3,0.1,0.6,0.2,0.8c0.2,0.3,0.3,0.5,0.5,0.8c0.2,0.3,0.4,0.6,0.5,0.9
				c0.2,0.3,0.3,0.8,0.3,1.3c-0.3,0.4-0.6,0.6-0.9,0.7c-0.3,0.1-0.6,0-0.8-0.1c-0.3-0.2-0.5-0.4-0.7-0.7c-0.2-0.3-0.4-0.6-0.7-1
				c-0.2-0.4-0.4-0.7-0.6-1c-0.2-0.3-0.4-0.6-0.6-0.8c-0.4,0.2-0.7,0.3-1.1,0.3c-0.4,0-0.6,0.1-0.8,0.3c-0.2,0.2-0.3,0.4-0.3,0.6
				c0,0.2,0,0.5,0,0.7c0,0.3,0,0.5,0,0.8s-0.1,0.5-0.2,0.7c-0.4,0.2-0.8,0.3-1.2,0.2c-0.4-0.1-0.7-0.3-1-0.5c-0.1-0.4-0.1-0.7-0.1-1
				c0-0.3,0-0.6,0.1-0.8c-0.2-0.3-0.4-0.5-0.5-0.8c-0.2-0.3-0.3-0.7-0.3-1.2c0.1-0.2,0.2-0.4,0.3-0.6c0.2-0.1,0.3-0.3,0.5-0.5
				c-0.1-0.5-0.1-1.1,0-1.7c0.1-0.6,0.1-1.2,0-1.7c0-0.3-0.1-0.5-0.1-0.8c-0.1-0.3,0-0.5,0.1-0.8c0,0,0.1-0.1,0.3-0.2
				c0.1-0.1,0.3-0.1,0.4-0.3c0.2-0.2,0.3-0.3,0.5-0.5c0.2-0.1,0.4-0.2,0.6-0.3c0.2,0,0.4,0,0.6,0c0.2,0.1,0.5,0.2,0.7,0.5
				c0.2,0.5,0.4,1,0.6,1.4c0.2,0.4,0.5,0.8,0.7,1.1c0.2,0.4,0.5,0.7,0.8,1.1C90.1,59.1,90.3,59.4,90.6,59.8z M87.5,60.6
				c0.1,0,0.2,0,0.3-0.1c0-0.1,0.1-0.1,0.2-0.1c-0.1-0.2-0.2-0.3-0.3-0.5c-0.1-0.2-0.2-0.3-0.4-0.3c-0.1,0.2-0.1,0.4,0,0.6
				C87.3,60.2,87.4,60.4,87.5,60.6z"/>
			<path d="M99.4,61.4c0.1-0.4,0.2-0.9,0.2-1.4c0-0.6,0-1.1,0-1.7c0-0.6,0-1.2,0-1.7c0-0.6,0.1-1.1,0.3-1.5c0.2-0.4,0.5-0.8,0.9-1
				c0.4-0.2,0.9-0.3,1.6-0.3c0.3,0.3,0.4,0.7,0.4,0.9c0,0.3-0.1,0.7-0.2,1.2c-0.1,0.2-0.1,0.5-0.1,0.8c0,0.3,0,0.6-0.1,0.9
				c0,0.3,0,0.6,0,0.9c0,0.3,0,0.5,0,0.7c0,0.8,0,1.6,0.1,2.5c0.1,0.8,0.1,1.6,0.1,2.2c0,0.4-0.1,0.9-0.1,1.2
				c-0.1,0.4-0.3,0.7-0.5,0.9c-0.2,0.2-0.5,0.4-0.9,0.5c-0.4,0.1-0.9,0-1.5-0.1c-0.5-0.4-1-1-1.4-1.6c-0.4-0.6-0.8-1.2-1.2-1.9
				c-0.4-0.7-0.7-1.3-1.1-2c-0.4-0.7-0.8-1.3-1.2-1.8c-0.1-0.1-0.2-0.2-0.3-0.4c-0.1-0.1-0.2-0.2-0.3-0.3c-0.1-0.1-0.2-0.2-0.3-0.4
				c-0.1-0.1-0.1-0.3-0.1-0.4c0-0.1,0.1-0.3,0.2-0.5c0.1-0.2,0.2-0.3,0.4-0.4c0.2-0.1,0.4-0.2,0.6-0.3c0.2-0.1,0.4-0.1,0.6-0.1
				c0.2,0,0.5,0.1,0.8,0.3c0.3,0.2,0.5,0.4,0.7,0.5c0.3,0.3,0.5,0.7,0.7,1.1c0.2,0.4,0.4,0.8,0.6,1.2c0.2,0.4,0.4,0.8,0.6,1.1
				C99,60.8,99.2,61.1,99.4,61.4z"/>
			<path d="M111.8,59.7c0.2,0.1,0.4,0.1,0.6,0.2c0.2,0.1,0.3,0.1,0.5,0.2c0,0.3,0,0.4,0.1,0.5c-0.1,0.2-0.2,0.3-0.3,0.5
				c-0.1,0.2-0.2,0.3-0.3,0.4c0,0.2,0.1,0.4,0.1,0.5c0.1,0.2,0.2,0.2,0.3,0.1c-0.1,0.3-0.1,0.6,0,0.9c0.1,0.3,0.2,0.6,0.3,0.9
				c0.1,0.3,0.2,0.7,0.2,1c0.1,0.4,0,0.8-0.1,1.3c-0.4,0.3-0.8,0.4-1.1,0.4c-0.3,0-0.5-0.1-0.7-0.4c-0.2-0.2-0.4-0.5-0.5-0.9
				c-0.1-0.4-0.2-0.7-0.4-1.1c-0.1-0.4-0.2-0.8-0.3-1.2c-0.1-0.4-0.2-0.7-0.3-0.9c-0.4,0.1-0.8,0.1-1.1,0c-0.3-0.1-0.6-0.1-0.8,0
				c-0.2,0.1-0.4,0.3-0.5,0.5c-0.1,0.2-0.2,0.4-0.2,0.7c-0.1,0.2-0.1,0.5-0.2,0.7c-0.1,0.2-0.2,0.5-0.4,0.6
				c-0.5,0.1-0.9,0.1-1.2-0.1c-0.4-0.2-0.6-0.5-0.8-0.8c0-0.4,0.1-0.7,0.2-1c0.1-0.3,0.2-0.5,0.3-0.8c-0.1-0.3-0.2-0.6-0.3-1
				c-0.1-0.3-0.1-0.7,0-1.2c0.1-0.2,0.3-0.3,0.5-0.4c0.2-0.1,0.4-0.2,0.6-0.3c0.1-0.5,0.2-1.1,0.5-1.7c0.2-0.6,0.4-1.1,0.5-1.7
				c0-0.2,0.1-0.5,0.1-0.8s0.1-0.5,0.3-0.7c0,0,0.1-0.1,0.3-0.1c0.2,0,0.3-0.1,0.4-0.2c0.2-0.1,0.4-0.2,0.6-0.3
				c0.2-0.1,0.4-0.1,0.6-0.1c0.2,0,0.4,0.1,0.6,0.2c0.2,0.1,0.4,0.4,0.5,0.7c0,0.6,0.1,1.1,0.2,1.5c0.1,0.4,0.2,0.9,0.4,1.3
				c0.1,0.4,0.3,0.8,0.4,1.2C111.5,58.9,111.7,59.3,111.8,59.7z M108.6,59.6c0.1,0.1,0.2,0.1,0.3,0c0.1,0,0.1-0.1,0.2-0.1
				c0-0.2-0.1-0.4-0.1-0.6c-0.1-0.2-0.1-0.3-0.3-0.4c-0.1,0.2-0.2,0.4-0.2,0.6C108.5,59.3,108.5,59.4,108.6,59.6z"/>
			<path d="M118.6,55c0,0.6-0.2,1.2-0.3,1.8c-0.2,0.6-0.3,1.3-0.5,1.9c-0.2,0.7-0.4,1.3-0.6,2c-0.2,0.7-0.4,1.3-0.5,1.9
				c-0.1,0.6-0.2,1.2-0.3,1.7c0,0.5,0,1,0.2,1.5c0.3,0,0.7-0.1,1.1-0.2c0.4-0.2,0.8-0.3,1.2-0.5c0.4-0.1,0.8-0.2,1.1-0.2
				c0.4,0,0.7,0.2,1,0.6c0,0.5-0.1,1-0.3,1.3c-0.2,0.3-0.4,0.5-0.6,0.7c-0.2,0.2-0.5,0.3-0.7,0.4c-0.3,0.1-0.5,0.3-0.7,0.5
				c-0.4,0.1-0.8,0.3-1.2,0.4c-0.5,0.1-0.9,0.2-1.4,0.1c-0.5,0-0.9-0.2-1.3-0.4c-0.4-0.2-0.7-0.6-0.9-1.3c-0.1-0.7-0.1-1.4,0-2.3
				c0.2-0.9,0.4-1.7,0.6-2.6c0.3-0.9,0.6-1.8,0.8-2.7c0.3-0.9,0.5-1.7,0.6-2.5c0.1-0.4,0.1-0.8,0.1-1.1c0-0.4,0.1-0.7,0.3-1.2
				c0.1-0.3,0.3-0.5,0.6-0.6c0.2-0.1,0.5-0.2,0.7-0.2c0.2,0,0.5,0.1,0.7,0.3C118.3,54.3,118.5,54.6,118.6,55z"/>
			<path d="M133,61.1c0.2,0,0.3-0.1,0.5-0.2c0.1-0.1,0.3-0.1,0.5-0.2c0.3,0.1,0.7,0.2,1.1,0.4c0.4,0.2,0.8,0.4,1.1,0.6
				c0.4,0.2,0.7,0.4,1.1,0.6c0.4,0.2,0.7,0.4,0.9,0.5c0.4,0.4,0.7,0.9,0.9,1.4c0.2,0.5,0.4,1,0.4,1.6c0.1,0.6,0,1.1,0,1.8
				c-0.1,0.6-0.2,1.2-0.5,1.8c-0.1-0.1-0.1-0.2-0.2-0.1c-0.8,1.4-1.7,2.5-2.8,3.2c-1.1,0.7-2.3,1.1-3.7,1.3
				c-0.2-0.1-0.5-0.2-0.7-0.3c-0.2-0.1-0.4-0.1-0.6-0.1c-0.2-0.2-0.4-0.4-0.5-0.6c-0.1-0.2-0.1-0.4-0.1-0.6c0-0.2,0-0.4,0.1-0.7
				c0.1-0.2,0.1-0.5,0.2-0.7c0.1-0.3,0.2-0.8,0.5-1.6c0.2-0.7,0.5-1.6,0.7-2.5c0.3-0.9,0.5-1.9,0.7-2.9
				C132.8,62.8,132.9,61.9,133,61.1z M135.5,63.5c-0.5,1.2-0.9,2.5-1.3,3.9c-0.4,1.4-0.6,2.7-0.7,3.9c0.5-0.3,1-0.6,1.4-1
				c0.4-0.4,0.8-0.9,1.2-1.4c0.3-0.5,0.6-1,0.8-1.6c0.2-0.6,0.3-1.2,0.2-1.8c0-0.1-0.1-0.2-0.2-0.2c-0.1,0-0.2-0.1-0.2-0.1
				c0.1-0.1,0.1-0.2,0.1-0.3c0-0.1-0.1-0.3-0.2-0.5c-0.1-0.2-0.3-0.3-0.5-0.5C135.9,63.7,135.7,63.6,135.5,63.5z"/>
			<path d="M138.3,70.7c-0.1-0.1-0.1-0.1,0-0.1C138.3,70.6,138.3,70.6,138.3,70.7c0.5-0.5,1.1-1.1,1.7-1.6c0.6-0.5,1.2-0.9,1.9-1.3
				c0.7-0.3,1.3-0.6,2-0.7c0.7-0.1,1.3-0.1,1.9,0.1c0.3,0.1,0.5,0.2,0.7,0.4c0.2,0.2,0.4,0.4,0.6,0.6c0.2,0.2,0.4,0.4,0.5,0.6
				c0.2,0.2,0.4,0.4,0.6,0.5c-0.1,0.8-0.2,1.6-0.5,2.6c-0.3,1-0.7,1.9-1.2,2.8c-0.5,0.9-1.1,1.7-1.8,2.5c-0.7,0.7-1.4,1.3-2.2,1.6
				c-0.6,0.2-1.1,0.3-1.6,0.1c-0.5-0.1-1-0.4-1.5-0.7c-0.5-0.4-0.9-0.8-1.3-1.3c-0.4-0.5-0.7-1-0.9-1.5c0-0.8,0.1-1.5,0.3-2.3
				C137.7,72.3,138,71.5,138.3,70.7z M141.1,75.7c0.5-0.3,0.9-0.7,1.2-1.2c0.3-0.5,0.5-1.1,0.7-1.7c0.2-0.6,0.3-1.2,0.4-1.7
				c0.1-0.6,0.2-1,0.3-1.4c-0.5,0.2-1.1,0.5-1.6,1c-0.5,0.5-0.9,1-1.2,1.6c-0.3,0.6-0.5,1.2-0.5,1.8
				C140.5,74.8,140.7,75.3,141.1,75.7z"/>
			<path d="M148.3,84.9c-0.1-0.1-0.3-0.3-0.6-0.5c-0.3-0.2-0.6-0.5-1-0.8c-0.4-0.3-0.7-0.6-1.1-0.9c-0.4-0.3-0.7-0.7-0.9-1.1
				c-0.2-0.4-0.3-0.7-0.4-1.1c0-0.4,0.1-0.7,0.5-1c0.5,0.2,0.9,0.4,1.3,0.7c0.4,0.3,0.7,0.6,1.1,0.9c0.4,0.3,0.8,0.6,1.2,0.8
				c0.4,0.2,0.9,0.3,1.4,0.3c0-0.5,0-1.1-0.1-1.6c-0.1-0.5-0.2-1.1-0.4-1.6c-0.2-0.5-0.3-1.1-0.5-1.6c-0.1-0.5-0.2-1.1-0.3-1.6
				c0-0.8,0.3-1.5,0.8-1.9c0.5-0.4,1.1-0.7,1.8-0.8c0.7-0.1,1.4-0.1,2.2,0.1c0.8,0.2,1.4,0.5,2,1c0.6,0.5,1,1,1.1,1.5
				c0.1,0.5,0.1,1.1-0.1,1.7c-0.2,0.1-0.4,0.2-0.7,0.4c-0.2,0.1-0.4,0.3-0.6,0.4c-0.2,0.1-0.4,0.2-0.7,0.2c-0.2,0.1-0.5,0.1-0.7,0
				c-0.3-0.2-0.5-0.4-0.8-0.6c-0.2-0.2-0.4-0.5-0.5-0.7c-0.1-0.2-0.1-0.5-0.1-0.7c0-0.2,0.2-0.5,0.4-0.7c-0.1-0.1-0.2-0.1-0.3,0
				c-0.1,0.1-0.2,0.1-0.3,0.1c-0.3,0.5-0.4,1.1-0.3,1.8c0.1,0.7,0.3,1.4,0.5,2.1c0.2,0.7,0.4,1.4,0.6,2.1c0.2,0.7,0.2,1.3,0,1.9
				c-0.2,0.7-0.7,1.2-1.5,1.3c-0.8,0.2-1.6,0.1-2.5-0.2c0,0-0.1,0-0.2,0.1c-0.1,0.1-0.1,0-0.1-0.1c-0.1-0.1-0.1,0-0.1,0
				C148.4,84.9,148.4,85,148.3,84.9z"/>
		</g>
		<g>
			<path d="M62.1,163.2c0.1,0.3,0.4,0.6,0.7,0.9c0.3,0.3,0.6,0.6,0.8,0.8c0.2,0.3,0.4,0.6,0.4,0.8c0,0.3-0.1,0.6-0.5,0.9
				c-0.2,0.2-0.4,0.2-0.7,0.2c-0.3,0-0.5-0.1-0.8-0.2c-0.3-0.1-0.5-0.3-0.8-0.5c-0.3-0.2-0.5-0.4-0.7-0.7c-0.2,0.3-0.4,0.7-0.4,1.2
				c0,0.5,0.1,1,0.2,1.4s0.4,0.8,0.8,1.1c0.4,0.3,0.8,0.4,1.3,0.3c0.2,0.2,0.3,0.4,0.3,0.6c0,0.2-0.1,0.5-0.2,0.7
				c-0.1,0.2-0.3,0.4-0.5,0.5c-0.2,0.1-0.4,0.2-0.7,0.2c-0.7-0.1-1.3-0.4-1.8-0.8c-0.5-0.4-0.9-0.9-1.2-1.5
				c-0.3-0.6-0.5-1.2-0.6-1.8c-0.1-0.6-0.1-1.3,0-1.8c-0.1-0.1-0.2-0.1-0.2-0.1c-0.1,0.1-0.2,0.1-0.2,0.2c0.1-0.5,0.2-0.9,0.5-1.2
				c0.3-0.3,0.5-0.7,0.6-1.1c-0.2-0.3-0.3-0.6-0.3-0.8c0-0.3,0.1-0.5,0.3-0.7c0.2-0.2,0.4-0.3,0.6-0.4c0.3-0.1,0.5,0,0.8,0.1
				c0.5-0.3,0.8-0.6,0.9-1c0.1-0.4,0.2-0.7,0.2-1.1c0.1-0.1,0.3-0.2,0.4-0.2c0.1-0.1,0.2-0.2,0.3-0.3c0.2,0.1,0.4,0.1,0.6,0.1
				c0.2,0,0.4,0,0.7,0c0.3,0.3,0.7,0.5,1.2,0.8c0.5,0.3,1,0.5,1.6,0.8c0.5,0.3,1,0.5,1.5,0.8c0.5,0.3,0.9,0.6,1.1,0.9
				c0.4,0.5,0.5,0.8,0.4,1c-0.1,0.2-0.2,0.4-0.5,0.4c-0.3,0.1-0.6,0-1,0c-0.4-0.1-0.8-0.2-1.1-0.4c-0.4-0.2-0.8-0.4-1.1-0.6
				c-0.3-0.2-0.7-0.3-1-0.4c-0.3-0.1-0.6-0.1-1,0C62.9,162.7,62.5,162.8,62.1,163.2z"/>
			<path d="M78.7,168.6c0,0.5,0,0.9-0.2,1.2c-0.2,0.3-0.4,0.6-0.8,0.8c-0.3,0.2-0.7,0.4-1.1,0.5c-0.4,0.1-0.8,0.2-1.2,0.3
				c-0.4,0.1-0.8,0.2-1.2,0.3c-0.4,0.1-0.7,0.2-0.9,0.3c-0.1,0.6-0.1,1.1,0,1.6c0.1,0.5,0.2,1,0.2,1.6c0,0.2,0,0.4,0.1,0.7
				c0,0.3,0,0.6,0.1,0.9c0,0.3,0,0.6-0.1,0.9c0,0.3-0.2,0.6-0.3,0.8c-0.1,0.2-0.3,0.3-0.5,0.3c-0.2,0.1-0.4,0.1-0.5,0.1
				c-0.2,0-0.3-0.1-0.5-0.2c-0.2-0.1-0.3-0.2-0.4-0.4c-0.1-0.1-0.1-0.3-0.2-0.5c0-0.2-0.1-0.5-0.1-0.7c0-0.3,0-0.5-0.1-0.8
				c0-0.3,0-0.5-0.1-0.7c0-0.5-0.1-1-0.2-1.5c-0.1-0.5-0.1-0.9-0.2-1.3c-0.3,0-0.7,0.1-1.1,0.2c-0.4,0.1-0.8,0.2-1.2,0.2
				c-0.4,0-0.7,0-1.1-0.1c-0.3-0.1-0.6-0.4-0.8-0.8c0.1-0.7,0.2-1.2,0.5-1.5c0.3-0.3,0.6-0.5,1-0.5c0.4-0.1,0.8-0.1,1.2-0.2
				c0.4,0,0.8-0.2,1.1-0.4c0-0.3,0-0.7-0.1-1c-0.1-0.4-0.1-0.7-0.1-1.1c0-0.4,0.1-0.7,0.2-1.1c0.2-0.3,0.5-0.7,0.9-0.9
				c0.5,0,0.8,0,1,0.3c0.2,0.2,0.4,0.5,0.4,0.9c0.1,0.4,0.1,0.7,0.1,1.1c0,0.4,0,0.8,0,1.1c0.9-0.1,1.8-0.2,2.7-0.4
				C76.8,168.6,77.8,168.5,78.7,168.6z"/>
			<path d="M86.8,177.7c-0.4,0.1-0.8,0.1-1.3-0.2c-0.5-0.2-0.9-0.5-1.2-0.9c0-0.3,0-0.5,0.1-0.8c0.1-0.3,0.2-0.6,0.3-0.9
				c0.1-0.3,0.2-0.6,0.3-0.9c0.1-0.3,0.2-0.6,0.2-0.9c-0.1-0.1-0.2-0.1-0.3-0.1c-0.1,0-0.2,0-0.3,0.1c-0.1,0.1-0.2,0.1-0.2,0.2
				c-0.1,0.1-0.1,0.1-0.1,0.1c-0.5,0.2-0.9,0.4-1.3,0.7c-0.4,0.3-0.6,0.8-0.7,1.5c0,0.4,0,0.9,0.1,1.4c0.1,0.5,0.2,1,0.4,1.5
				c0.2,0.5,0.4,0.9,0.7,1.3c0.2,0.4,0.5,0.6,0.8,0.7c0.2,0.1,0.3,0.1,0.5,0.1c0.2,0,0.3,0,0.5-0.1c0.2,0,0.4-0.1,0.5,0
				c0.2,0,0.4,0.1,0.6,0.2c0.2,0.3,0.3,0.6,0.2,0.8c-0.1,0.2-0.2,0.6-0.4,1.1c-0.7,0.4-1.3,0.5-2,0.4c-0.7-0.1-1.3-0.3-1.8-0.7
				c-0.6-0.4-1.1-0.9-1.5-1.5c-0.5-0.6-0.8-1.3-1.1-2.1c-0.3-0.7-0.4-1.5-0.5-2.3c-0.1-0.8,0-1.5,0.2-2.2c0.2-0.8,0.6-1.5,1.1-2
				c0.5-0.5,1.1-0.9,1.7-1.1c0.6-0.2,1.3-0.4,2-0.4c0.7,0,1.3,0.1,1.9,0.4c0.2,0.1,0.5,0.2,0.9,0.4c0.4,0.2,0.6,0.4,0.8,0.6
				c0.2,0.3,0.4,0.7,0.5,1.2c0.1,0.5,0,1-0.1,1.6c-0.1,0.5-0.3,1.1-0.5,1.6C87.4,176.9,87.1,177.3,86.8,177.7z"/>
			<path d="M93.3,172.5c0,0.5,0,1.1-0.1,1.7c-0.1,0.6-0.2,1.2-0.4,1.9c-0.1,0.6-0.3,1.3-0.5,1.9c-0.2,0.6-0.3,1.3-0.4,1.9
				c-0.1,0.6-0.1,1.2-0.1,1.7c0,0.5,0.1,1,0.3,1.4c0.3,0,0.7-0.1,1.1-0.3c0.4-0.2,0.7-0.4,1.1-0.6c0.4-0.2,0.7-0.3,1.1-0.3
				c0.4,0,0.7,0.1,1,0.5c0,0.5,0,0.9-0.2,1.2c-0.1,0.3-0.3,0.5-0.5,0.7c-0.2,0.2-0.4,0.3-0.7,0.5c-0.3,0.1-0.5,0.3-0.6,0.5
				c-0.3,0.2-0.7,0.3-1.2,0.5c-0.5,0.2-0.9,0.2-1.4,0.2c-0.5,0-0.9-0.1-1.3-0.3c-0.4-0.2-0.7-0.6-1-1.1c-0.2-0.6-0.3-1.4-0.2-2.2
				c0.1-0.8,0.2-1.7,0.4-2.6c0.2-0.9,0.4-1.8,0.6-2.7c0.2-0.9,0.3-1.7,0.4-2.4c0-0.4,0-0.7,0-1.1c0-0.3,0-0.7,0.2-1.1
				c0.1-0.3,0.3-0.5,0.5-0.7c0.2-0.2,0.4-0.2,0.7-0.2c0.2,0,0.5,0.1,0.7,0.2C93,172,93.1,172.2,93.3,172.5z"/>
			<path d="M107.5,173c0.1,0.9,0,1.7-0.1,2.6c-0.1,0.8-0.1,1.7,0,2.7c0,0.4,0.1,0.9,0.2,1.5c0.1,0.6,0.2,1.2,0.2,1.8
				c0,0.6,0,1.2-0.1,1.7c-0.1,0.5-0.4,0.9-0.8,1.1c-0.6,0.3-1.2,0.4-1.8,0.3c-0.6-0.1-1.2-0.3-1.8-0.7c-0.6-0.4-1.1-0.8-1.6-1.3
				c-0.5-0.5-0.8-0.9-1-1.3c-0.1-0.1-0.1-0.1-0.3-0.1c-0.1,0-0.2,0-0.4,0c-0.3-1.2-0.6-2.4-0.9-3.5c-0.3-1.2-0.5-2.4-0.7-3.6
				c0.1-0.3,0.3-0.5,0.6-0.7c0.3-0.2,0.6-0.3,1-0.4c0.4-0.1,0.7,0,1.1,0c0.4,0.1,0.6,0.2,0.9,0.5c0,0.6,0.1,1.3,0.2,2
				c0.1,0.7,0.2,1.4,0.3,2.1c0.2,0.7,0.4,1.4,0.7,2c0.3,0.6,0.7,1.1,1.3,1.6c0-0.3,0.1-0.6,0-1c0-0.4-0.1-0.9-0.1-1.4
				c0-0.5-0.1-1-0.1-1.5c0-0.5-0.1-1.1,0-1.6c0-0.2,0-0.5,0-0.8c0-0.3,0-0.6,0-0.9c0-0.3,0-0.5,0.1-0.8c0-0.2,0.1-0.4,0.2-0.5
				c0.2-0.2,0.4-0.3,0.6-0.3c0.3,0,0.5,0,0.8,0c0.3,0,0.6,0.1,0.8,0.2C107.2,172.9,107.4,172.9,107.5,173z"/>
			<path d="M113.3,184.7c-0.4-0.4-0.7-0.8-0.9-1.4c-0.2-0.6-0.3-1.2-0.4-1.8c-0.1-0.6-0.2-1.2-0.4-1.8c-0.1-0.6-0.3-1.1-0.6-1.6
				c0-0.2,0-0.4,0-0.7c0-0.2-0.2-2.3-0.1-2.5c0.4-0.6,0.9-0.9,1.5-1c0.6-0.1,1.1,0.1,1.6,0.6c0.1,0.3,0.4,2.6,0.4,3
				c0.1,0.4,0.1,0.9,0.2,1.4c0,0.5,0.1,1,0.2,1.5c0.1,0.5,0.2,0.9,0.3,1.4c0.1,0.3,0.2,0.6,0.3,0.9c0.1,0.3,0.2,0.6,0.2,0.8
				c0,0.3,0,0.5-0.1,0.7c-0.1,0.2-0.3,0.4-0.6,0.5c-0.2,0.1-0.4,0.1-0.7,0.1C113.9,184.6,113.6,184.6,113.3,184.7z M111.4,172.9
				c-0.3-0.6,0.8-3,1.3-3.1c0.5-0.1,0.9-0.1,1.4,0.1c0.5,0.2-0.8,2.2-0.5,3c0.2,0.3-0.7,0.1-1.1,0.1
				C112.1,172.8,111.7,173.1,111.4,172.9z"/>
			<path d="M115.4,172.9c0.1-0.1,0.2-0.3,0.2-0.4c0-0.2,0.1-0.3,0.2-0.4c0.3-0.2,0.6-0.3,1-0.5c0.4-0.2,0.8-0.3,1.2-0.5
				c0.4-0.1,0.8-0.3,1.2-0.4c0.4-0.1,0.7-0.2,1-0.3c0.6,0,1.1,0.1,1.6,0.2c0.5,0.2,1,0.4,1.5,0.7c0.4,0.3,0.9,0.7,1.2,1.2
				c0.4,0.5,0.7,0.9,0.9,1.5c-0.1,0-0.2,0-0.2,0.1c0.5,1.5,0.6,2.8,0.3,4.1c-0.3,1.2-0.8,2.4-1.6,3.5c-0.2,0.1-0.5,0.2-0.7,0.3
				c-0.2,0.1-0.4,0.2-0.5,0.4c-0.3,0-0.6,0-0.8,0c-0.2-0.1-0.4-0.2-0.6-0.3c-0.2-0.1-0.3-0.3-0.4-0.5c-0.1-0.2-0.3-0.4-0.4-0.6
				c-0.2-0.2-0.4-0.7-0.8-1.3c-0.4-0.6-0.8-1.4-1.3-2.1c-0.5-0.8-1-1.6-1.6-2.4C116.4,174.2,115.9,173.5,115.4,172.9z M118.7,172.7
				c0.6,1.1,1.2,2.2,1.9,3.4c0.7,1.2,1.5,2.2,2.3,3c0.2-0.5,0.2-1,0.3-1.6c0-0.6,0-1.1-0.2-1.7c-0.1-0.6-0.3-1.1-0.6-1.6
				c-0.3-0.5-0.7-0.9-1.2-1.3c-0.1-0.1-0.2-0.1-0.3,0c-0.1,0.1-0.2,0.1-0.2,0c0-0.1,0-0.2-0.2-0.3c-0.1-0.1-0.3-0.1-0.5-0.1
				c-0.2,0-0.4,0-0.7,0C119.2,172.6,119,172.6,118.7,172.7z"/>
			<path d="M126.5,175.1C126.4,175.1,126.3,175.1,126.5,175.1C126.4,175,126.5,175,126.5,175.1c-0.3-0.7-0.5-1.4-0.6-2.1
				c-0.2-0.7-0.3-1.5-0.3-2.2c0-0.7,0.1-1.4,0.3-2c0.2-0.6,0.5-1.2,1-1.6c0.2-0.2,0.4-0.4,0.6-0.5c0.2-0.1,0.5-0.2,0.8-0.3
				c0.3-0.1,0.5-0.1,0.8-0.2c0.3-0.1,0.5-0.2,0.8-0.3c0.7,0.4,1.3,0.9,2.1,1.5c0.7,0.7,1.4,1.4,1.9,2.2c0.6,0.8,1,1.6,1.4,2.5
				c0.3,0.9,0.5,1.7,0.4,2.6c-0.1,0.6-0.3,1.1-0.6,1.5c-0.4,0.4-0.8,0.7-1.3,1c-0.5,0.3-1.1,0.5-1.7,0.6c-0.6,0.1-1.2,0.2-1.7,0.2
				c-0.7-0.3-1.3-0.7-1.9-1.2C127.7,176.2,127.1,175.7,126.5,175.1z M132.2,174.6c0-0.6-0.2-1.1-0.5-1.6c-0.3-0.5-0.7-0.9-1.1-1.3
				c-0.4-0.4-0.9-0.7-1.3-1.1c-0.4-0.3-0.8-0.6-1.1-0.8c-0.1,0.5-0.1,1.1,0.1,1.7c0.2,0.6,0.5,1.2,0.9,1.7c0.4,0.5,0.9,0.9,1.4,1.2
				C131.1,174.7,131.6,174.8,132.2,174.6z"/>
			<path d="M145.2,168c-0.1,0.1-0.3,0.3-0.5,0.6c-0.2,0.3-0.5,0.6-0.9,0.9c-0.3,0.3-0.7,0.7-1.1,1c-0.4,0.3-0.8,0.6-1.1,0.8
				c-0.4,0.2-0.8,0.3-1.1,0.3c-0.3,0-0.6-0.2-0.9-0.5c0.2-0.4,0.5-0.8,0.9-1.2c0.4-0.3,0.7-0.7,1.1-1c0.3-0.3,0.6-0.7,0.9-1.1
				c0.3-0.4,0.4-0.8,0.4-1.3c-0.5-0.1-1,0-1.6,0c-0.5,0.1-1.1,0.1-1.6,0.3s-1.1,0.2-1.6,0.3c-0.5,0.1-1.1,0.1-1.6,0.2
				c-0.8-0.1-1.4-0.4-1.7-1c-0.4-0.5-0.5-1.1-0.6-1.8c0-0.7,0.1-1.4,0.4-2.1c0.3-0.7,0.7-1.3,1.2-1.9c0.5-0.5,1.1-0.9,1.6-0.9
				c0.5-0.1,1.1,0,1.7,0.2c0.1,0.2,0.2,0.5,0.3,0.7c0.1,0.2,0.2,0.4,0.3,0.6c0.1,0.2,0.1,0.4,0.2,0.7c0,0.2,0,0.4-0.1,0.7
				c-0.2,0.3-0.5,0.5-0.7,0.7c-0.2,0.2-0.5,0.4-0.7,0.4c-0.3,0.1-0.5,0.1-0.7,0.1c-0.2,0-0.5-0.2-0.6-0.5c-0.1,0.1-0.1,0.2,0,0.3
				c0.1,0.1,0.1,0.2,0,0.3c0.5,0.4,1,0.5,1.7,0.5c0.7-0.1,1.4-0.2,2.1-0.3c0.7-0.2,1.4-0.3,2.1-0.4c0.7-0.1,1.3-0.1,1.8,0.1
				c0.7,0.3,1,0.8,1.1,1.6c0.1,0.7-0.1,1.6-0.5,2.5c0,0,0,0.1,0.1,0.2c0.1,0.1,0,0.1-0.1,0.1c-0.1,0.1-0.1,0.1,0,0.1
				C145.3,167.8,145.3,167.9,145.2,168z"/>
		</g>
	</g>
	<g>
		<g>
			
				<linearGradient id="SVGID_2_" gradientUnits="userSpaceOnUse" x1="112.2724" y1="47.2999" x2="100.652" y2="0.8183" gradientTransform="matrix(0.9999 -1.531511e-02 1.531511e-02 0.9999 -2.9185 16.9963)">
				<stop  offset="0" style="stop-color:#A82024"/>
				<stop  offset="1" style="stop-color:#E52F32"/>
			</linearGradient>
			<path style="fill:url(#SVGID_2_);" d="M99.4,31.2c0,0,5.4-19.2,15.5-22.3c0,0-8.9,16-4.6,24.1c0,0,21.2-19,28.1,13.3
				c0,0-13.7-22.1-26.6-2.1c-2.3,3.5-17.6,1.2-18-3c-0.6-6.5-11.2-27.1-22.9-2.9C70.8,38.4,80.8,4.9,99.4,31.2z"/>
			<circle class="st17" cx="115.1" cy="8.5" r="2.5"/>
			<circle class="st17" cx="138.5" cy="45.5" r="2.5"/>
			<circle class="st17" cx="71.5" cy="37.6" r="2.5"/>
			<path class="st18" d="M93.8,41.3c0,0,5.4,6.7,17.5,3.5c0,0,0.9,4.2-1.2,5.6S94.8,52,91.6,46.9C89.9,44.2,93.8,41.3,93.8,41.3z"/>
		</g>
	</g>
</g>
</svg>
