<?xml version="1.0" encoding="utf-8"?>
<!-- Generator: Adobe Illustrator 22.0.1, SVG Export Plug-In . SVG Version: 6.00 Build 0)  -->
<svg version="1.1" id="Camada_1" xmlns="http://www.w3.org/2000/svg" xmlns:xlink="http://www.w3.org/1999/xlink" x="0px" y="0px"
	 viewBox="0 0 150 150" style="enable-background:new 0 0 150 150;" xml:space="preserve">
<style type="text/css">
	.st0{fill:#2A0606;}
	.st1{fill:#C01D1B;}
	.st2{fill:#FFFFFF;}
</style>
<path d="M49.8,95.8h0.4h0.2h0.2l0.3,0.1l0.1,0.1h0.3V96v-0.1V96h0.2h-0.2h0.2l0.2,0.1v0.1v-0.1v0.1h0.2h0.1h-0.1h0.1
	c0.1,0.1,0.2,0.2,0.5,0.2l0.2,0.1l0.2,0.1v0.1v-0.1v0.1h0.2l0.3,0.1l0.3,0.1c0.1,0.1,0.3,0.2,0.4,0.2v0.1v-0.1v0.1
	c0.1,0,0.2,0,0.3,0.1h0.1h-0.1c0.1,0.1,0.3,0.1,0.5,0.2h0.2h-0.2h0.2l0.2,0.1c0.1,0.1,0.2,0.2,0.4,0.2l0.1,0.1c0.1,0,0.1,0,0.2,0.1
	h0.1h-0.1h0.1c0.1,0.1,0.2,0.1,0.4,0.1v0.1V98v0.1h0.2h-0.2h0.2l0.2,0.1v0.1v-0.1v0.1h0.2h0.1h-0.1l0.4,0.1l0.2,0.1l0.3,0.1h-0.2
	h0.2l0.2,0.1l0.1,0.1c0.1-0.1,0.2,0,0.3,0.1h0.1h-0.1h0.3h-0.2h0.2l0.2,0.1h-0.1l0.2,0.1h0.2h-0.2h0.2l0.3,0.1h-0.2h0.2l0.2,0.1h0.1
	h-0.1l0.1,0.1v-0.1v0.1h0.2l0.1,0.1c0.1,0,0.1,0,0.2,0.1h0.3l0.3,0.1c0.1,0.1,0.3,0.1,0.5,0.1H61h-0.1h0.3h0.2h0.2h-0.2h0.2
	c0.1,0.1,0.2,0.1,0.4,0.1c0.1,0.1,0.3,0.2,0.4,0.2h-0.1h0.1c0,0.1,0.1,0.2,0.2,0.2v0.1v-0.1l0.1,0.2l0.2,0.1c-0.1,0.1,0,0.1,0.1,0.2
	c0,0.1,0,0.1,0.1,0.2v0.1v-0.1v0.1v0.5v0.2v-0.2v0.2l-0.1,0.2c-0.1,0-0.1,0.1-0.2,0.2h-0.1h0.1c-0.1,0.1-0.2,0.2-0.4,0.3
	c-0.1,0.1-0.2,0.3-0.4,0.5c-0.2,0-0.3,0.1-0.4,0.3c-0.2,0-0.3,0.1-0.4,0.3l-0.3,0.1c-0.1,0-0.1,0.1-0.2,0.2l-0.1,0.1
	c-0.1,0-0.2,0-0.3,0.2h-0.2v0.1v-0.1v0.1c-0.1,0-0.2,0-0.3,0.2c-0.1,0-0.1,0-0.2,0.1l-0.3,0.1l-0.1,0.1c-0.1,0-0.1,0-0.2,0.1
	c-0.1-0.1-0.1,0-0.2,0.1c-0.1-0.1-0.1,0-0.2,0.1c-0.1,0-0.1,0-0.2,0.1c-0.1,0-0.1,0-0.2,0.1l-0.1,0.1c-0.1,0-0.1,0-0.2,0.1
	c-0.1,0-0.1,0-0.2,0.1c-0.1-0.1-0.1,0-0.2,0.1l-0.3,0.1v0.1v-0.1v0.1h-0.2l-0.1,0.1l0.1-0.1c-0.1,0.1-0.2,0.2-0.3,0.3h-0.1H57
	c-0.2,0-0.3,0-0.4,0.1h-0.1h0.1l-0.5,0.1H56h0.1h-0.2H56l-0.2,0.1l0.1-0.1l-0.3,0.1l-0.3,0.1l-0.2,0.1l-0.1,0.1
	c-0.1,0-0.1,0-0.2,0.1c-0.1-0.1-0.1,0-0.2,0.1h-0.1h0.1h-0.1v0.4v0.2v0.5v0.2v0.3v0.2v0.2v0.3v0.4v0.5v0.2v-0.2v0.2h-0.1h0.1h-0.1
	v0.3l-0.1,0.2c-0.1,0-0.1,0.1-0.2,0.2l-0.1,0.2v-0.1v0.1c-0.1,0-0.2,0.1-0.3,0.3l-0.1,0.1c-0.1,0-0.2,0-0.3,0.2l-0.3,0.1h-0.1h0.1
	H53h0.1l-0.2,0.1l0.1-0.1l-0.1,0.1h-0.4l-0.2-0.1c0-0.1-0.1-0.1-0.2-0.2c0.1-0.2,0-0.3-0.1-0.4v-0.1v0.1v-0.4v0.1v-2
	c0.1-0.1,0.1-0.3,0.1-0.5v-0.8h-0.5l-0.1,0.1l0.1-0.1l-0.2,0.1h0.1h-0.3h-0.2h-0.5h-0.2h0.2h-0.2c0-0.1-0.1-0.1-0.2-0.2
	c0-0.1,0-0.1-0.1-0.2v-0.4l0.1-0.3l0.1-0.2h0.1h-0.1l0.2-0.1v-0.2v0.2v-0.2c0.1,0,0.1-0.1,0.2-0.2h0.1h-0.1c0.1-0.1,0.2-0.1,0.2-0.2
	h0.2l0.1-0.2l0.3-0.1c0.1,0,0.2-0.1,0.4-0.1l0.3-0.1v-1.4c-0.1,0.1-0.1,0.2-0.1,0.4c-0.1,0.2-0.2,0.1-0.2-0.2l-0.1-0.3v-0.1v0.1
	v-0.2v0.1v-2.7h0.1h-0.1l0.1-0.1v0.1v-0.3l0.2-0.1v0.5l0.1,0.1l-0.1-0.1l0.1,0.1v0.4v0.2v0.2v0.4v0.5v0.2c0.1-0.1,0.1-0.2,0.1-0.4
	v-0.5c0-0.1,0-0.1,0.1-0.2v-1.8v0.2v-0.2h0.1h-0.1h0.1v-0.8V99c0-0.2,0.1-0.3,0.1-0.4h-0.2h0.2h-0.2c0-0.1-0.2-0.2-0.4-0.2v-0.1v0.1
	l-0.1-0.1H52c-0.1,0-0.2,0-0.3-0.1c-0.1,0-0.1,0-0.2-0.1h-0.3l-0.2-0.1c0-0.1-0.1-0.1-0.3-0.2c-0.1,0-0.1,0-0.2-0.1
	c-0.1,0-0.1,0-0.2-0.1h-0.2h0.2h-0.2c-0.1-0.1-0.3-0.2-0.5-0.3l-0.1-0.3l-0.2-0.1l-0.1-0.3v-0.7v0.2v-0.2c0.1,0,0.1-0.1,0.2-0.2
	l0.1-0.1C49.7,95.9,49.8,95.9,49.8,95.8z M54.9,99.7v0.5v0.2v0.2c-0.1,0.1-0.1,0.2-0.1,0.4v0.5v0.2v0.4v0.2c0.1,0.1,0,0.2-0.1,0.3
	v0.1v-0.1v0.1v0.5v0.3v0.2v-0.2v0.2l-0.1,0.2v0.1v-0.1v0.1c0.1,0.1,0.2,0.1,0.4,0h0.1H55h0.2h-0.1c0.1,0,0.2-0.1,0.3-0.2h0.1h-0.1
	h0.2h-0.1l0.1-0.1v0.1l0.1-0.2l0.3-0.1H56h-0.1l0.1-0.1v0.1l0.1-0.2h0.2l0.2-0.1c0.1,0,0.1-0.1,0.2-0.2c0.1,0.1,0.1,0,0.2-0.1
	l0.3-0.1l0.1-0.1c0.1,0.1,0.1,0,0.2-0.1c0.1,0,0.2,0,0.3-0.2c0.1,0,0.1,0,0.2-0.1c0.1,0.1,0.1,0,0.2-0.1c0.1,0,0.1,0,0.2-0.1
	c0.1,0,0.1,0,0.2-0.1l0.3-0.1v-0.1v0.1v-0.1l0.3-0.1v-0.1v0.1v-0.1c0.1,0,0.1-0.1,0.2-0.2H59h0.2H59l-0.2-0.1l-0.3-0.1l-0.2-0.1h0.1
	h-0.3h0.2h-0.2c-0.1-0.1-0.2-0.2-0.3-0.2c-0.1,0-0.1,0-0.2-0.1h-0.2l-0.3-0.1l-0.3-0.1l-0.2-0.1h0.1l-0.3-0.1h-0.1h0.1l-0.3-0.1
	h-0.2h0.2h-0.2l-0.2-0.1v-0.1v0.1v-0.1h-0.2h0.2h-0.2V100v0.1l-0.1-0.1h0.1c-0.1,0-0.2,0-0.3-0.1c-0.1,0-0.1,0-0.2-0.1h-0.2h0.2
	h-0.2L54.9,99.7z M55.4,100.7h0.4c0.1,0.2,0.1,0.3,0.2,0.4v0.1v-0.1l0.1,0.1h-0.1H56v0.4v0.2v0.2v0.2l-0.1,0.1v0.3
	c-0.1,0-0.2,0.1-0.2,0.2h-0.4c0-0.1-0.1-0.2-0.2-0.2c0-0.2,0-0.3-0.1-0.4v-0.9l0.1-0.3v0.2v-0.2C55.3,100.9,55.3,100.8,55.4,100.7z
	 M57,101c0.3,0,0.4,0.1,0.4,0.4l-0.1,0.3v-0.2v0.2l-0.1,0.2v0.1v-0.1l-0.1,0.1h0.1H57v0.2v-0.2v0.2l-0.2,0.1l-0.1,0.3v-0.2v0.2
	c-0.2,0.1-0.3,0.1-0.4,0.2h-0.1h0.1h-0.2h0.1h-0.1l-0.1-0.3c0.1-0.1,0.1-0.2,0.1-0.4c0.1-0.1,0.2-0.3,0.2-0.4v0.1l0.1-0.1h-0.1h0.1
	v-0.2v0.2v-0.2c0.1,0,0.1-0.1,0.2-0.2C56.8,101.3,56.8,101.2,57,101L57,101L57,101L57,101L57,101L57,101z M61.3,103.3h0.4v0.2v-0.2
	v0.2l-0.1,0.2c-0.1,0-0.2,0.1-0.3,0.3l-0.1,0.1c-0.1,0-0.2,0-0.3,0.2l-0.1,0.1c-0.1,0-0.2,0-0.3,0.2c-0.1-0.1-0.1,0-0.2,0.1
	c-0.1,0-0.1,0-0.2,0.1h-0.3c-0.1,0-0.1,0.1-0.2,0.2h-0.1h0.1l-0.2,0.1v0.1V105v0.1h-0.3l-0.1,0.1l0.1-0.1l-0.1,0.1v-0.4
	c0.1,0,0.2-0.1,0.3-0.3c0.1,0,0.1-0.1,0.2-0.2h0.1h-0.1c0.1,0,0.2,0,0.2-0.1c0.1,0.1,0.1,0,0.2-0.1c0.3,0,0.4-0.1,0.6-0.3
	c0.2,0,0.3-0.1,0.4-0.3C61.1,103.6,61.2,103.5,61.3,103.3z"/>
<path d="M67.9,104.6l0.2,0.3c-0.3,0.6-0.6,1.3-0.8,2.3l-0.2,0.4l-0.6,1.6l-0.1,0.4l-0.1,0.2l-0.2,0.2l-0.1,0.4l-0.5,0.3
	c0.1-0.3,0.2-0.7,0.5-1.2l0.1-0.2l0.1-0.3l0.1-0.3c0.1-0.4,0.3-0.8,0.5-1.3l0.1-0.3l0.1-0.6l0.5-1l0.2-0.5L67.9,104.6z M73,97.3
	c0.6,0,0.9,0.3,0.7,0.9l-0.2,0.5c-0.2,0.4-0.5,0.9-0.6,1.5l-0.2,0.2l-0.2,0.5l-0.1,0.2l-0.2,0.4l-0.1,0.3L72,102l-0.5,1.2
	c-0.1,0.4-0.3,0.8-0.5,1.3l-0.1,0.5l-0.4,1l-0.1,0.3l-0.4,1.1l-0.1,0.2l-0.4,1.5l-0.2,0.4l-0.5,1.4c0.2,0.1,0.4,0.2,0.7,0.2h1.8h0.3
	H72h0.3h0.4H73h1.3l1.6,0.1l0.2,0.1h0.5h0.5l-0.3-2.5l-0.1-0.2c0-0.2,0-0.5-0.1-0.7c0-0.3,0-0.6-0.1-0.7c0-0.6,0-1.3-0.1-2.1v-1.7
	c0.5-0.8,1.2-1.5,2.1-2l0.7,0.2l0.1,1.5v0.3l0.1,0.3v0.4v0.3v0.3v0.4l0.1,0.8l0.1,0.2v0.4c0,0.3,0.1,0.6,0.2,0.9v0.5
	c0.1,0.7,0.3,1.7,0.6,2.7l0.1,0.3l0.2,1.6v0.4v0.4c-0.4,0.8-1.1,1.4-1.9,2l-0.8,0.1c-0.4-0.2-1-0.4-1.7-0.5l-0.2-0.1l-0.2-0.1
	l-0.6-0.2l-0.3-0.1l-0.4-0.1l-1.8-0.1l-0.2-0.1h-0.3H72h-0.4h-0.5h-0.4h-0.5h-1.6h-1.2h-0.3H67h-0.5h-0.4c-0.3-0.4-0.3-0.9-0.3-1.5
	c0.2-0.4,0.4-0.9,0.5-1.7l0.1-0.2l0.1-0.3l0.1-0.3l0.1-0.3l0.1-0.4L67,109l0.5-1.3l0.5-1.2l0.1-0.5l0.3-0.5l0.1-0.4l0.2-0.4l0.3-0.6
	l0.2-0.5l0.2-0.4l0.2-0.5l0.2-0.5l0.2-0.5c0.2-0.3,0.4-0.6,0.6-1.1l0.1-0.2l0.1-0.2c0.1-0.2,0.2-0.4,0.3-0.7l0.1-0.2
	c0.2-0.3,0.4-0.6,0.6-1.1C71.8,98,72.4,97.7,73,97.3z M72.4,106.5c1.1,0.9,1.1,1.9-0.1,2.7C71.6,108.4,71.6,107.5,72.4,106.5z
	 M75,107.4c1.1,0.1,1.2,0.7,0.3,1.7c-1.3,1.4-2.1,1.5-2.3,0.3C73.4,108.6,74.1,107.9,75,107.4z M80.4,105.5l0.3,0.1
	c0,0.5,0,1,0.2,1.6v0.4l0.1,0.6v0.3l0.3,0.9l-0.3,0.5h-0.3c0-0.2-0.1-0.4-0.2-0.5l-0.1-1.1l-0.1-0.3l-0.1-1.5l-0.1-0.2V106
	L80.4,105.5z"/>
<path d="M96.6,94.3h0.5h0.2h-0.2h0.2c-0.2,1.3-0.7,2.7-1.7,4.2l-0.3,1l-0.3,1.2l-0.3,1.3v3.3l-0.2,0.5v1.8l0.2,1v2v0.5
	c-0.1,0.6-0.2,1.3-0.5,2.2c-1.2,1.4-2.2,1.2-3-0.7l-1.3-1.5c0.5,2.2-0.2,3.7-2,4.5c-0.1-1.5-0.5-3.1-1.2-4.8c-0.1-0.5-0.3-1.2-0.7-2
	c0-0.5-0.2-0.9-0.5-1.3c0-0.2,0-0.3-0.2-0.5l-0.8-2.5l-0.3-0.3c0-0.2,0-0.3-0.2-0.5c0-0.8,0.3-1.6,0.7-2.5c0.3-0.3,0.8-0.6,1.3-0.8
	l0.7,0.8c0.5,1,1.2,1.9,2.2,2.8l0.3,0.7l0.3,0.5l0.3,0.3c0.4-0.2,0.9-0.2,1.5,0c0.1-0.4,0.4-0.7,0.8-0.8l0.3,0.7
	C92.6,101.5,94,97.8,96.6,94.3z M84.6,106.8c0.5,0.3,0.9,1,1.2,2.2c-0.7,1.4-1.2,0.9-1.7-1.7L84.6,106.8z M90.9,106.1
	c-0.6,0.5-0.1,1.3,1.3,2.5c0.3-1.4,0-1.9-0.8-1.5C91.4,106.8,91.2,106.4,90.9,106.1z M98.1,96.5c-0.3,2.2-1.3,4.2-3,6l1.2-3.5
	l0.3-0.5l0.2-0.7l0.8-1l0.2-0.5L98.1,96.5z"/>
<path d="M104.6,94.3c-0.1,0.8-0.1,1.6-0.1,2.3c0,1.8,0.2,3.4,0.7,4.8l0.3,0.9c0.5-0.5,1.1-1.1,1.8-1.7l0.7-0.7l0.2-0.2l1-0.9
	c0.5-0.5,1-1,1.5-1.7c0.2-0.4,0.4-0.6,0.6-0.8c0.3-0.2,0.5-0.4,0.6-0.5h1.1l0.1,0.6l-2.1,2.4l-0.5,0.5L110,100l-3,3
	c-0.4,0.5-0.7,0.9-0.9,1.3c0.9-0.2,1.6-0.4,2.1-0.5l2.5-0.6l0.5-0.2l3.3-0.6l0.7-0.1l0.6-0.2h0.6l0.7,0.2c-0.8,1.9-1.2,4-1.2,6.3
	c0,0.9,0.1,1.9,0.2,2.9l0.1,0.6c-0.1,0.2,0,0.6,0.2,1.1c-0.1,0.4-0.3,0.9-0.6,1.4c-0.6,0.2-1.1,0.4-1.6,0.4c-1.5,0-2.3-1.3-2.3-3.8
	c0-1.5,0.3-3.6,0.9-6c-0.6,0-1.4,0.2-2.2,0.5c-1.4,0.2-2.5,0.5-3.2,0.7l-1,0.4c0.4,1.4,0.7,2.4,1,3c0.3,0.8,0.7,1.5,1.1,2.1
	c0.2,0.4,0.4,0.9,0.7,1.5l0.5,1.1c-0.9,0.6-2,1-3.4,1.3c-0.3-0.3-0.7-0.9-1.1-1.6l-0.3-0.5c-0.2-0.4-0.3-0.7-0.4-1l-0.6-1.5
	l-0.7-1.4l-0.4-1.3l-0.4-0.8c-0.5,0.2-1,0.3-1.4,0.3c-0.5,0-0.9-0.1-1.3-0.4c0.1-0.8,0.8-1.6,2.1-2.2c-0.1-0.9-0.4-2-0.7-3.5
	l-0.1-0.8c-0.2-0.5-0.3-1.2-0.4-2.2v-2.1c1-0.5,2-1.2,3-2.1L104.6,94.3z M113.7,97.5c1.1,1.2,0.8,2.2-0.8,3.3
	c-0.6-1.2-0.4-2.2,0.8-3V97.5z"/>
<path d="M59.3,116.6c-0.1,0.6-0.6,0.7-1,0.9c-0.5,0.3-1.1,0.4-1.7,0.7c-0.1,0-0.2,0.1-0.3,0.2c-0.6,0.8-1.3,1.4-2.2,1.9
	c-1,0.6-1.9,1.1-2.9,1.6c-1,0.5-1.9,1.1-2.7,1.9c-0.2,0.2-0.4,0.4-0.5,0.6c-0.4,0.6-0.9,0.9-1.4,1.3c-0.9,0.7-1.8,1.2-2.8,1.6
	c-0.6,0.3-1.2,0.5-1.7,0.7c-0.1,0-0.1,0-0.2,0.1c0,0,0,0.1,0,0.1c0.2,0.2,0.1,0.4,0,0.6c-0.1,0.3-0.1,0.6-0.2,0.9
	c-0.1,0.9-0.2,1.7-0.4,2.6c-0.1,0.4-0.1,0.8-0.2,1.2c0,0.1-0.1,0.2-0.1,0.2c-0.8,0.6-1.7,1.2-2.5,1.7c-0.6,0.4-1.2,0.5-1.9,0.4
	c0,0-0.1,0-0.1,0c-0.6,0.1-1.2,0.1-1.8-0.2c-0.6-0.3-1.2-0.7-1.8-1c-0.3-0.2-0.7-0.3-1-0.4c-0.5-0.2-1-0.3-1.5-0.5
	c-0.3-0.1-0.5-0.3-0.7-0.5c-0.1,0-0.1-0.2-0.1-0.3c0.1-1,0.3-1.9,0.4-2.9c0.1-0.7,0.1-1.3,0.2-2c0-0.1,0-0.3,0-0.4
	c0-0.4-0.1-0.9-0.2-1.3c-0.3-0.6-0.4-1.3-0.4-1.9c-0.1-0.7-0.1-1.4-0.1-2.1c0-1,0.1-1.9,0.2-2.9c0.1-0.8,0.1-1.6,0.2-2.4
	c0.1-1.2,0.2-2.3,0.2-3.5c0-0.7,0-1.4-0.2-2.1c-0.3-1.1-0.4-2.2-0.6-3.3c-0.2-1.1-0.3-2.3-0.4-3.5c-0.1-0.7-0.1-1.3-0.1-2
	c0-0.5,0.2-0.9,0.4-1.4c0.5-0.9,1.4-0.7,2.1-0.4c0,0,0.1,0.1,0.1,0.1c0.2,0.4,0.5,0.9,0.5,1.4c0.2,1.1,0.4,2.2,0.6,3.3
	c0,0.1,0.1,0.2,0.1,0.3c0.4,0.7,0.6,1.4,0.7,2.1c0.1,0.7,0.2,1.3,0.3,2c0.1,0.3,0.2,0.7,0.4,1c0.1-0.2,0.2-0.3,0.2-0.4
	c0.2-0.5,0.4-1.1,0.6-1.6c0.3-0.6,0.7-1.1,1.4-1.1c0.7,0,1.5,0,2.1,0.4c0.2,0.1,0.3,0.2,0.4,0.4c0.3-0.2,0.6-0.4,0.9-0.6
	c0.6-0.3,1.2-0.4,1.8-0.4c0.2,0,0.3,0,0.3-0.3c0-0.4,0.1-0.8,0.1-1.3c0.1-0.8,0.1-1.7,0.2-2.5c0-0.8,0.1-1.5,0.1-2.3
	c0-0.7,0.1-1.4,0.1-2.2c0-0.9-0.1-1.8-0.2-2.7c0-0.4,0.4-0.9,0.8-1c0.4,0,0.8,0,1.2,0.1c0.6,0.1,1,0.5,1.3,1.1
	c0.3,0.6,0.4,1.3,0.5,2c0.1,1.2,0.2,2.5,0.3,3.7c0,0.6,0.1,1.2,0.1,1.8c0,0.7,0,1.3,0,2c0,0.7,0,1.4,0.1,2.1c0,0.5,0,0.9,0.1,1.4
	c0,0.7,0.1,1.4,0.1,2.1c0,0.5,0,1,0.1,1.5c0,0.6,0.1,1.3,0.1,1.9c0,0.6,0,1.1,0,1.7c0,0.3,0.1,0.5,0.2,0.8c0.1,0.4,0.1,0.4,0.5,0.2
	c1.3-0.5,2.6-1,3.8-1.5c0.6-0.2,1-0.6,1.5-0.9c0.3-0.2,0.6-0.3,1-0.4c0.7-0.2,1.5-0.4,2.2-0.5c0.8-0.1,1.5,0,2.2,0.4
	c0.3,0.2,0.6,0.5,0.8,0.8c0.1,0.1,0.2,0.3,0.3,0.5C59.3,116.5,59.3,116.6,59.3,116.6z M38.1,119.7c-0.1,0-0.2,0-0.3,0.1
	c-0.4,0.1-0.8,0.1-1.2,0c-0.2,0-0.4,0-0.5,0.2c-0.6,0.8-1.2,1.6-1.8,2.3c-0.2,0.2-0.3,0.4-0.5,0.6c-0.2-0.1-0.1-0.2,0-0.3
	c0.5-0.9,1.2-1.8,1.9-2.6c0.2-0.2,0.2-0.6,0.1-0.8c-0.2-0.3-0.5-0.4-0.8-0.2c-0.3,0.2-0.5,0.3-0.8,0.5c-0.2,0.2-0.4,0.3-0.6,0.5
	c0-0.3,0.2-0.5,0.4-0.7c0.4-0.3,0.7-0.6,1.1-0.9c0.1-0.1,0.1-0.2,0.1-0.2c0-0.4,0-0.7-0.1-1.1c0-0.2,0-0.3-0.1-0.5
	c-0.2-0.5-0.6-0.6-1.1-0.7c-0.3,0-0.7-0.1-1-0.1c-0.5,0-1-0.1-1.5,0c-0.6,0.2-1,0.5-1.1,1.2c0,0.3,0,0.6,0,1c0,1.3-0.1,2.6-0.1,3.9
	c0,0.5,0,1.1-0.1,1.6c0,0.4-0.1,0.9,0.1,1.3c0.1,0.3,0.2,0.5,0.2,0.8c0.1,0.5,0.3,0.9,0.8,1.2c0.6,0.4,1.3,0.6,2,0.6
	c0.4,0,0.9,0,1.3-0.1c0.7-0.1,1.3-0.2,1.9-0.3c0.4-0.1,0.5-0.4,0.4-0.7c-0.1-0.2-0.2-0.4-0.1-0.6c0-0.1,0-0.1,0-0.2
	c0-0.4,0-0.8,0-1.2c0-0.2,0-0.4,0.1-0.5c0.2-0.2,0.4-0.2,0.6-0.3c0,0,0,0,0,0.1c-0.1,0.2-0.2,0.3-0.2,0.5c-0.1,0.3-0.2,0.5-0.2,0.8
	c0,0.3,0.1,0.6,0.3,0.9c0.1,0.2,0.2,0.5,0.4,0.6c0.4,0.2,0.7,0.5,1.1,0.6c0.7,0.2,1.3,0.3,2,0.2c0.1,0,0.2-0.1,0.3-0.1
	c1.2-0.2,2.3-0.6,3.4-1c1.4-0.5,2.5-1.5,3.2-2.8c0.1-0.1,0.1-0.2,0-0.3c-0.2-0.4-0.3-0.8-0.4-1.2c-0.1-0.4-0.1-0.8-0.2-1.3
	c0-0.1-0.1-0.2-0.1-0.3c0,0-0.1,0-0.1,0c0,0.3,0.1,0.6,0.1,0.9c0,0.3,0,0.6-0.2,0.8c-0.5-0.1-0.7-0.5-0.7-0.9c0-0.3,0-0.6-0.1-0.9
	c0-0.2,0-0.5,0-0.7c0-0.5-0.1-0.8-0.5-0.9c-0.2-0.1-0.5-0.1-0.7-0.1c-0.7,0-1.3,0-2,0c-0.2,0-0.3,0.1-0.3,0.2
	c-0.1,0.7-0.5,1.1-1.1,1.4c-0.8,0.4-1.6,0.3-2.4,0.1c-0.4-0.1-0.4-0.1-0.7,0.3c0,0,0,0,0,0.1c-0.2,0.4-0.4,0.8-0.7,1.2c0,0,0,0,0,0
	c-0.2,0.1-0.5,0.2-0.7,0.3C37.3,121.4,37.7,120.6,38.1,119.7z M48.2,118.5c-0.2-0.2-0.3-0.2-0.5-0.1c-0.1,0.1-0.2,0.1-0.4,0.2
	c-0.2,0.1-0.2,0.2-0.2,0.4c0,0.2,0.1,0.4,0.1,0.5c0.2,1.2,0.4,2.4,0.9,3.5c0.1,0.3,0.1,0.3,0.4,0.1c0.8-0.5,1.5-1,2.3-1.5
	c0.8-0.5,1.6-1,2.4-1.5c0.1-0.1,0.2-0.1,0.1-0.3c0-0.2,0-0.4,0-0.6c0.2,0.2,0.4,0,0.5-0.2c0.1,0.1,0.2,0.2,0.3,0.4
	c0.1,0.1,0.2,0.1,0.3,0c0.5-0.4,0.9-0.9,1.4-1.3c0.3-0.3,0.7-0.6,1-0.8c0.5-0.4,1.1-0.6,1.7-0.8c0.2-0.1,0.2-0.2,0.1-0.3
	c-0.1-0.2-0.2-0.3-0.3-0.5c-0.1-0.2-0.3-0.3-0.5-0.3c-1-0.3-2-0.3-3-0.2c-1,0.1-2,0.5-2.9,1.1c-0.2,0.1-0.2,0.2-0.1,0.3
	c0.2,0.2,0.4,0.4,0.6,0.7c0.2,0.2,0.3,0.4,0.2,0.6c-0.3-0.3-0.5-0.6-0.8-0.8c-0.1-0.1-0.2-0.1-0.3-0.1c-0.1,0-0.2,0-0.3,0
	c-1,0.2-1.9,0.5-2.8,0.9C48.5,118,48.2,118.1,48.2,118.5z M41.7,119.7C41.8,119.6,41.8,119.6,41.7,119.7c0.1-0.1,0.1-0.1,0.1-0.2
	c0.3-0.6,0.4-1.2,0.4-1.9c0-0.7,0-1.4,0-2.2c0-0.7,0.1-1.5,0.3-2.2c0.2-0.8,0.5-1.6,0.8-2.4c0-0.1,0-0.2,0-0.2
	c-0.1-0.8-0.3-1.6-0.8-2.2c-0.1-0.2-0.3-0.3-0.5-0.3c-0.2,0-0.5,0-0.7,0c-0.7,0.1-1.3,0.2-1.8,0.7c-0.3,0.3-0.6,0.6-0.5,1.1
	c0,0,0,0,0,0c0,1.1,0,2.1,0,3.2c0,0.5,0,1,0,1.4c0,0.7-0.1,1.5-0.1,2.2c0,0.4-0.1,0.9-0.1,1.3c0,0.3,0,0.5,0.3,0.7
	c0-0.1,0.1-0.2,0.1-0.3c0.1-0.2,0.1-0.4,0.3-0.6c0.5-0.8,1.6-0.4,1.8,0.1c0.1,0.3,0.1,0.6,0.2,1C41.6,119.2,41.6,119.4,41.7,119.7z
	 M35.9,118.2C35.9,118.2,35.9,118.2,35.9,118.2c0.1,0,0.1-0.1,0.1-0.1c0.1-0.3,0.3-0.7,0.4-1c0-0.1,0.1-0.2,0.2-0.2
	c0.2-0.1,0.4-0.2,0.7-0.1c0.2,0.1,0.5,0.1,0.7,0.2c0.2,0,0.2,0,0.2-0.2c0-0.2,0.1-0.4,0.1-0.6c0.1-0.9,0.2-1.7,0.2-2.6
	c0-1.3,0-2.5,0-3.8c0-0.4-0.1-0.6-0.6-0.8c-0.2-0.1-0.5-0.2-0.7-0.3c-0.2-0.1-0.5-0.1-0.8-0.1c-0.6,0.1-1.3,0.9-1.3,1.5
	c-0.1,1.2-0.1,2.4,0,3.6c0.2,1.1,0.3,2.3,0.5,3.4C35.7,117.4,35.8,117.8,35.9,118.2z M31,127.9c0,0.1,0,0.2,0,0.2
	c-0.1,0.6-0.1,1.1-0.2,1.7c-0.1,1-0.1,1.9-0.2,2.9c0,0.1,0,0.2,0.2,0.3c1.2,0.6,2.4,1.2,3.5,1.8c0.1,0,0.1,0,0.2,0.1
	c0-0.1,0-0.1,0-0.1c0.1-0.6,0.1-1.3,0.3-1.9c0.2-1.1,0.5-2.3,0.7-3.4c0-0.2,0.1-0.4,0.1-0.6c-0.1,0-0.1,0-0.2,0
	c-0.4,0.1-0.7,0.2-1.1,0.3c-0.9,0.2-1.7,0.2-2.4-0.4c-0.1-0.1-0.2-0.2-0.2-0.4c0-0.1,0-0.1-0.1-0.2C31.4,128,31.2,127.9,31,127.9z
	 M45.3,112.9c-0.1,0.2-0.4,0.4-0.7,0.6c-0.5,0.2-1,0.5-1.4,0.7c0,0-0.1,0.1-0.1,0.1c0,0.2,0,0.5-0.1,0.7c0,0.6-0.1,1.2-0.1,1.8
	c0,0.5-0.1,1.1-0.1,1.6c0,0.1,0,0.2,0.2,0.2c0.5-0.1,1.1-0.1,1.6-0.2c0,0,0.1,0,0.2-0.1c-0.4-0.3-0.9-0.4-1.1-0.9
	c0.8,0.2,1.6,0.5,2.4,0.7c0,0,0,0,0-0.1c-0.2-0.3-0.4-0.5-0.6-0.8c-0.2-0.3-0.4-0.6-0.5-0.9c0.4,0.3,0.8,0.6,1.2,0.9c0,0,0,0,0.1,0
	c0-0.1,0-0.1,0-0.2c0-0.4,0-0.7,0-1.1c0-0.7,0-1.4-0.1-2.2c0-0.5-0.1-1-0.1-1.5c0-0.6,0-1.2,0-1.9c0-0.1,0-0.2-0.2-0.2
	c-0.1,0-0.3-0.1-0.4-0.1c-0.5-0.1-0.9-0.3-1.4-0.4c-0.1,0-0.1,0-0.2,0c0,0.1,0,0.2,0.1,0.2c0,0,0.1,0.1,0.1,0.1
	c0.1,0.1,0.2,0.2,0.2,0.3c-0.1,0.4-0.2,0.8-0.3,1.2c-0.1,0.4-0.3,0.8-0.5,1.2c0,0.1,0,0.1,0,0.3c0.8-0.5,1.3-1.3,1.9-1.9
	c-0.1,0.4-0.3,0.7-0.5,1.1c-0.2,0.4-0.4,0.7-0.6,1.1c0,0,0,0.1,0.1,0.1C44.6,113.1,45,113,45.3,112.9z M44,101
	c-0.5,0.1-0.8,0.1-1.2,0.1c-0.1,0-0.2,0.1-0.2,0.2c-0.1,0.5-0.2,1-0.2,1.5c0,0.6,0,1.1,0,1.7c0,0.3,0,0.3,0.3,0.3
	c0.7,0,1.3,0.1,2,0.1c0.2,0,0.5,0,0.6,0.3c0,0,0,0,0,0c0.1,0,0.2,0.1,0.2,0.1c0.1,0,0.1-0.1,0.1-0.2c0-0.6,0.1-1.2,0.1-1.8
	c0-0.5-0.1-1-0.1-1.5c0-0.3-0.2-0.6-0.5-0.6C44.9,101.2,44.4,101.1,44,101z M45.7,100.9c0-0.1,0-0.1,0-0.1c0-0.7-0.1-1.5-0.1-2.2
	c0-0.7-0.2-1.3-0.7-1.8c-0.3-0.3-0.5-0.5-0.9-0.7c-0.5-0.3-1.1-0.1-1.3,0.4c-0.2,0.5-0.2,1.1-0.2,1.7c0.1,0.8,0.2,1.6,0.3,2.3
	c0,0.1,0,0.2,0.2,0.2c0.5,0,1.1-0.1,1.6-0.1c0.2,0,0.4,0,0.5,0.3c0,0,0.1,0.1,0.1,0.1C45.4,100.9,45.5,100.9,45.7,100.9z
	 M33.6,113.5C33.6,113.5,33.6,113.4,33.6,113.5c0.3-0.2,0.3-0.3,0.2-0.5c0-0.1,0-0.1-0.1-0.2c-0.1-0.2-0.2-0.4-0.3-0.6
	c-0.1-0.1-0.2-0.2-0.4-0.2c-0.6,0.3-1.3,0.6-1.9,0.9c-0.4,0.2-0.7,0.6-0.7,1.1c0,0.5,0.1,0.9,0.1,1.3c0,0.3,0.3,0.5,0.6,0.4
	c0.4-0.1,0.9-0.1,1.3-0.1c0.4,0,0.8,0,1.3,0c0.2,0,0.4,0,0.6,0c0.1,0,0.3,0.1,0.4,0.1c0.2,0,0.3,0,0.3-0.2c0-0.1,0-0.2,0-0.3
	c-0.1-0.6-0.3-1.1-0.8-1.4C33.9,113.7,33.8,113.6,33.6,113.5z M42.3,106.8c0,0.5,0.1,1,0.6,1.3c0,0,0.1,0.1,0.1,0.1
	c0.1,0.5,0.5,0.8,0.9,0.9c0.6,0.2,1.2,0.1,1.8,0.1c0,0,0.1-0.1,0.1-0.1c0-0.4,0-0.9,0-1.3c-0.1-0.7-0.1-1.3-0.2-2
	c0-0.1-0.1-0.2-0.1-0.2c-0.4-0.1-0.7-0.2-1.1-0.2c-0.3,0-0.7,0-1,0c-0.3,0-0.6,0-0.9,0.1c-0.1,0-0.1,0.1-0.1,0.2
	C42.4,106,42.4,106.4,42.3,106.8z M31.9,105.6c-0.1-0.8-0.1-1.5-0.2-2.2c-0.1-0.6-0.2-1.2-0.4-1.7c-0.3-0.5-1.1-0.5-1.5-0.2
	c-0.3,0.3-0.5,0.7-0.6,1.1c-0.2,0.9-0.1,1.7,0.2,2.6c0.1,0.2,0.1,0.4,0.2,0.6c0,0.1,0.1,0.2,0.2,0.1c0.4-0.1,0.9-0.1,1.3-0.2
	C31.3,105.7,31.6,105.7,31.9,105.6z M30.8,112.4c0.3-0.2,0.5-0.3,0.8-0.4c0.5-0.3,1-0.6,1.6-0.7c0.1,0,0.1-0.1,0.1-0.2
	c-0.1-0.9-0.3-1.8-0.4-2.7c0-0.2-0.1-0.2-0.2-0.2c-0.2,0-0.5,0.1-0.7,0.2c-0.5,0.2-0.9,0.4-1.4,0.6c-0.3,0.1-0.3,0.2-0.3,0.5
	c0.1,0.7,0.2,1.3,0.4,2C30.6,111.8,30.7,112.1,30.8,112.4z M38.9,133.4C38.9,133.4,38.9,133.4,38.9,133.4c-0.1-0.2-0.1-0.4-0.1-0.6
	c0-1.1,0.1-2.1,0.4-3.1c0.1-0.3,0-0.5-0.2-0.6c-0.2-0.1-0.4-0.2-0.6-0.4c-0.1-0.1-0.2-0.1-0.2,0.1c-0.2,0.9-0.5,1.9-0.7,2.8
	c-0.2,0.8-0.3,1.6-0.4,2.4c-0.1,0.3-0.1,0.7-0.1,1c0.1,0,0.2,0,0.2-0.1c0.4-0.2,0.8-0.3,1.2-0.5c0.2-0.1,0.4-0.2,0.6-0.3
	c0.3-0.2,0.4-0.8,0.1-1.1C39.1,133.2,39,133.3,38.9,133.4z M35.8,132.5C35.8,132.5,35.8,132.5,35.8,132.5c0,0.1,0.1,0.1,0,0.1
	c-0.1,0.4-0.1,0.7-0.2,1.1c-0.1,0.4-0.2,0.8-0.3,1.3c0,0.2,0,0.2,0.2,0.2c0.1,0,0.2,0,0.3,0c0.1,0,0.2-0.1,0.2-0.2
	c0-0.5,0-1,0.1-1.5c0.2-1.1,0.4-2.2,0.6-3.3c0.1-0.6,0.2-1.1,0.3-1.7c0-0.2,0-0.2-0.2-0.2c-0.1,0-0.2,0-0.3,0
	c-0.1,0-0.2,0.1-0.2,0.1c-0.3,0.8-0.5,1.6-0.7,2.4c-0.2,0.8-0.3,1.6-0.5,2.5c0,0.2,0,0.4,0,0.6c0,0,0,0,0.1,0
	C35.3,133.5,35.6,133,35.8,132.5z M29.6,107.6c0,0.4,0.1,0.7,0.3,1c0.1,0.1,0.2,0.1,0.3,0.1c0.3-0.2,0.6-0.3,0.8-0.5
	c0.2-0.1,0.5-0.3,0.7-0.3c0.2,0,0.4,0,0.6-0.1c0.3-0.1,0.4-0.3,0.4-0.5c-0.1-0.3-0.3-0.7-0.4-1c-0.1-0.2-0.3-0.3-0.4-0.3
	c-0.6,0.1-1.1,0.1-1.7,0.2c-0.3,0.1-0.5,0.3-0.5,0.6C29.7,107.1,29.7,107.3,29.6,107.6z M39,128.1C39,128.1,39,128.1,39,128.1
	C39,128.1,39,128,39,128.1c-0.4-0.3-0.7-0.4-1.1-0.6c-0.2-0.1-0.3-0.3-0.5-0.4c0,0-0.1,0-0.2-0.1c0,0.1,0,0.1,0,0.2
	c0,0.3,0,0.6,0,0.8c0,0.9-0.2,1.7-0.3,2.5c-0.2,1-0.3,2-0.5,3c0,0.1,0,0.3,0,0.4c0,0,0,0,0.1,0c0-0.1,0.1-0.2,0.1-0.3
	c0.2-0.9,0.5-1.7,0.7-2.6c0.2-0.6,0.3-1.3,0.5-2c0.1-0.3,0.1-0.6-0.1-0.9c0-0.1,0-0.2-0.1-0.3C38.1,128,38.6,128.1,39,128.1z
	 M41.3,119.1c0-0.1,0-0.2-0.1-0.3c-0.1-0.5-0.6-0.8-1.1-0.7c-0.2,0-0.5,0.1-0.6,0.4c-0.2,0.4-0.3,0.8-0.2,1.2c0,0.1,0.1,0.1,0.1,0.1
	c0.4,0.1,0.8,0,1.2,0C41.1,119.7,41.3,119.5,41.3,119.1z M37.3,119C37.3,118.9,37.3,118.9,37.3,119c0.1-0.1,0.2,0,0.2-0.1
	c0.2-0.1,0.4-0.1,0.6-0.2c0.1-0.1,0.1-0.2,0.1-0.4c0-0.1,0-0.2,0-0.2c0.1-0.7-0.6-1-1.1-0.8c-0.2,0.1-0.5,0.2-0.5,0.5
	c-0.1,0.3-0.1,0.5-0.1,0.8c0,0.1,0.1,0.2,0.1,0.2C36.7,118.8,37,118.9,37.3,119z M40.5,129.8c-0.3,0.5-1,3.6-1,4.1
	c0,0,0.1,0,0.1-0.1C39.9,132.5,40.2,131.2,40.5,129.8z M34.6,113.3c0.2-0.6,0-1.1-0.5-1.3c-0.1,0-0.2,0-0.2,0.1
	C33.9,112.7,34.2,113,34.6,113.3z M39.3,132.2C39.3,132.2,39.3,132.2,39.3,132.2c0.1-0.2,0.2-0.4,0.2-0.6c0.2-0.7,0.3-1.4,0.5-2
	c0-0.1,0.1-0.2-0.1-0.2c-0.1,0-0.1,0.1-0.1,0.2c-0.1,0.5-0.2,1-0.3,1.5C39.4,131.3,39.3,131.8,39.3,132.2z M46.7,121
	c-0.1-0.6-0.1-1.1-0.2-1.7C46.3,119.6,46.4,120.8,46.7,121z M34,128.4c0.4,0.2,1.1,0,1.3-0.2C34.9,128.2,34.4,128.3,34,128.4z"/>
<path d="M39.8,116c0.1-0.2,0.2-0.3,0.4-0.3c0.3,0,0.7,0,1,0c0.2,0,0.3,0,0.5,0C41.4,116.2,40.4,116.4,39.8,116z"/>
<path d="M36.3,114.3c0.5,0.1,0.9,0.2,1.4,0.3c0,0,0,0,0,0.1c-0.4,0-0.7-0.1-1.1-0.1C36.5,114.6,36.4,114.5,36.3,114.3z"/>
<path class="st0" d="M115.8,22.8c-0.8,0-1.5-0.3-2.1-0.9c-0.6-0.6-0.8-1.3-0.8-2.1l0.1-2.1c0-0.8,0.3-1.5,0.9-2
	c0.6-0.6,1.3-0.8,2.1-0.8c0.8,0,1.5,0.4,2,1c0.5,0.6,0.8,1.3,0.8,2.1l-0.1,2.1c0,0.8-0.3,1.5-0.9,2c-0.6,0.5-1.2,0.8-2,0.8
	C115.9,22.9,115.8,22.9,115.8,22.8z M118.4,33.8c-0.1,1.7-0.1,3.3-0.2,4.7c0,1.5,0.2,2.9,0.5,4.2c0.2,0.8,0.1,1.5-0.3,2.2
	c-0.4,0.7-1,1.2-1.8,1.4c-0.1,0-0.3,0-0.4,0.1c-0.1,0-0.3,0-0.4,0c-0.6,0-1.2-0.2-1.7-0.6c-0.5-0.4-0.9-0.9-1.1-1.6
	c-0.5-1.8-0.8-3.6-0.8-5.4c0-1.8,0.1-3.6,0.2-5.5c0.1-1.1,0.1-2.1,0.2-3.2c0.1-1.1,0-2.2,0-3.4c0-0.8,0.2-1.5,0.8-2.1
	c0.5-0.6,1.2-0.9,2-0.9c0.8-0.1,1.5,0.2,2.1,0.7c0.6,0.5,0.9,1.2,1,2c0.1,1.3,0.1,2.5,0,3.7C118.6,31.4,118.5,32.6,118.4,33.8z
	 M121.6,72.7c0,0.3,0,0.8,0.1,1.3c0.1,0.5,0.2,1,0.3,1.6c0.1,0.6,0.2,1.2,0.4,1.7c0.1,0.6,0.3,1.1,0.4,1.5c0.3,1.1,0.1,2-0.7,2.9
	c-0.3,0.4-0.7,0.7-1.2,0.8c-0.5,0.2-1,0.2-1.5,0.1c-0.6-0.1-1.3-0.1-2.3-0.1c-1,0-2,0.1-3.1,0.1c-1.1,0.1-2.2,0.2-3.3,0.3
	c-1.1,0.1-2.1,0.2-2.9,0.3c-0.1,0-0.3,0-0.4,0c-0.4,0-0.8-0.1-1.2-0.3c-0.4-0.2-0.7-0.4-1-0.8c-0.7-0.8-0.9-1.7-0.7-2.7
	c0.1-0.4,0.2-1.1,0.3-1.9c0.1-0.8,0.2-1.8,0.2-2.9c0.1-1.1,0.1-2.3,0.1-3.5c0-1.3,0-2.5-0.1-3.8c-0.1-1.3-0.2-2.5-0.3-3.7
	c-0.1-1.2-0.3-2.3-0.6-3.3c-0.1-0.4-0.1-0.8,0-1.2c0.1-0.4,0.2-0.8,0.4-1.1c0.2-0.3,0.5-0.6,0.8-0.9c0.3-0.2,0.7-0.4,1.1-0.5
	c0.8-0.2,1.6-0.1,2.3,0.4c0.7,0.4,1.2,1.1,1.4,1.9c0.3,1.3,0.6,2.8,0.8,4.3c0.2,1.6,0.3,3.1,0.3,4.7c0,1.6,0,3.1,0,4.6
	c0,1.5-0.1,2.9-0.2,4.1c0.8-0.1,1.6-0.1,2.5-0.2c0.9-0.1,1.7-0.1,2.6-0.1c-0.1-0.7-0.3-1.5-0.4-2.2c-0.1-0.7-0.1-1.4-0.1-2.1
	c0.1-0.8,0.4-1.5,1-2.1c0.6-0.6,1.4-0.8,2.2-0.8c0.8,0.1,1.5,0.4,2.1,1C121.4,71.1,121.7,71.9,121.6,72.7z M96.8,36.2
	c1,0,1.9,0,2.9,0.1c0.9,0.1,1.8,0.2,2.7,0.3c-0.5-1.6-1-3.1-1.5-4.5c-0.5-1.4-1-2.6-1.4-3.7c-0.4,1-0.8,2.1-1.3,3.5
	C97.8,33.3,97.3,34.7,96.8,36.2z M110.4,43.1c0.2,0.6,0.1,1.3-0.2,1.9c-0.3,0.6-0.7,1.1-1.3,1.4c0.1,0,0.1,0,0.2,0
	c0.1,0,0.1,0,0,0.1c0,0-0.1,0-0.2,0h0h0c0,0,0-0.1,0-0.1v0c-0.1,0.1-0.3,0.2-0.5,0.2c0,0,0,0,0,0c-0.1,0.1-0.1,0.1-0.2,0.1
	c-0.2,0-0.3,0.2-0.3,0.6c0,0.1,0,0.1,0,0.2c0,0.1,0,0.1,0,0.2v0v0c0,0.2,0,0.4,0,0.6c0,0.2,0,0.4,0,0.6c0,0,0,0.1,0,0.1
	c0,0,0,0.1,0,0.1c0,0.1,0,0.1,0,0.2c0,0.1,0,0.2-0.1,0.3c-0.1,0.2-0.3,0.3-0.5,0.3c-0.1,0-0.1,0-0.2,0c-0.1,0-0.2,0-0.3-0.1
	c0-0.1-0.1-0.2-0.1-0.3v-0.1v0v0v0l0,0v0c-0.1-0.1-0.1-0.2-0.1-0.3c0-0.2,0-0.3,0-0.5v-0.1v-0.5v-0.3v-0.1c0-0.2,0-0.3,0-0.4
	c-0.1,0.1-0.1,0.1-0.2,0.1h0v0c0,0,0,0.1,0,0.1c0,0,0,0-0.1,0h0c-0.1-0.1-0.1-0.1-0.1-0.2h0l0.1,0c0,0,0-0.1,0-0.1h0
	c0-0.1,0-0.1,0-0.1l0,0c0,0,0,0-0.1,0c0,0,0,0-0.1,0h-0.1l-0.1-0.1v0c0,0,0,0,0-0.1v-0.1c-0.1,0-0.1,0-0.2,0h0h0c0,0,0-0.1,0-0.1
	c-0.6-0.4-1-1-1.2-1.7c-0.1-0.2-0.1-0.4-0.1-0.7c0-0.2-0.1-0.4-0.1-0.7c-1.6-0.4-3.2-0.6-4.9-0.8c-1.7-0.2-3.1-0.2-4.3,0
	c-0.1,0.4-0.2,0.7-0.3,1.1c-0.1,0.4-0.2,0.7-0.3,1.1c-0.2,0.7-0.5,1.2-1.1,1.6c-0.5,0.4-1.2,0.6-1.8,0.6c-0.3,0-0.5-0.1-0.8-0.1
	c-0.4-0.1-0.8-0.2-1.1-0.5c-0.3-0.2-0.6-0.5-0.8-0.9c-0.2-0.3-0.3-0.7-0.4-1.1c-0.1-0.4,0-0.8,0.1-1.2c0-0.1,0.1-0.4,0.3-1
	c0.2-0.6,0.4-1.4,0.7-2.4c0.3-1,0.6-2.1,1-3.3c0.4-1.2,0.8-2.5,1.2-3.8c0.8-2.3,1.5-4.3,2.1-5.8c0.6-1.6,1.3-2.8,1.9-3.8
	c0.6-1,1.2-1.7,1.9-2.1c0.6-0.4,1.3-0.6,2.1-0.6c0.7,0,1.4,0.2,2,0.6c0.6,0.4,1.2,1.1,1.9,2.1c0.6,1,1.2,2.2,1.9,3.8
	c0.6,1.6,1.3,3.5,2.1,5.8c0.4,1.3,0.8,2.6,1.2,3.8c0.4,1.2,0.7,2.3,0.9,3.3c0.3,1,0.5,1.8,0.6,2.4C110.3,42.7,110.4,43,110.4,43.1z
	 M99.3,80.6c0.1-0.1,0.2-0.1,0.3,0c0,0.1,0,0.1,0,0.2c-0.1,0.1-0.1,0.1-0.2,0.1c0,0,0,0,0,0l0,0C99.3,80.8,99.2,80.8,99.3,80.6
	L99.3,80.6L99.3,80.6z M99.3,69c0.8,0.1,1.5,0.4,2.1,1c0.6,0.6,0.8,1.3,0.8,2.2c-0.1,1.8-0.5,3.3-1.1,4.6c-0.6,1.3-1.3,2.5-2.2,3.5
	v0v0.2h0h0c0,0.1,0,0.1,0,0.2c0.1,0.1,0.1,0.3,0,0.4c-0.1,0.1-0.1,0.1-0.2,0.1c-0.2,0-0.3,0.3-0.3,0.8v0.4v0.1v0.1v1.6v0.2
	c0,0.1,0,0.3,0.1,0.4c0,0.1,0,0.2-0.1,0.3c-0.1,0.2-0.3,0.3-0.5,0.3h-0.2c-0.1-0.1-0.2-0.1-0.3-0.3c0-0.1-0.1-0.2-0.1-0.4v-0.1
	c0,0,0-0.1,0-0.1v0v0c0,0-0.1,0-0.1,0v-0.1c-0.1-0.1-0.1-0.3-0.1-0.4c0-0.2,0-0.4,0-0.6v-0.2c-0.2,0.1-0.3,0.3-0.3,0.8v0.5v0v0.1
	v1.6v0.2c0,0.1,0,0.2,0.1,0.4c0,0.1,0,0.3-0.1,0.4c-0.1,0.2-0.3,0.3-0.5,0.3c-0.1,0-0.2,0-0.2,0c-0.1,0-0.2-0.1-0.3-0.2
	c0-0.1-0.1-0.3-0.1-0.4v0v0v-0.1v0v0c0,0,0-0.1,0-0.1v-0.1c-0.1-0.1-0.1-0.2-0.1-0.4c0-0.2,0-0.4,0-0.6v-0.2v-0.6v-0.4v-0.2
	c0-0.2,0-0.3,0-0.4c-0.1,0.1-0.1,0.1-0.2,0.1h0c0,0.1,0,0.1,0,0.1c-0.1,0.1-0.1,0.1-0.1,0.1c0,0-0.1,0-0.1,0
	c-0.1-0.1-0.1-0.1-0.1-0.2l0,0l0.1,0l0,0l0-0.1c0-0.1,0-0.1,0.1-0.1c0-0.1-0.1-0.2-0.2-0.2h-0.1C95,83.1,95,83,95,83c0,0,0,0,0-0.1
	v0c-0.6,0.3-1.3,0.5-2,0.6c-0.7,0.1-1.4,0.2-2.1,0.2h-0.3c-1.4,0-2.7-0.3-3.9-0.8c-1.2-0.5-2.2-1.2-3-2c-0.8-0.8-1.5-1.8-2-3
	c-0.5-1.2-0.7-2.4-0.7-3.7c0-1,0.2-1.8,0.5-2.6c0.3-0.8,0.7-1.4,1.3-2c-0.6-1-0.8-2.2-0.7-3.4c0.1-1.2,0.4-2.4,0.8-3.5
	c0.3-0.9,0.6-1.8,1.1-2.4c0.4-0.6,0.9-1.2,1.3-1.6c0.5-0.4,0.9-0.7,1.4-1c0.5-0.2,0.9-0.4,1.4-0.5c1-0.2,2-0.2,3,0
	c1,0.2,2,0.6,2.9,1c0.3-0.6,0.6-1,1.1-1.3c0.5-0.3,1-0.5,1.7-0.5c0.8,0,1.6,0.3,2.1,0.9c0.6,0.6,0.9,1.3,0.9,2.1
	c0,0.4,0,0.8,0.1,1.2c0.1,0.4,0.1,0.9,0.2,1.3c0.1,0.4,0.2,0.8,0.2,1.2c0.1,0.4,0.1,0.6,0.1,0.8c0.2,0.6,0.2,1.3-0.1,1.9
	c-0.3,0.6-0.7,1.2-1.3,1.5c-0.6,0.3-1.3,0.4-1.9,0.3c-0.7-0.1-1.2-0.4-1.7-0.9c-0.5-0.5-1-1-1.6-1.5c-0.6-0.5-1.1-0.9-1.7-1.2
	c-0.5-0.3-1-0.6-1.5-0.8c-0.4-0.2-0.8-0.2-1.1-0.2c-0.3,0-0.6,0.5-0.9,1.4c-0.1,0.4-0.2,0.7-0.2,1c0,0.3-0.1,0.5-0.1,0.7h1.7
	c0.3,0,0.6,0,0.9,0c0.3,0,0.7,0,1,0c0.8,0,1.5,0.3,2.1,0.8c0.6,0.5,0.9,1.2,0.9,2c0,0.8-0.3,1.6-0.8,2.1c-0.6,0.6-1.2,0.9-2.1,1
	c-0.5,0-1,0.1-1.6,0.2c-0.6,0.1-1.1,0.3-1.6,0.4c-0.5,0.2-0.9,0.4-1.2,0.6c-0.3,0.2-0.5,0.5-0.5,0.8c0,0.6,0.1,1.2,0.3,1.6
	c0.2,0.4,0.5,0.8,0.9,1.1c0.4,0.3,0.8,0.5,1.2,0.6c0.4,0.1,0.9,0.2,1.3,0.2c0.6,0,1.1-0.1,1.7-0.3c0.6-0.2,1.2-0.5,1.7-1
	c0.5-0.5,1-1.1,1.3-1.9c0.4-0.8,0.6-1.7,0.7-2.8c0.1-0.8,0.4-1.5,1-2C97.8,69.2,98.5,68.9,99.3,69z M45.9,21.8
	c1.1,0.7,1.9,1.5,2.5,2.5c0.6,1,1,2.2,1.1,3.5c0.1,1.6-0.1,3-0.5,4.2c-0.5,1.2-1.1,2.3-2,3.2c-0.8,0.9-1.8,1.6-2.8,2.2
	c-1.1,0.6-2.1,1-3.1,1.4c0.4,1.2,0.8,2,1.2,2.5c0.3,0.3,0.5,0.7,0.6,1.1c0.1,0.4,0.1,0.8,0.1,1.2c0,0.4-0.2,0.8-0.4,1.2
	c-0.2,0.4-0.5,0.7-0.8,1c-0.6,0.5-1.3,0.7-2,0.7c-1,0-1.8-0.4-2.5-1.2c-0.7-0.8-1.3-2-1.8-3.4c-0.5-1.4-1-3-1.4-4.7
	c-0.4-1.7-0.7-3.4-1-5c-0.2-1.7-0.4-3.2-0.4-4.5c-0.1,0.1-0.2,0.1-0.3,0.1c-0.1,0-0.2,0-0.3,0.1c-0.8,0.3-1.6,0.3-2.4,0
	c-0.8-0.3-1.4-0.9-1.7-1.7c-0.3-0.8-0.3-1.6,0-2.4c0.4-0.8,0.9-1.4,1.7-1.7c1-0.4,2.2-0.8,3.5-1.1c1.4-0.3,2.8-0.5,4.3-0.6
	c1.5-0.1,2.9,0,4.4,0.2C43.4,20.6,44.7,21.1,45.9,21.8z M39.6,32.5c0.4-0.1,0.9-0.3,1.3-0.6c0.4-0.2,0.8-0.5,1.2-0.9
	c0.4-0.3,0.6-0.7,0.8-1.2c0.2-0.5,0.3-1,0.3-1.6c0-0.5-0.3-0.9-0.7-1.1c-0.4-0.2-0.9-0.4-1.5-0.5c-0.6-0.1-1.3-0.2-2-0.2
	c-0.1,0.7,0,1.6,0.1,2.7C39.2,30.2,39.3,31.4,39.6,32.5z M85.6,21.8c1.1,0.7,1.9,1.5,2.5,2.5c0.6,1,1,2.2,1.1,3.5
	c0.1,1.6-0.1,3-0.5,4.2c-0.5,1.2-1.1,2.3-2,3.2c-0.8,0.9-1.8,1.6-2.8,2.2c-1.1,0.6-2.1,1-3.1,1.4c0.4,1.2,0.8,2,1.2,2.5
	c0.3,0.3,0.5,0.7,0.6,1.1c0.1,0.4,0.1,0.8,0.1,1.2c0,0.4-0.2,0.8-0.4,1.2c-0.2,0.4-0.5,0.7-0.8,1c-0.6,0.5-1.3,0.7-2,0.7
	c-1,0-1.8-0.4-2.5-1.2c-0.7-0.8-1.3-2-1.8-3.4c-0.5-1.4-1-3-1.4-4.7c-0.4-1.7-0.7-3.4-1-5c-0.2-1.7-0.4-3.2-0.4-4.5
	c-0.1,0.1-0.2,0.1-0.3,0.1c-0.1,0-0.2,0-0.3,0.1c-0.8,0.3-1.6,0.3-2.4,0c-0.8-0.3-1.4-0.9-1.7-1.7c-0.3-0.8-0.3-1.6,0-2.4
	c0.4-0.8,0.9-1.4,1.7-1.7c1-0.4,2.2-0.8,3.5-1.1c1.4-0.3,2.8-0.5,4.3-0.6s2.9,0,4.4,0.2C83.2,20.6,84.5,21.1,85.6,21.8z M79.3,32.5
	c0.4-0.1,0.9-0.3,1.3-0.6c0.4-0.2,0.8-0.5,1.2-0.9c0.4-0.3,0.6-0.7,0.8-1.2c0.2-0.5,0.3-1,0.3-1.6c0-0.5-0.3-0.9-0.7-1.1
	c-0.4-0.2-0.9-0.4-1.5-0.5c-0.6-0.1-1.3-0.2-2-0.2c-0.1,0.7,0,1.6,0.1,2.7C78.9,30.2,79.1,31.4,79.3,32.5z M47.2,58
	c0.8-0.3,1.5-0.3,2.3,0.1c0.7,0.4,1.2,0.9,1.5,1.7c0.6,1.5,1,3.1,1.3,4.7c0.3,1.6,0.5,3.2,0.7,4.7c0.1,1.5,0.2,3,0.2,4.4
	c0,1.4,0,2.6-0.1,3.6c-0.1,1-0.1,1.9-0.2,2.5c-0.1,0.6-0.1,1-0.1,1.1c-0.1,0.6-0.4,1.2-0.8,1.6c-0.4,0.4-1,0.7-1.6,0.8
	c-0.6,0.1-1.2,0-1.8-0.3c-0.6-0.3-1-0.7-1.3-1.3c-0.7-1.4-1.5-2.8-2.3-4.3c-0.8-1.5-1.6-2.9-2.4-4.3c-0.8-1.4-1.6-2.7-2.4-3.9
	c-0.8-1.2-1.5-2.3-2.1-3.2c-0.1,1.1-0.1,2.3,0,3.7c0,1.3,0.1,2.6,0.1,3.9c0.1,1.3,0.2,2.5,0.3,3.7c0.1,1.2,0.2,2.2,0.4,3
	c0.1,0.8,0,1.6-0.5,2.2c-0.5,0.7-1.1,1.1-1.9,1.2c-0.1,0-0.2,0-0.3,0c-0.1,0-0.2,0-0.2,0c-0.7,0-1.4-0.2-1.9-0.7
	c-0.5-0.5-0.9-1.1-1-1.8c-0.1-0.4-0.1-1.1-0.3-2c-0.1-1-0.2-2.1-0.3-3.4c-0.1-1.3-0.2-2.7-0.3-4.2c-0.1-1.5-0.1-3-0.1-4.4
	c0-1.5,0.1-2.8,0.3-4.1c0.2-1.3,0.4-2.4,0.8-3.3c0.3-0.7,0.7-1.3,1.2-1.7c0.5-0.4,1.2-0.7,1.9-0.7c0.6,0,1.2,0.1,1.8,0.4
	c0.6,0.3,1.3,0.8,2.1,1.6c0.8,0.8,1.7,2,2.8,3.5c1.1,1.5,2.3,3.5,3.8,5.9c0.1,0.1,0.1,0.3,0.2,0.4c0.1,0.1,0.1,0.2,0.2,0.3
	c-0.1-1.3-0.3-2.5-0.5-3.9c-0.3-1.3-0.6-2.6-1.1-3.8c-0.3-0.8-0.2-1.5,0.1-2.3C45.9,58.8,46.4,58.3,47.2,58z M77.3,65.5
	c0.5,1.5,0.8,2.9,0.8,4.4c0,1.5-0.2,2.9-0.5,4.3c-0.4,1.4-0.9,2.6-1.5,3.7c-0.7,1.1-1.4,2-2.3,2.7c-0.4,0.3-0.8,0.6-1.1,0.8
	c0.1,0.1,0.1,0.2,0,0.2v0.2h0c0,0.1,0,0.1,0,0.2c0.1,0.2,0,0.3,0,0.4c0,0.1-0.1,0.1-0.1,0.1c0,0-0.1,0-0.1,0.1
	c-0.2,0.1-0.4,0.3-0.3,0.8c0,0.1,0,0.3,0,0.5V84v0.1v1.8v0.3c0,0.1,0,0.2,0.1,0.4c0,0.1,0,0.3-0.1,0.4c-0.1,0.2-0.3,0.3-0.5,0.3
	h-0.3C71.1,87.1,71,87,71,86.9c0-0.1-0.1-0.3-0.1-0.4v0v-0.1v-0.1v-0.1c0,0,0-0.1,0-0.1c-0.1,0-0.1-0.1,0-0.1
	c-0.1-0.1-0.1-0.3-0.1-0.5s0-0.4,0-0.7v-0.2V84v-0.4v-0.1c0-0.3,0-0.5-0.1-0.5C70.6,83,70.6,83,70.6,83v0v0v0.1
	c-0.1,0.1-0.1,0.1-0.2,0.1l0,0c-0.1,0-0.1-0.1-0.1-0.2l0,0l0.1,0v-0.1v-0.1l0.1-0.1c0-0.1,0-0.1-0.1-0.1c-0.6,0.2-1.3,0.4-2,0.5
	c-0.7,0.1-1.3,0.2-2,0.2c-1.3,0-2.6-0.2-3.7-0.6c-1.9-0.6-3.4-1.7-4.7-3.1c-1.3-1.4-2.1-3.1-2.5-4.9c-0.6-2.6-0.7-5.1-0.3-7.4
	c0.4-2.3,1.2-4.1,2.4-5.6c0.3-0.4,0.7-0.7,1.2-1.1c0.4-0.4,0.9-0.7,1.5-1c0.2-0.7,0.5-1.3,1.1-1.8c0.6-0.5,1.3-0.7,2-0.7
	c2.4,0,4.4,0.3,6.1,0.9c1.7,0.6,3,1.3,4.1,2.1c1.1,0.8,1.9,1.7,2.5,2.7C76.6,63.8,77,64.7,77.3,65.5z M64.7,76.5
	c0.8,0.3,1.7,0.4,2.5,0.2c0.9-0.2,1.6-0.5,2.4-1.1c0.3-0.3,0.7-0.7,1-1.3c0.3-0.6,0.6-1.2,0.7-2c0.2-0.7,0.3-1.5,0.3-2.3
	c0-0.8-0.1-1.6-0.4-2.4c-0.2-0.5-0.4-0.9-0.7-1.3c-0.3-0.4-0.7-0.8-1.1-1.1c-0.1,0.1-0.1,0.1-0.2,0.2c-0.2,0-0.3,0.3-0.3,0.8v0.5
	v0.1v0.1c0,0.3,0,0.6,0,0.9c0,0.3,0,0.6,0,0.9v0.2c0.1,0.3,0,0.6,0,0.8c-0.1,0.2-0.3,0.4-0.5,0.4c-0.1,0-0.2,0-0.3,0
	c-0.1-0.1-0.2-0.1-0.3-0.3c-0.1-0.1-0.1-0.3-0.1-0.4v0v-0.1c0,0,0-0.1,0-0.1V69l-0.1-0.1v-0.1c-0.1-0.1-0.1-0.3-0.1-0.5
	c0-0.2,0-0.4,0-0.6c0-0.1,0-0.1,0-0.1c0,0,0-0.1,0-0.1v-0.6v-0.4v-0.2c0-0.3,0-0.4-0.1-0.5c-0.1,0.1-0.1,0.1-0.2,0.1h0v0
	c0,0.1,0,0.1,0,0.1c0,0-0.1,0-0.1,0v0.6c0,0.1,0,0.1,0,0.1c0,0,0,0.1,0,0.1c0,0.1,0,0.3,0,0.4c0,0.1,0,0.3-0.1,0.3
	c-0.1,0.3-0.3,0.4-0.5,0.4c-0.1,0-0.2,0-0.3,0c-0.1,0-0.2-0.1-0.3-0.2c0-0.2-0.1-0.3-0.1-0.4c-0.1-0.1-0.1-0.1,0-0.1v-0.1v0v0l0,0
	c0,0,0-0.1,0-0.1C66,66.8,66,66.7,66,66.5c0-0.2,0-0.4,0-0.7c0-0.1,0-0.2,0-0.2v-0.4c-0.4,0.1-0.8,0.1-1.2,0.1c-0.1,0-0.2,0-0.3,0
	c-0.1,0-0.2,0-0.2,0c-0.7,0-1.2,0.1-1.5,0.3c-0.3,0.2-0.5,0.4-0.6,0.5c-0.6,0.6-0.9,1.6-1,2.9c-0.1,1.3,0,2.8,0.3,4.3
	c0.2,0.8,0.5,1.4,1.1,2C63.3,75.8,63.9,76.2,64.7,76.5z M73.1,82c0.1-0.1,0.2,0,0.3,0c0.1,0.1,0.1,0.1,0,0.1c0,0.1,0,0.1-0.1,0.1h0
	h-0.1v0c0,0-0.1,0-0.1,0v0C73.1,82,73.1,82,73.1,82z"/>
<path class="st1" d="M115.1,22.1c-0.8,0-1.5-0.3-2.1-0.9c-0.6-0.6-0.8-1.3-0.8-2.1l0.1-2.1c0-0.8,0.3-1.5,0.9-2
	c0.6-0.6,1.3-0.8,2.1-0.8c0.8,0,1.5,0.4,2,1s0.8,1.3,0.8,2.1l-0.1,2.1c0,0.8-0.3,1.5-0.9,2c-0.6,0.5-1.2,0.8-2,0.8
	C115.1,22.2,115.1,22.1,115.1,22.1z M117.7,33.1c-0.1,1.7-0.1,3.3-0.2,4.7c0,1.5,0.2,2.9,0.5,4.2c0.2,0.8,0.1,1.5-0.3,2.2
	c-0.4,0.7-1,1.2-1.8,1.4c-0.1,0-0.3,0-0.4,0.1c-0.1,0-0.3,0-0.4,0c-0.6,0-1.2-0.2-1.7-0.6c-0.5-0.4-0.9-0.9-1.1-1.6
	c-0.5-1.8-0.8-3.6-0.8-5.4c0-1.8,0.1-3.6,0.2-5.5c0.1-1.1,0.1-2.1,0.2-3.2c0.1-1.1,0-2.2,0-3.4c0-0.8,0.2-1.5,0.8-2.1
	c0.5-0.6,1.2-0.9,2-0.9c0.8-0.1,1.5,0.2,2.1,0.7c0.6,0.5,0.9,1.2,1,2c0.1,1.3,0.1,2.5,0,3.7C117.9,30.7,117.8,31.9,117.7,33.1z
	 M120.9,72c0,0.3,0,0.8,0.1,1.3c0.1,0.5,0.2,1,0.3,1.6c0.1,0.6,0.2,1.2,0.4,1.7c0.1,0.6,0.3,1.1,0.4,1.5c0.3,1.1,0.1,2-0.7,2.9
	c-0.3,0.4-0.7,0.7-1.2,0.8c-0.5,0.2-1,0.2-1.5,0.1c-0.6-0.1-1.3-0.1-2.3-0.1c-1,0-2,0.1-3.1,0.1c-1.1,0.1-2.2,0.2-3.3,0.3
	c-1.1,0.1-2.1,0.2-2.9,0.3c-0.1,0-0.3,0-0.4,0c-0.4,0-0.8-0.1-1.2-0.3c-0.4-0.2-0.7-0.4-1-0.8c-0.7-0.8-0.9-1.7-0.7-2.7
	c0.1-0.4,0.2-1.1,0.3-1.9c0.1-0.8,0.2-1.8,0.2-2.9c0.1-1.1,0.1-2.3,0.1-3.5c0-1.3,0-2.5-0.1-3.8c-0.1-1.3-0.2-2.5-0.3-3.7
	c-0.1-1.2-0.3-2.3-0.6-3.3c-0.1-0.4-0.1-0.8,0-1.2c0.1-0.4,0.2-0.8,0.4-1.1c0.2-0.3,0.5-0.6,0.8-0.9c0.3-0.2,0.7-0.4,1.1-0.5
	c0.8-0.2,1.6-0.1,2.3,0.4c0.7,0.4,1.2,1.1,1.4,1.9c0.3,1.3,0.6,2.8,0.8,4.3c0.2,1.6,0.3,3.1,0.3,4.7c0,1.6,0,3.1,0,4.6
	s-0.1,2.9-0.2,4.1c0.8-0.1,1.6-0.1,2.5-0.2c0.9-0.1,1.7-0.1,2.6-0.1c-0.1-0.7-0.3-1.5-0.4-2.2c-0.1-0.7-0.1-1.4-0.1-2.1
	c0.1-0.8,0.4-1.5,1-2.1c0.6-0.6,1.4-0.8,2.2-0.8c0.8,0.1,1.5,0.4,2.1,1C120.7,70.4,121,71.1,120.9,72z M96.1,35.5c1,0,1.9,0,2.9,0.1
	c0.9,0.1,1.8,0.2,2.7,0.3c-0.5-1.6-1-3.1-1.5-4.5c-0.5-1.4-1-2.6-1.4-3.7c-0.4,1-0.8,2.1-1.3,3.5C97.1,32.6,96.6,34,96.1,35.5z
	 M109.7,42.4c0.2,0.6,0.1,1.3-0.2,1.9c-0.3,0.6-0.7,1.1-1.3,1.4c0.1,0,0.1,0,0.2,0c0.1,0,0.1,0,0,0.1c0,0-0.1,0-0.2,0h0h0
	c0,0,0-0.1,0-0.1v0c-0.1,0.1-0.3,0.2-0.5,0.2c0,0,0,0,0,0c-0.1,0.1-0.1,0.1-0.2,0.1c-0.2,0-0.3,0.2-0.3,0.6c0,0.1,0,0.1,0,0.2
	c0,0.1,0,0.1,0,0.2v0v0c0,0.2,0,0.4,0,0.6c0,0.2,0,0.4,0,0.6c0,0,0,0.1,0,0.1c0,0,0,0.1,0,0.1c0,0.1,0,0.1,0,0.2
	c0,0.1,0,0.2-0.1,0.3c-0.1,0.2-0.3,0.3-0.5,0.3c-0.1,0-0.1,0-0.2,0c-0.1,0-0.2,0-0.3-0.1c0-0.1-0.1-0.2-0.1-0.3v-0.1v0v0v0l0,0v0
	c-0.1-0.1-0.1-0.2-0.1-0.3c0-0.2,0-0.3,0-0.5v-0.1v-0.5v-0.3v-0.1c0-0.2,0-0.3,0-0.4c-0.1,0.1-0.1,0.1-0.2,0.1h0v0c0,0,0,0.1,0,0.1
	c0,0,0,0-0.1,0h0c-0.1-0.1-0.1-0.1-0.1-0.2h0l0.1,0c0,0,0-0.1,0-0.1h0c0-0.1,0-0.1,0-0.1l0,0c0,0,0,0-0.1,0c0,0,0,0-0.1,0h-0.1
	l-0.1-0.1v0c0,0,0,0,0-0.1v-0.1c-0.1,0-0.1,0-0.2,0h0h0c0,0,0-0.1,0-0.1c-0.6-0.4-1-1-1.2-1.7c-0.1-0.2-0.1-0.4-0.1-0.7
	c0-0.2-0.1-0.4-0.1-0.7c-1.6-0.4-3.2-0.6-4.9-0.8c-1.7-0.2-3.1-0.2-4.3,0c-0.1,0.4-0.2,0.7-0.3,1.1c-0.1,0.4-0.2,0.7-0.3,1.1
	c-0.2,0.7-0.5,1.2-1.1,1.6c-0.5,0.4-1.2,0.6-1.8,0.6c-0.3,0-0.5-0.1-0.8-0.1c-0.4-0.1-0.8-0.2-1.1-0.5c-0.3-0.2-0.6-0.5-0.8-0.9
	c-0.2-0.3-0.3-0.7-0.4-1.1c-0.1-0.4,0-0.8,0.1-1.2c0-0.1,0.1-0.4,0.3-1c0.2-0.6,0.4-1.4,0.7-2.4c0.3-1,0.6-2.1,1-3.3
	c0.4-1.2,0.8-2.5,1.2-3.8c0.8-2.3,1.5-4.3,2.1-5.8c0.6-1.6,1.3-2.8,1.9-3.8c0.6-1,1.2-1.7,1.9-2.1c0.6-0.4,1.3-0.6,2.1-0.6
	c0.7,0,1.4,0.2,2,0.6c0.6,0.4,1.2,1.1,1.9,2.1c0.6,1,1.2,2.2,1.9,3.8c0.6,1.6,1.3,3.5,2.1,5.8c0.4,1.3,0.8,2.6,1.2,3.8
	c0.4,1.2,0.7,2.3,0.9,3.3c0.3,1,0.5,1.8,0.6,2.4C109.6,42,109.7,42.3,109.7,42.4z M98.6,79.9c0.1-0.1,0.2-0.1,0.3,0
	c0,0.1,0,0.1,0,0.2c-0.1,0.1-0.1,0.1-0.2,0.1c0,0,0,0,0,0l0,0C98.6,80.1,98.5,80.1,98.6,79.9L98.6,79.9L98.6,79.9z M98.6,68.3
	c0.8,0.1,1.5,0.4,2.1,1c0.6,0.6,0.8,1.3,0.8,2.2c-0.1,1.8-0.5,3.3-1.1,4.6c-0.6,1.3-1.3,2.5-2.2,3.5v0v0.2h0h0c0,0.1,0,0.1,0,0.2
	c0.1,0.1,0.1,0.3,0,0.4c-0.1,0.1-0.1,0.1-0.2,0.1c-0.2,0-0.3,0.3-0.3,0.8v0.4v0.1v0.1v1.6v0.2c0,0.1,0,0.3,0.1,0.4
	c0,0.1,0,0.2-0.1,0.3c-0.1,0.2-0.3,0.3-0.5,0.3h-0.2c-0.1-0.1-0.2-0.1-0.3-0.3c0-0.1-0.1-0.2-0.1-0.4V84c0,0,0-0.1,0-0.1v0v0
	c0,0-0.1,0-0.1,0v-0.1c-0.1-0.1-0.1-0.3-0.1-0.4c0-0.2,0-0.4,0-0.6v-0.2c-0.2,0.1-0.3,0.3-0.3,0.8v0.5v0v0.1v1.6v0.2
	c0,0.1,0,0.2,0.1,0.4c0,0.1,0,0.3-0.1,0.4c-0.1,0.2-0.3,0.3-0.5,0.3c-0.1,0-0.2,0-0.2,0c-0.1,0-0.2-0.1-0.3-0.2
	c0-0.1-0.1-0.3-0.1-0.4v0v0v-0.1v0v0c0,0,0-0.1,0-0.1v-0.1c-0.1-0.1-0.1-0.2-0.1-0.4c0-0.2,0-0.4,0-0.6v-0.2v-0.6v-0.4v-0.2
	c0-0.2,0-0.3,0-0.4c-0.1,0.1-0.1,0.1-0.2,0.1h0c0,0.1,0,0.1,0,0.1c-0.1,0.1-0.1,0.1-0.1,0.1c0,0-0.1,0-0.1,0
	c-0.1-0.1-0.1-0.1-0.1-0.2l0,0l0.1,0l0,0l0-0.1c0-0.1,0-0.1,0.1-0.1c0-0.1-0.1-0.2-0.2-0.2h-0.1c-0.1,0-0.1,0-0.1-0.1c0,0,0,0,0-0.1
	v0c-0.6,0.3-1.3,0.5-2,0.6c-0.7,0.1-1.4,0.2-2.1,0.2h-0.3c-1.4,0-2.7-0.3-3.9-0.8c-1.2-0.5-2.2-1.2-3-2c-0.8-0.8-1.5-1.8-2-3
	c-0.5-1.2-0.7-2.4-0.7-3.7c0-1,0.2-1.8,0.5-2.6c0.3-0.8,0.7-1.4,1.3-2c-0.6-1-0.8-2.2-0.7-3.4c0.1-1.2,0.4-2.4,0.8-3.5
	c0.3-0.9,0.6-1.8,1.1-2.4c0.4-0.6,0.9-1.2,1.3-1.6c0.5-0.4,0.9-0.7,1.4-1c0.5-0.2,0.9-0.4,1.4-0.5c1-0.2,2-0.2,3,0
	c1,0.2,2,0.6,2.9,1c0.3-0.6,0.6-1,1.1-1.3c0.5-0.3,1-0.5,1.7-0.5c0.8,0,1.6,0.3,2.1,0.9c0.6,0.6,0.9,1.3,0.9,2.1
	c0,0.4,0,0.8,0.1,1.2c0.1,0.4,0.1,0.9,0.2,1.3c0.1,0.4,0.2,0.8,0.2,1.2c0.1,0.4,0.1,0.6,0.1,0.8c0.2,0.6,0.2,1.3-0.1,1.9
	c-0.3,0.6-0.7,1.2-1.3,1.5c-0.6,0.3-1.3,0.4-1.9,0.3c-0.7-0.1-1.2-0.4-1.7-0.9c-0.5-0.5-1-1-1.6-1.5c-0.6-0.5-1.1-0.9-1.7-1.2
	c-0.5-0.3-1-0.6-1.5-0.8c-0.4-0.2-0.8-0.2-1.1-0.2c-0.3,0-0.6,0.5-0.9,1.4c-0.1,0.4-0.2,0.7-0.2,1c0,0.3-0.1,0.5-0.1,0.7h1.7
	c0.3,0,0.6,0,0.9,0c0.3,0,0.7,0,1,0c0.8,0,1.5,0.3,2.1,0.8c0.6,0.5,0.9,1.2,0.9,2c0,0.8-0.3,1.6-0.8,2.1c-0.6,0.6-1.2,0.9-2.1,1
	c-0.5,0-1,0.1-1.6,0.2c-0.6,0.1-1.1,0.3-1.6,0.4c-0.5,0.2-0.9,0.4-1.2,0.6c-0.3,0.2-0.5,0.5-0.5,0.8c0,0.6,0.1,1.2,0.3,1.6
	c0.2,0.4,0.5,0.8,0.9,1.1c0.4,0.3,0.8,0.5,1.2,0.6c0.4,0.1,0.9,0.2,1.3,0.2c0.6,0,1.1-0.1,1.7-0.3c0.6-0.2,1.2-0.5,1.7-1
	c0.5-0.5,1-1.1,1.3-1.9c0.4-0.8,0.6-1.7,0.7-2.8c0.1-0.8,0.4-1.5,1-2C97,68.5,97.8,68.2,98.6,68.3z M45.2,21.1
	c1.1,0.7,1.9,1.5,2.5,2.5c0.6,1,1,2.2,1.1,3.5c0.1,1.6-0.1,3-0.5,4.2c-0.5,1.2-1.1,2.3-2,3.2c-0.8,0.9-1.8,1.6-2.8,2.2
	c-1.1,0.6-2.1,1-3.1,1.4c0.4,1.2,0.8,2,1.2,2.5c0.3,0.3,0.5,0.7,0.6,1.1c0.1,0.4,0.1,0.8,0.1,1.2c0,0.4-0.2,0.8-0.4,1.2
	c-0.2,0.4-0.5,0.7-0.8,1c-0.6,0.5-1.3,0.7-2,0.7c-1,0-1.8-0.4-2.5-1.2c-0.7-0.8-1.3-2-1.8-3.4c-0.5-1.4-1-3-1.4-4.7
	c-0.4-1.7-0.7-3.4-1-5c-0.2-1.7-0.4-3.2-0.4-4.5c-0.1,0.1-0.2,0.1-0.3,0.1c-0.1,0-0.2,0-0.3,0.1c-0.8,0.3-1.6,0.3-2.4,0
	c-0.8-0.3-1.4-0.9-1.7-1.7c-0.3-0.8-0.3-1.6,0-2.4c0.4-0.8,0.9-1.4,1.7-1.7c1-0.4,2.2-0.8,3.5-1.1c1.4-0.3,2.8-0.5,4.3-0.6
	c1.5-0.1,2.9,0,4.4,0.2C42.7,19.9,44,20.4,45.2,21.1z M38.9,31.8c0.4-0.1,0.9-0.3,1.3-0.6c0.4-0.2,0.8-0.5,1.2-0.9
	c0.4-0.3,0.6-0.7,0.8-1.2c0.2-0.5,0.3-1,0.3-1.6c0-0.5-0.3-0.9-0.7-1.1c-0.4-0.2-0.9-0.4-1.5-0.5c-0.6-0.1-1.3-0.2-2-0.2
	c-0.1,0.7,0,1.6,0.1,2.7C38.5,29.5,38.6,30.7,38.9,31.8z M84.9,21.1c1.1,0.7,1.9,1.5,2.5,2.5c0.6,1,1,2.2,1.1,3.5
	c0.1,1.6-0.1,3-0.5,4.2c-0.5,1.2-1.1,2.3-2,3.2c-0.8,0.9-1.8,1.6-2.8,2.2c-1.1,0.6-2.1,1-3.1,1.4c0.4,1.2,0.8,2,1.2,2.5
	c0.3,0.3,0.5,0.7,0.6,1.1c0.1,0.4,0.1,0.8,0.1,1.2c0,0.4-0.2,0.8-0.4,1.2c-0.2,0.4-0.5,0.7-0.8,1c-0.6,0.5-1.3,0.7-2,0.7
	c-1,0-1.8-0.4-2.5-1.2c-0.7-0.8-1.3-2-1.8-3.4c-0.5-1.4-1-3-1.4-4.7c-0.4-1.7-0.7-3.4-1-5c-0.2-1.7-0.4-3.2-0.4-4.5
	c-0.1,0.1-0.2,0.1-0.3,0.1c-0.1,0-0.2,0-0.3,0.1c-0.8,0.3-1.6,0.3-2.4,0c-0.8-0.3-1.4-0.9-1.7-1.7c-0.3-0.8-0.3-1.6,0-2.4
	c0.4-0.8,0.9-1.4,1.7-1.7c1-0.4,2.2-0.8,3.5-1.1c1.4-0.3,2.8-0.5,4.3-0.6c1.5-0.1,2.9,0,4.4,0.2C82.4,19.9,83.7,20.4,84.9,21.1z
	 M78.6,31.8c0.4-0.1,0.9-0.3,1.3-0.6c0.4-0.2,0.8-0.5,1.2-0.9c0.4-0.3,0.6-0.7,0.8-1.2c0.2-0.5,0.3-1,0.3-1.6c0-0.5-0.3-0.9-0.7-1.1
	c-0.4-0.2-0.9-0.4-1.5-0.5c-0.6-0.1-1.3-0.2-2-0.2c-0.1,0.7,0,1.6,0.1,2.7C78.2,29.5,78.4,30.7,78.6,31.8z M46.5,57.3
	c0.8-0.3,1.5-0.3,2.3,0.1c0.7,0.4,1.2,0.9,1.5,1.7c0.6,1.5,1,3.1,1.3,4.7c0.3,1.6,0.5,3.2,0.7,4.7c0.1,1.5,0.2,3,0.2,4.4
	c0,1.4,0,2.6-0.1,3.6c-0.1,1-0.1,1.9-0.2,2.5c-0.1,0.6-0.1,1-0.1,1.1c-0.1,0.6-0.4,1.2-0.8,1.6c-0.4,0.4-1,0.7-1.6,0.8
	c-0.6,0.1-1.2,0-1.8-0.3c-0.6-0.3-1-0.7-1.3-1.3c-0.7-1.4-1.5-2.8-2.3-4.3c-0.8-1.5-1.6-2.9-2.4-4.3c-0.8-1.4-1.6-2.7-2.4-3.9
	c-0.8-1.2-1.5-2.3-2.1-3.2c-0.1,1.1-0.1,2.3,0,3.7c0,1.3,0.1,2.6,0.1,3.9c0.1,1.3,0.2,2.5,0.3,3.7c0.1,1.2,0.2,2.2,0.4,3
	c0.1,0.8,0,1.6-0.5,2.2c-0.5,0.7-1.1,1.1-1.9,1.2c-0.1,0-0.2,0-0.3,0c-0.1,0-0.2,0-0.2,0c-0.7,0-1.4-0.2-1.9-0.7
	c-0.5-0.5-0.9-1.1-1-1.8c-0.1-0.4-0.1-1.1-0.3-2c-0.1-1-0.2-2.1-0.3-3.4c-0.1-1.3-0.2-2.7-0.3-4.2c-0.1-1.5-0.1-3-0.1-4.4
	c0-1.5,0.1-2.8,0.3-4.1c0.2-1.3,0.4-2.4,0.8-3.3c0.3-0.7,0.7-1.3,1.2-1.7c0.5-0.4,1.2-0.7,1.9-0.7c0.6,0,1.2,0.1,1.8,0.4
	c0.6,0.3,1.3,0.8,2.1,1.6c0.8,0.8,1.7,2,2.8,3.5c1.1,1.5,2.3,3.5,3.8,5.9c0.1,0.1,0.1,0.3,0.2,0.4c0.1,0.1,0.1,0.2,0.2,0.3
	c-0.1-1.3-0.3-2.5-0.5-3.9c-0.3-1.3-0.6-2.6-1.1-3.8c-0.3-0.8-0.2-1.5,0.1-2.3C45.2,58,45.7,57.5,46.5,57.3z M76.6,64.7
	c0.5,1.5,0.8,2.9,0.8,4.4c0,1.5-0.2,2.9-0.5,4.3c-0.4,1.4-0.9,2.6-1.5,3.7c-0.7,1.1-1.4,2-2.3,2.7c-0.4,0.3-0.8,0.6-1.1,0.8
	c0.1,0.1,0.1,0.2,0,0.2v0.2h0c0,0.1,0,0.1,0,0.2c0.1,0.2,0,0.3,0,0.4c0,0.1-0.1,0.1-0.1,0.1c0,0-0.1,0-0.1,0.1
	c-0.2,0.1-0.4,0.3-0.3,0.8c0,0.1,0,0.3,0,0.5v0.1v0.1v1.8v0.3c0,0.1,0,0.2,0.1,0.4c0,0.1,0,0.3-0.1,0.4c-0.1,0.2-0.3,0.3-0.5,0.3
	h-0.3c-0.1-0.1-0.2-0.1-0.3-0.3c0-0.1-0.1-0.3-0.1-0.4v0v-0.1v-0.1v-0.1c0,0,0-0.1,0-0.1c-0.1,0-0.1-0.1,0-0.1
	C70.1,85.2,70,85,70,84.8s0-0.4,0-0.7v-0.2v-0.7v-0.4v-0.1c0-0.3,0-0.5-0.1-0.5c-0.1,0.1-0.1,0.1-0.1,0.1v0v0v0.1
	c-0.1,0.1-0.1,0.1-0.2,0.1l0,0c-0.1,0-0.1-0.1-0.1-0.2l0,0l0.1,0v-0.1v-0.1l0.1-0.1c0-0.1,0-0.1-0.1-0.1c-0.6,0.2-1.3,0.4-2,0.5
	c-0.7,0.1-1.3,0.2-2,0.2c-1.3,0-2.6-0.2-3.7-0.6c-1.9-0.6-3.4-1.7-4.7-3.1c-1.3-1.4-2.1-3.1-2.5-4.9c-0.6-2.6-0.7-5.1-0.3-7.4
	c0.4-2.3,1.2-4.1,2.4-5.6c0.3-0.4,0.7-0.7,1.2-1.1c0.4-0.4,0.9-0.7,1.5-1c0.2-0.7,0.5-1.3,1.1-1.8c0.6-0.5,1.3-0.7,2-0.7
	c2.4,0,4.4,0.3,6.1,0.9c1.7,0.6,3,1.3,4.1,2.1c1.1,0.8,1.9,1.7,2.5,2.7C75.9,63.1,76.3,64,76.6,64.7z M64,75.8
	c0.8,0.3,1.7,0.4,2.5,0.2c0.9-0.2,1.6-0.5,2.4-1.1c0.3-0.3,0.7-0.7,1-1.3c0.3-0.6,0.6-1.2,0.7-2c0.2-0.7,0.3-1.5,0.3-2.3
	c0-0.8-0.1-1.6-0.4-2.4c-0.2-0.5-0.4-0.9-0.7-1.3c-0.3-0.4-0.7-0.8-1.1-1.1c-0.1,0.1-0.1,0.1-0.2,0.2c-0.2,0-0.3,0.3-0.3,0.8V66v0.1
	v0.1c0,0.3,0,0.6,0,0.9c0,0.3,0,0.6,0,0.9v0.2c0.1,0.3,0,0.6,0,0.8c-0.1,0.2-0.3,0.4-0.5,0.4c-0.1,0-0.2,0-0.3,0
	c-0.1-0.1-0.2-0.1-0.3-0.3c-0.1-0.1-0.1-0.3-0.1-0.4v0v-0.1c0,0,0-0.1,0-0.1v-0.1L67,68.2v-0.1c-0.1-0.1-0.1-0.3-0.1-0.5
	c0-0.2,0-0.4,0-0.6c0-0.1,0-0.1,0-0.1s0-0.1,0-0.1v-0.6v-0.4v-0.2c0-0.3,0-0.4-0.1-0.5c-0.1,0.1-0.1,0.1-0.2,0.1h0v0
	c0,0.1,0,0.1,0,0.1c0,0-0.1,0-0.1,0V66c0,0.1,0,0.1,0,0.1c0,0,0,0.1,0,0.1c0,0.1,0,0.3,0,0.4c0,0.1,0,0.3-0.1,0.3
	c-0.1,0.3-0.3,0.4-0.5,0.4c-0.1,0-0.2,0-0.3,0c-0.1,0-0.2-0.1-0.3-0.2c0-0.2-0.1-0.3-0.1-0.4c-0.1-0.1-0.1-0.1,0-0.1v-0.1v0v0l0,0
	c0,0,0-0.1,0-0.1c-0.1-0.1-0.1-0.3-0.1-0.5c0-0.2,0-0.4,0-0.7c0-0.1,0-0.2,0-0.2v-0.4c-0.4,0.1-0.8,0.1-1.2,0.1c-0.1,0-0.2,0-0.3,0
	c-0.1,0-0.2,0-0.2,0c-0.7,0-1.2,0.1-1.5,0.3c-0.3,0.2-0.5,0.4-0.6,0.5c-0.6,0.6-0.9,1.6-1,2.9c-0.1,1.3,0,2.8,0.3,4.3
	c0.2,0.8,0.5,1.4,1.1,2C62.6,75.1,63.2,75.5,64,75.8z M72.4,81.2c0.1-0.1,0.2,0,0.3,0c0.1,0.1,0.1,0.1,0,0.1c0,0.1,0,0.1-0.1,0.1h0
	h-0.1v0c0,0-0.1,0-0.1,0v0C72.4,81.3,72.4,81.3,72.4,81.2z"/>
<path class="st2" d="M100.6,30.7c-0.5-1.4-1-2.6-1.4-3.7c-0.1,0.3-0.2,0.6-0.4,1c0.4,0.9,0.8,2,1.2,3.3c0.4,1.2,0.9,2.5,1.3,3.9
	c0.2,0,0.5,0.1,0.7,0.1C101.6,33.6,101.1,32.1,100.6,30.7z"/>
<path class="st2" d="M114.9,21.9c0,0,0,0,0.1,0c0.8,0,1.4-0.3,2-0.8c0.1-0.1,0.2-0.2,0.3-0.3c-0.5,0.4-1.1,0.6-1.7,0.6
	c-0.1,0-0.1,0-0.1,0c-0.8,0-1.5-0.3-2.1-0.9c-0.6-0.6-0.8-1.3-0.8-2.1l0.1-2.1c0-0.6,0.2-1.1,0.6-1.6c-0.1,0-0.1,0.1-0.2,0.1
	c-0.6,0.6-0.9,1.2-0.9,2l-0.1,2.1c0,0.8,0.2,1.5,0.8,2.1C113.4,21.6,114.1,21.9,114.9,21.9z"/>
<path class="st2" d="M108.1,45.2C108.1,45.2,108.1,45.3,108.1,45.2c-0.1,0.1-0.2,0.2-0.2,0.2c-0.2,0-0.2,0.1-0.3,0.3
	c0.1-0.1,0.3-0.1,0.4-0.2v0c0,0,0,0.1,0,0.1h0h0c0.1,0,0.1,0,0.2,0c0.1-0.1,0.1-0.1,0-0.1c-0.1,0-0.1,0-0.2,0
	c0.2-0.1,0.3-0.2,0.5-0.4h0c0,0,0-0.1,0-0.1v0C108.4,45.1,108.2,45.2,108.1,45.2z"/>
<path class="st2" d="M109,44.7c-0.1,0.1-0.2,0.2-0.3,0.2c0,0,0.1,0,0.1,0C108.8,44.9,108.9,44.8,109,44.7z"/>
<path class="st2" d="M65.7,64.2v-0.4c-0.4,0.1-0.8,0.1-1.2,0.1c-0.1,0-0.2,0-0.3,0c-0.1,0-0.2,0-0.2,0c-0.7,0-1.2,0.1-1.5,0.3
	c-0.3,0.2-0.5,0.4-0.6,0.5c-0.1,0.1-0.1,0.1-0.2,0.2c0.1,0,0.1-0.1,0.2-0.1c0.3-0.2,0.8-0.3,1.5-0.3c0.1,0,0.1,0,0.2,0
	c0.1,0,0.2,0,0.3,0c0.4,0,0.8,0,1.2-0.1v0.4c0,0,0,0.1,0,0.2c0,0.3,0,0.5,0,0.7c0,0.2,0,0.4,0.1,0.5c0,0.1,0,0.1,0,0.1l0,0v0v0v0.1
	c-0.1,0-0.1,0,0,0.1c0,0.1,0,0.3,0.1,0.4c0,0.2,0.1,0.2,0.3,0.2c0.1,0,0.2,0,0.3,0c0.2,0,0.4-0.1,0.5-0.4c0,0,0-0.1,0.1-0.2
	c0,0,0,0-0.1,0c-0.1,0-0.2,0-0.3,0c-0.1,0-0.2-0.1-0.3-0.2c0-0.2-0.1-0.3-0.1-0.4c-0.1-0.1-0.1-0.1,0-0.1v-0.1v0v0l0,0
	c0,0,0-0.1,0-0.1c-0.1-0.1-0.1-0.3-0.1-0.5c0-0.2,0-0.4,0-0.7C65.7,64.3,65.7,64.2,65.7,64.2z"/>
<path class="st2" d="M88,41.2c-0.2,0.6-0.3,0.9-0.3,1c-0.1,0.4-0.1,0.8-0.1,1.2c0.1,0.4,0.2,0.8,0.4,1.1c0.2,0.3,0.4,0.6,0.8,0.9
	c0.3,0.2,0.7,0.4,1.1,0.5c0.3,0.1,0.5,0.1,0.8,0.1c0.7,0,1.3-0.2,1.8-0.6c0.2-0.2,0.4-0.3,0.5-0.5c0,0,0,0,0,0
	c-0.5,0.4-1.2,0.6-1.8,0.6c-0.3,0-0.5,0-0.8-0.1c-0.4-0.1-0.8-0.2-1.1-0.5c-0.3-0.2-0.6-0.5-0.8-0.9c-0.2-0.3-0.3-0.7-0.4-1.1
	c-0.1-0.4,0-0.8,0.1-1.2c0-0.1,0.1-0.4,0.3-1c0.2-0.6,0.4-1.4,0.7-2.4c0.3-1,0.6-2.1,1-3.3c0.4-1.2,0.8-2.5,1.2-3.8
	c0.8-2.3,1.5-4.3,2.1-5.8c0.6-1.6,1.3-2.8,1.9-3.8c0.3-0.5,0.6-0.8,0.9-1.2c-0.5,0.4-0.9,1-1.4,1.7c-0.6,1-1.2,2.2-1.9,3.8
	c-0.6,1.6-1.3,3.5-2.1,5.8c-0.4,1.3-0.8,2.6-1.2,3.8c-0.4,1.2-0.7,2.3-1,3.3C88.4,39.8,88.2,40.5,88,41.2z"/>
<path class="st2" d="M66.8,66.6L66.8,66.6c0,0.1,0,0.1,0,0.1c0,0,0,0.1,0,0.1c0,0.2,0,0.4,0,0.6c0,0.2,0,0.4,0.1,0.5v0.1l0.1,0.1
	v0.1c0,0,0,0.1,0,0.1v0.1v0c0,0.1,0,0.3,0.1,0.4c0.1,0.1,0.2,0.2,0.3,0.3c0.1,0,0.2,0,0.3,0c0.3,0,0.5-0.1,0.5-0.4c0,0,0-0.1,0-0.2
	c0,0,0,0,0,0c-0.1,0-0.2,0-0.3,0c-0.1-0.1-0.2-0.1-0.3-0.3c-0.1-0.1-0.1-0.3-0.1-0.4v0v-0.1c0,0,0-0.1,0-0.1v-0.1l-0.1-0.1v-0.1
	c-0.1-0.1-0.1-0.3-0.1-0.5c0-0.2,0-0.4,0-0.6c0-0.1,0-0.1,0-0.1c0,0,0-0.1,0-0.1v-0.6V65v-0.2c0-0.3,0-0.4-0.1-0.5
	c-0.1,0.1-0.1,0.1-0.2,0.1h0v0c0,0.1,0,0.1,0,0.1c0,0-0.1,0-0.1,0v0.6c0,0.1,0,0.1,0,0.1c0,0,0,0.1,0,0.1c0,0.1,0,0.3,0,0.4
	c0,0.1,0,0.3-0.1,0.3C66.9,66.4,66.9,66.5,66.8,66.6z"/>
<path class="st2" d="M113.4,45c0.5,0.4,1.1,0.6,1.7,0.6c0.1,0,0.3,0,0.4,0c0.1,0,0.3,0,0.4-0.1c0.6-0.2,1.1-0.5,1.5-1
	c-0.3,0.2-0.6,0.4-1,0.5c-0.1,0-0.3,0-0.4,0.1c-0.1,0-0.3,0-0.4,0c-0.6,0-1.2-0.2-1.7-0.6c-0.5-0.4-0.9-0.9-1.1-1.6
	c-0.5-1.8-0.8-3.6-0.8-5.4c0-1.8,0.1-3.6,0.2-5.5c0.1-1.1,0.1-2.1,0.2-3.2c0.1-1.1,0.1-2.2,0-3.4c0-0.7,0.2-1.3,0.6-1.9
	c-0.1,0.1-0.3,0.2-0.4,0.3c-0.5,0.6-0.8,1.3-0.8,2.1c0.1,1.2,0.1,2.3,0,3.4c-0.1,1.1-0.1,2.2-0.2,3.2c-0.1,1.9-0.2,3.7-0.2,5.5
	c0,1.8,0.2,3.6,0.8,5.4C112.5,44,112.8,44.6,113.4,45z"/>
<path class="st2" d="M96.3,68.8c-0.6,0.5-0.9,1.2-1,2C95.2,72,95,73,94.6,73.7c-0.2,0.5-0.5,1-0.9,1.4c0,0,0.1-0.1,0.1-0.1
	c0.5-0.5,1-1.1,1.3-1.9c0.4-0.8,0.6-1.7,0.7-2.8c0-0.6,0.2-1.1,0.6-1.6C96.4,68.8,96.3,68.8,96.3,68.8z"/>
<path class="st2" d="M98,66.4c0.4-0.2,0.7-0.5,0.9-0.8c-0.1,0.1-0.2,0.2-0.4,0.3c-0.6,0.3-1.3,0.4-1.9,0.3c-0.7-0.1-1.2-0.4-1.7-0.9
	c-0.5-0.5-1-1-1.6-1.5c-0.6-0.5-1.1-0.9-1.7-1.2c-0.5-0.3-1-0.6-1.5-0.8c-0.4-0.2-0.8-0.2-1.1-0.2c-0.2,0-0.4,0.2-0.5,0.5
	c0,0,0,0,0,0c0.3-0.1,0.6,0,1.1,0.2c0.4,0.2,0.9,0.4,1.5,0.8c0.5,0.3,1.1,0.7,1.7,1.2c0.6,0.5,1.1,0.9,1.6,1.5
	c0.5,0.5,1.1,0.8,1.7,0.9C96.8,66.8,97.4,66.7,98,66.4z"/>
<path class="st2" d="M115.8,69.2c0,0-0.1,0.1-0.1,0.1c-0.6,0.6-1,1.2-1,2.1c-0.1,0.6,0,1.3,0.1,2.1c0.1,0.6,0.2,1.1,0.3,1.7
	c0.2,0,0.4,0,0.6,0c-0.1-0.7-0.3-1.5-0.4-2.2c-0.1-0.7-0.1-1.4-0.1-2.1C115.3,70.2,115.5,69.7,115.8,69.2z"/>
<path class="st2" d="M103.5,43c0,0.2,0.1,0.4,0.1,0.7c0.2,0.7,0.6,1.3,1.2,1.7c0,0.1,0,0.1,0,0.1h0h0c0.1,0,0.2,0,0.2,0v0.1
	c0,0.1,0,0.1,0,0.1v0l0.1,0.1h0.1c0,0,0,0,0.1,0c0,0,0,0,0.1,0l0,0c0,0,0,0.1,0,0.1h0c0,0,0,0.1,0,0.1l-0.1,0h0c0,0.1,0,0.1,0.1,0.2
	h0c0.1,0,0.1,0,0.1,0c0,0,0-0.1,0-0.1v0h0c0.1,0,0.1,0,0.2-0.1c0,0.1,0,0.2,0,0.4v0.1v0.3v0.5v0.1c0,0.2,0,0.3,0,0.5
	c0,0.2,0,0.3,0.1,0.3v0l0,0v0v0v0v0.1c0,0.1,0,0.2,0.1,0.3c0,0.1,0.1,0.1,0.3,0.1c0,0,0.1,0,0.2,0c0.3,0,0.5-0.1,0.5-0.3
	c0.1-0.1,0.1-0.2,0.1-0.3c0,0,0,0,0,0c0,0,0,0-0.1,0c-0.1,0-0.1,0-0.2,0c-0.1,0-0.2,0-0.3-0.1c0-0.1-0.1-0.2-0.1-0.3V48v0v0v0l0,0v0
	c-0.1-0.1-0.1-0.2-0.1-0.3c0-0.2,0-0.3,0-0.5v-0.1v-0.5v-0.3V46c0-0.2,0-0.3,0-0.4c-0.1,0.1-0.1,0.1-0.2,0.1h0v0c0,0,0,0.1,0,0.1
	c0,0,0,0-0.1,0h0c-0.1-0.1-0.1-0.1-0.1-0.2h0l0.1,0c0,0,0-0.1,0-0.1h0c0-0.1,0-0.1,0-0.1l0,0c0,0,0,0-0.1,0c0,0,0,0-0.1,0h-0.1
	l-0.1-0.1v0c0,0,0,0,0-0.1V45c-0.1,0-0.1,0-0.2,0h0h0c0,0,0-0.1,0-0.1c-0.6-0.4-1-1-1.2-1.7c-0.1-0.2-0.1-0.4-0.1-0.7
	c0-0.2-0.1-0.4-0.1-0.7c-1.6-0.4-3.2-0.6-4.9-0.8c-1.7-0.2-3.1-0.2-4.3,0c-0.1,0.2-0.1,0.3-0.1,0.5c1.1-0.1,2.4-0.1,3.9,0.1
	c1.7,0.2,3.3,0.4,4.9,0.8C103.4,42.5,103.5,42.8,103.5,43z"/>
<path class="st2" d="M85.8,34.3C85.8,34.3,85.9,34.3,85.8,34.3c-0.7,0.6-1.4,1.2-2.3,1.6c-1.1,0.6-2.1,1-3.1,1.4
	c0,0.1,0.1,0.2,0.1,0.3c0.8-0.3,1.6-0.7,2.4-1.1C84.1,35.9,85,35.2,85.8,34.3z"/>
<path class="st2" d="M93.5,56.8c0.1-0.2,0.3-0.5,0.4-0.7c-0.2,0.2-0.4,0.4-0.6,0.6C93.4,56.8,93.5,56.8,93.5,56.8z"/>
<path class="st2" d="M81.2,29.9c0.1-0.1,0.2-0.1,0.3-0.2c0.4-0.3,0.6-0.7,0.8-1.2c0.2-0.5,0.3-1,0.3-1.6c0-0.5-0.3-0.9-0.7-1.1
	c-0.4-0.3-0.9-0.4-1.5-0.5c-0.6-0.1-1.3-0.2-2-0.2c0,0.2,0,0.4,0,0.6c0.5,0,1,0.1,1.5,0.1c0.6,0.1,1.1,0.3,1.5,0.5
	c0.4,0.2,0.6,0.6,0.7,1.1c0,0.6-0.1,1.1-0.3,1.6C81.6,29.4,81.4,29.6,81.2,29.9z"/>
<path class="st2" d="M86.7,72.5c0.3-0.2,0.7-0.4,1.1-0.5c0.5-0.2,1-0.3,1.6-0.4c0.6-0.1,1.1-0.2,1.6-0.2c0.8-0.1,1.5-0.4,2.1-1
	c0.1-0.1,0.1-0.1,0.2-0.2c-0.5,0.4-1,0.6-1.7,0.6c-0.5,0-1,0.1-1.6,0.2c-0.6,0.1-1.1,0.3-1.6,0.4c-0.5,0.2-0.9,0.4-1.2,0.6
	C86.9,72.2,86.8,72.3,86.7,72.5z"/>
<path class="st2" d="M81.1,44.3c-0.6,0.5-1.3,0.7-1.9,0.7c-1,0-1.8-0.4-2.5-1.2c-0.7-0.8-1.3-2-1.8-3.4c-0.5-1.4-1-3-1.4-4.7
	c-0.4-1.7-0.7-3.4-1-5c-0.2-1.7-0.4-3.2-0.4-4.5c-0.1,0.1-0.2,0.1-0.3,0.1c-0.1,0-0.2,0-0.3,0.1c-0.8,0.3-1.6,0.3-2.4,0
	c-0.8-0.3-1.4-0.9-1.7-1.7c-0.3-0.8-0.3-1.6,0-2.4c0.1-0.3,0.3-0.5,0.4-0.7c-0.4,0.3-0.7,0.7-1,1.2c-0.4,0.8-0.4,1.6,0,2.4
	c0.3,0.8,0.9,1.4,1.7,1.7c0.8,0.3,1.6,0.4,2.4,0c0.1-0.1,0.2-0.1,0.3-0.1c0.1,0,0.2,0,0.3-0.1c0,1.3,0.2,2.8,0.4,4.5
	c0.2,1.7,0.6,3.4,1,5c0.4,1.7,0.9,3.2,1.4,4.7c0.5,1.4,1.2,2.6,1.8,3.4c0.7,0.8,1.5,1.2,2.5,1.2c0.7,0,1.4-0.2,2-0.7
	C80.8,44.7,80.9,44.5,81.1,44.3z"/>
<path class="st2" d="M95.9,86c-0.1,0-0.2,0-0.2,0c-0.1,0-0.2-0.1-0.3-0.2c0-0.1-0.1-0.3-0.1-0.4v0v0v-0.1v0v0c0,0,0-0.1,0-0.1v-0.1
	c-0.1-0.1-0.1-0.2-0.1-0.4c0-0.2,0-0.4,0-0.6v-0.2v-0.6v-0.4v-0.2c0-0.2,0-0.3,0-0.4c-0.1,0.1-0.1,0.1-0.2,0.1h0c0,0.1,0,0.1,0,0.1
	c-0.1,0.1-0.1,0.1-0.1,0.1c0,0-0.1,0-0.1,0c-0.1-0.1-0.1-0.1-0.1-0.2l0,0l0.1,0l0,0l0-0.1c0-0.1,0-0.1,0.1-0.1
	c0-0.1-0.1-0.2-0.2-0.2h-0.1c-0.1,0-0.1,0-0.1-0.1c0,0,0,0,0-0.1v0c-0.6,0.3-1.3,0.5-2,0.6c-0.7,0.1-1.4,0.2-2.1,0.2h-0.3
	c-1.4,0-2.7-0.3-3.9-0.8c-1.2-0.5-2.2-1.2-3-2c-0.8-0.8-1.5-1.8-2-3c-0.5-1.2-0.7-2.4-0.7-3.7c0-1,0.2-1.8,0.5-2.6
	c0.3-0.8,0.7-1.4,1.3-2c-0.6-1-0.8-2.2-0.7-3.4c0.1-1.2,0.4-2.4,0.8-3.5c0.3-1,0.6-1.8,1.1-2.4c0.3-0.4,0.6-0.8,0.9-1.1
	c0,0,0,0-0.1,0.1c-0.5,0.4-0.9,1-1.3,1.6c-0.4,0.6-0.8,1.4-1.1,2.4c-0.4,1.1-0.6,2.3-0.8,3.5c-0.1,1.2,0.1,2.4,0.7,3.4
	c-0.5,0.6-1,1.2-1.3,2c-0.3,0.8-0.5,1.6-0.5,2.6c0,1.3,0.2,2.6,0.7,3.7c0.5,1.2,1.1,2.1,2,3c0.8,0.8,1.8,1.5,3,2
	c1.2,0.5,2.4,0.8,3.9,0.8H90c0.7,0,1.4-0.1,2.1-0.2c0.7-0.1,1.3-0.3,2-0.6v0c0,0,0,0,0,0.1c0,0,0,0,0.1,0.1h0.1
	c0.1,0.1,0.2,0.1,0.2,0.2c-0.1,0-0.1,0-0.1,0.1l0,0.1l0,0l-0.1,0l0,0c0,0,0,0.1,0.1,0.2c0,0,0.1,0,0.1,0c0,0,0.1,0,0.1-0.1
	c0,0,0,0,0-0.1h0c0,0,0.1,0,0.2-0.1c0.1,0.1,0.1,0.3,0,0.4v0.2v0.4v0.6v0.2c0,0.2,0,0.4,0,0.6c0,0.2,0,0.3,0.1,0.4v0.1
	c0,0,0,0.1,0,0.1v0v0v0.1v0v0c0,0.1,0,0.3,0.1,0.4c0,0.1,0.1,0.2,0.3,0.2c0.1,0,0.1,0,0.2,0c0.2,0,0.4-0.1,0.5-0.3
	C96,86.2,96,86.1,95.9,86C96,86,96,86,95.9,86z"/>
<path class="st2" d="M73.4,79.2c-0.4,0.3-0.8,0.6-1.1,0.8c0.1,0.1,0.1,0.2,0,0.2v0c0.2-0.1,0.4-0.3,0.6-0.4c0.3-0.2,0.6-0.5,0.9-0.8
	C73.6,79,73.5,79.1,73.4,79.2z"/>
<path class="st2" d="M72.3,81.1c0,0,0,0.1,0,0.1v0c0,0,0.1,0,0.1,0v0h0.1h0c0.1,0,0.1,0,0.1-0.1c0.1,0,0.1,0,0-0.1
	C72.5,81,72.4,81,72.3,81.1z"/>
<path class="st2" d="M98.4,79.8L98.4,79.8L98.4,79.8c0,0.1,0,0.2,0,0.2l0,0c0,0,0,0,0,0c0.1,0,0.1,0,0.2-0.1c0,0,0-0.1,0-0.2
	C98.5,79.7,98.5,79.7,98.4,79.8z"/>
<path class="st2" d="M69.7,73.4c-0.2,0.3-0.4,0.6-0.5,0.8c0,0,0.1,0,0.1-0.1c0.3-0.3,0.7-0.7,1-1.3c0.3-0.6,0.6-1.2,0.7-2
	c0.2-0.7,0.3-1.5,0.3-2.3c0-0.8-0.1-1.6-0.4-2.4c-0.2-0.5-0.4-0.9-0.7-1.3c-0.3-0.4-0.7-0.8-1.1-1.1c-0.1,0.1-0.1,0.1-0.2,0.2
	c-0.1,0-0.2,0.2-0.3,0.4c0.4,0.3,0.7,0.6,1,1c0.3,0.4,0.5,0.8,0.7,1.3c0.3,0.8,0.4,1.6,0.4,2.4c0,0.8-0.1,1.6-0.3,2.3
	C70.3,72.2,70,72.8,69.7,73.4z"/>
<path class="st2" d="M97.4,84.1h-0.2c-0.1-0.1-0.2-0.1-0.3-0.3c0-0.1-0.1-0.2-0.1-0.4v-0.1c0,0,0-0.1,0-0.1v0v0c0,0-0.1,0-0.1,0V83
	c-0.1-0.1-0.1-0.3-0.1-0.4c0-0.2,0-0.4,0-0.6v-0.2c-0.2,0.1-0.3,0.3-0.3,0.8V83v0v0.1v1.4c0,0,0.1,0.1,0.2,0.1h0.2
	c0.2,0,0.4-0.1,0.5-0.3C97.5,84.2,97.5,84.1,97.4,84.1C97.5,84.1,97.4,84.1,97.4,84.1z"/>
<path class="st2" d="M71.2,85.7h-0.3c-0.1-0.1-0.2-0.1-0.3-0.3c0-0.1-0.1-0.3-0.1-0.4v0v-0.1v-0.1v-0.1c0,0,0-0.1,0-0.1
	c-0.1,0-0.1-0.1,0-0.1c-0.1-0.1-0.1-0.3-0.1-0.5c0-0.2,0-0.4,0-0.7v-0.2v-0.7v-0.4V82c0-0.3,0-0.5-0.1-0.5c-0.1,0.1-0.1,0.1-0.1,0.1
	v0v0v0.1c-0.1,0.1-0.1,0.1-0.2,0.1l0,0c-0.1,0-0.1-0.1-0.1-0.2l0,0l0.1,0v-0.1v-0.1l0.1-0.1c0-0.1,0-0.1-0.1-0.1
	c-0.6,0.2-1.3,0.4-2,0.5c-0.7,0.1-1.3,0.2-2,0.2c-1.3,0-2.6-0.2-3.7-0.6c-1.9-0.6-3.4-1.7-4.7-3.1c-1.3-1.4-2.1-3.1-2.5-4.9
	c-0.6-2.6-0.7-5.1-0.3-7.4c0.4-2.3,1.2-4.1,2.4-5.6c-0.2,0.2-0.4,0.4-0.5,0.5c-1.3,1.4-2.1,3.3-2.4,5.6c-0.4,2.3-0.3,4.7,0.3,7.4
	c0.4,1.9,1.3,3.5,2.5,4.9c1.3,1.4,2.8,2.4,4.7,3.1c1.1,0.4,2.4,0.6,3.7,0.6c0.7,0,1.3-0.1,2-0.2c0.7-0.1,1.3-0.3,2-0.5
	c0.1,0,0.1,0,0.1,0.1l-0.1,0.1V82v0.1l-0.1,0l0,0c0,0.1,0,0.2,0.1,0.2l0,0c0.1,0,0.1,0,0.2-0.1v-0.1v0v0c0,0,0.1,0,0.1-0.1
	c0.1,0.1,0.1,0.3,0.1,0.5v0.1v0.4v0.7V84c0,0.2,0,0.4,0,0.7c0,0.2,0,0.4,0.1,0.5c-0.1,0.1-0.1,0.1,0,0.1c0,0,0,0.1,0,0.1v0.1v0.1
	v0.1v0c0,0.1,0,0.3,0.1,0.4c0,0.1,0.1,0.2,0.3,0.3h0.3c0.3,0,0.4-0.1,0.5-0.3C71.2,85.9,71.3,85.8,71.2,85.7
	C71.2,85.7,71.2,85.7,71.2,85.7z"/>
<path class="st2" d="M120.5,81.1c-0.5,0.2-1,0.2-1.5,0.1c-0.6-0.1-1.3-0.1-2.3-0.1c-1,0-2,0.1-3.1,0.1c-1.1,0.1-2.2,0.2-3.3,0.3
	c-1.1,0.1-2.1,0.2-2.9,0.3c-0.1,0-0.3,0-0.4,0c-0.4,0-0.8-0.1-1.2-0.3c-0.4-0.2-0.7-0.4-1-0.8c-0.7-0.8-0.9-1.7-0.7-2.7
	c0.1-0.4,0.2-1.1,0.3-1.9c0.1-0.8,0.2-1.8,0.2-2.9c0.1-1.1,0.1-2.3,0.1-3.5s0-2.5-0.1-3.8c-0.1-1.3-0.2-2.5-0.3-3.7
	c-0.1-1.2-0.3-2.3-0.6-3.3c-0.1-0.4-0.1-0.8,0-1.2c0.1-0.4,0.2-0.8,0.4-1.1c0.1-0.1,0.1-0.2,0.2-0.3c-0.3,0.2-0.6,0.5-0.8,0.9
	c-0.2,0.3-0.3,0.7-0.4,1.1c-0.1,0.4-0.1,0.8,0,1.2c0.3,1,0.4,2.1,0.6,3.3c0.1,1.2,0.2,2.4,0.3,3.7c0.1,1.3,0.1,2.5,0.1,3.8
	s0,2.4-0.1,3.5c-0.1,1.1-0.1,2-0.2,2.9c-0.1,0.8-0.2,1.5-0.3,1.9c-0.2,1,0,1.9,0.7,2.7c0.3,0.3,0.6,0.6,1,0.8
	c0.4,0.2,0.8,0.3,1.2,0.3c0.2,0,0.3,0,0.4,0c0.8-0.1,1.8-0.2,2.9-0.3c1.1-0.1,2.2-0.2,3.3-0.3c1.1-0.1,2.1-0.1,3.1-0.1
	c1,0,1.7,0,2.3,0.1c0.5,0.1,1,0,1.5-0.1c0.5-0.2,0.9-0.4,1.2-0.8c0,0,0.1-0.1,0.1-0.1C121.1,80.9,120.8,81,120.5,81.1z"/>
<path class="st2" d="M46.1,34.3c-0.7,0.7-1.5,1.2-2.3,1.7c-1.1,0.6-2.1,1-3.1,1.4c0,0.1,0.1,0.2,0.1,0.3c0.8-0.3,1.6-0.7,2.4-1.1
	C44.3,35.9,45.3,35.2,46.1,34.3C46.1,34.3,46.1,34.3,46.1,34.3z"/>
<path class="st2" d="M41.5,29.9c0.1-0.1,0.2-0.1,0.3-0.2c0.4-0.3,0.6-0.7,0.8-1.2c0.2-0.5,0.3-1,0.3-1.6c0-0.5-0.3-0.9-0.7-1.1
	c-0.4-0.3-0.9-0.4-1.5-0.5c-0.6-0.1-1.3-0.2-2-0.2c0,0.2,0,0.4,0,0.6c0.5,0,1,0.1,1.5,0.1c0.6,0.1,1.1,0.3,1.5,0.5
	c0.4,0.2,0.6,0.6,0.7,1.1c0,0.6-0.1,1.1-0.3,1.6C41.9,29.4,41.7,29.6,41.5,29.9z"/>
<path class="st2" d="M59.8,58.2c0.1-0.5,0.3-0.9,0.6-1.3c0,0,0,0-0.1,0c-0.5,0.4-0.8,0.9-1,1.5C59.5,58.4,59.7,58.3,59.8,58.2z"/>
<path class="st2" d="M35.9,82.2c-0.1,0-0.2,0-0.3,0c-0.1,0-0.2,0-0.2,0c-0.7,0-1.4-0.2-1.9-0.7c-0.5-0.5-0.9-1.1-1-1.8
	c-0.1-0.4-0.1-1.1-0.3-2c-0.1-1-0.2-2.1-0.3-3.4c-0.1-1.3-0.2-2.7-0.3-4.2c-0.1-1.5-0.1-3-0.1-4.4c0-1.5,0.1-2.8,0.3-4.1
	c0.2-1.3,0.4-2.4,0.8-3.3c0.2-0.4,0.4-0.8,0.6-1.1c-0.5,0.4-0.9,1-1.2,1.7c-0.3,0.9-0.6,2-0.8,3.3c-0.2,1.3-0.3,2.7-0.3,4.1
	c0,1.5,0,2.9,0.1,4.4c0.1,1.5,0.2,2.9,0.3,4.2c0.1,1.3,0.2,2.4,0.3,3.4c0.1,1,0.2,1.6,0.3,2c0.1,0.7,0.4,1.3,1,1.8
	c0.5,0.5,1.2,0.7,1.9,0.7c0.1,0,0.1,0,0.2,0c0.1,0,0.2,0,0.3,0c0.8-0.1,1.4-0.5,1.9-1.1C36.8,81.9,36.4,82.1,35.9,82.2z"/>
<path class="st2" d="M46.5,67.6c0.1,0.1,0.1,0.2,0.2,0.3c-0.1-1.3-0.3-2.5-0.5-3.9c-0.3-1.3-0.6-2.6-1.1-3.8
	c-0.3-0.8-0.2-1.5,0.1-2.3c0.1-0.2,0.2-0.4,0.3-0.5c-0.4,0.3-0.7,0.6-0.9,1.1c-0.4,0.7-0.4,1.5-0.1,2.3c0.4,1.2,0.8,2.5,1.1,3.8
	c0.1,0.7,0.2,1.3,0.3,2c0.1,0.2,0.2,0.4,0.4,0.6C46.4,67.4,46.4,67.5,46.5,67.6z"/>
<path class="st2" d="M49.9,81.8c-0.6,0.1-1.2,0-1.8-0.3c-0.6-0.3-1-0.7-1.3-1.3c-0.7-1.4-1.5-2.8-2.3-4.3c-0.8-1.5-1.6-2.9-2.4-4.3
	c-0.8-1.4-1.6-2.7-2.4-3.9c-0.8-1.2-1.5-2.3-2.1-3.2c0,0.4,0,0.8,0,1.3c0.5,0.7,1,1.6,1.6,2.5c0.8,1.2,1.5,2.5,2.4,3.9
	c0.8,1.4,1.6,2.8,2.4,4.3c0.8,1.5,1.6,2.9,2.3,4.3c0.3,0.6,0.7,1,1.3,1.3c0.6,0.3,1.2,0.4,1.8,0.3c0.6-0.1,1.2-0.4,1.6-0.8
	c0.1-0.1,0.2-0.2,0.2-0.3C50.8,81.5,50.4,81.7,49.9,81.8z"/>
<path class="st2" d="M31.5,26.8c0.1,0,0.2,0,0.3-0.1c0,1.3,0.2,2.8,0.4,4.5c0.2,1.7,0.6,3.4,1,5c0.4,1.7,0.9,3.2,1.4,4.7
	c0.5,1.4,1.2,2.6,1.8,3.4c0.7,0.8,1.5,1.2,2.5,1.2c0.7,0,1.4-0.2,2-0.7c0.2-0.2,0.4-0.3,0.5-0.5c-0.6,0.5-1.3,0.7-1.9,0.7
	c-1,0-1.8-0.4-2.5-1.2c-0.7-0.8-1.3-2-1.8-3.4c-0.5-1.4-1-3-1.4-4.7c-0.4-1.7-0.7-3.4-1-5c-0.2-1.7-0.4-3.2-0.4-4.5
	c-0.1,0.1-0.2,0.1-0.3,0.1c-0.1,0-0.2,0-0.3,0.1c-0.8,0.3-1.6,0.3-2.4,0c-0.8-0.3-1.4-0.9-1.7-1.7c-0.3-0.8-0.3-1.6,0-2.4
	c0.1-0.3,0.3-0.5,0.4-0.7c-0.4,0.3-0.7,0.7-1,1.2c-0.4,0.8-0.4,1.6,0,2.4c0.3,0.8,0.9,1.4,1.7,1.7c0.8,0.3,1.6,0.4,2.4,0
	C31.4,26.9,31.4,26.8,31.5,26.8z"/>
<path d="M67,39.1C67,39.1,67,39.1,67,39.1C67,39.1,67,39.1,67,39.1C67,39.1,67,39.1,67,39.1z"/>
<path d="M75.1,32.7c-0.3,0-0.7-0.1-1-0.1c-0.2,0-0.5,0-0.7,0c0,0-0.1,0-0.1-0.1c0,0,0-0.1,0.1-0.1c0.1,0,0.2-0.1,0.2-0.1
	c0.1,0,0.1,0,0.2-0.1c0.1,0,0.1-0.1,0.2-0.1c-0.2-0.3-0.3-0.6-0.2-0.7c0,0.1,0.1,0.2,0.1,0.2c0.1,0,0.1,0,0.3,0c0,0,0,0.1,0.1,0.2
	c0,0,0,0,0,0c0-0.1,0-0.1,0.1-0.2c0,0,0,0,0,0c0,0,0.1,0.1,0.1,0.1c0-0.1,0.1-0.1,0.1-0.2c-0.2,0.1-0.1-0.1-0.1-0.1
	c-0.1,0-0.2,0-0.2,0c-0.1,0-0.1-0.1-0.1-0.1c0,0,0,0-0.1,0.1c0-0.2-0.1-0.3-0.3-0.4c-0.1,0.2-0.1,0-0.2,0c0,0.1,0,0.2-0.1,0.3
	c0,0,0,0,0,0c0-0.1-0.1-0.2-0.1-0.3c0,0.1,0,0.2-0.1,0.3c0,0-0.1,0.1-0.1,0.1c0,0-0.1,0-0.1-0.1c0,0,0,0,0,0c-0.1,0-0.2,0-0.3,0
	c0-0.1,0-0.1,0-0.2c-0.1-0.1-0.1-0.2-0.2-0.3c0,0.1,0,0.1,0,0.2c0,0-0.1,0-0.1,0c0,0.1-0.1,0.1-0.2,0.2c-0.2,0.1-0.3-0.1-0.4-0.1
	c0,0.1-0.1,0.2-0.1,0.2c0,0,0,0,0,0c0,0,0-0.1,0-0.1c0-0.3,0.1-0.5,0.1-0.8c0-0.8-0.1-1.6-0.3-2.4c-0.1-0.5-0.3-1-0.5-1.5
	c-0.3-0.9-0.7-1.7-1.3-2.4c-0.3-0.3-0.5-0.6-0.8-0.9c-0.3-0.3-0.5-0.6-0.8-0.8c-0.3-0.3-0.7-0.6-1-0.8c-0.1-0.1-0.1-0.1-0.2-0.2
	c1.1,0.7,2,1.6,2.8,2.6c0.8,1,1.4,2.2,1.9,3.4c0-0.1,0-0.1,0-0.2c0,0,0-0.1,0-0.1c0.1,0,0-0.1,0-0.1c0-0.1-0.1-0.2-0.1-0.2
	c0,0,0,0,0,0c0.1,0.4,0.3,0.7,0.4,1.1c0,0,0,0,0,0c0,0,0-0.1,0-0.2c0.1,0.1,0.2,0.2,0.3,0.3c0.1,0.1,0.2,0.2,0.3,0.3
	c0.1,0,0.1,0.1,0.1,0.2c0,0,0,0.1,0,0.1c0,0-0.1,0-0.1,0c0,0,0,0-0.1,0c-0.1,0.1-0.1,0.3,0,0.4c0,0.1,0.1,0.1,0,0.2c0,0,0,0.1,0,0.1
	c0.1,0.1,0.1,0.1,0,0.2c0,0-0.1,0-0.1,0.1c0,0-0.1,0-0.1,0c0.1,0.2,0.2,0.2,0.3,0.4c-0.1,0-0.1,0-0.2,0.1c0,0,0,0.1,0,0.1
	c0.1,0.1,0.1,0.1,0.2,0.2c0,0,0-0.1,0-0.1c0-0.1,0.1-0.1,0.1-0.1c0.2,0,0.3-0.1,0.2-0.3c0-0.1-0.1-0.1-0.2-0.2c0,0-0.1-0.1-0.1-0.1
	c0,0,0-0.1,0-0.1c0,0,0.1,0,0.1,0c0.1,0,0.1,0,0.2,0c-0.1-0.1-0.1-0.1-0.2-0.2c-0.1-0.1-0.1-0.1,0-0.2c0.1,0,0.1,0,0.3,0
	c-0.1-0.1-0.1-0.3-0.1-0.4c0-0.1,0-0.1,0.1-0.2c0.1,0,0.1-0.1,0.1-0.2c0-0.1-0.1-0.2-0.2-0.2c0,0-0.1-0.1,0-0.2c0-0.1,0-0.2-0.1-0.2
	c-0.1-0.1-0.1-0.1-0.2,0c-0.1,0-0.2,0-0.2-0.1c0,0,0-0.1,0.1-0.2c0.1-0.1,0.1-0.1,0.2-0.2c0,0,0,0,0-0.1c-0.1,0-0.2-0.1-0.2-0.1
	c0-0.1-0.1-0.1-0.1-0.2c0-0.1-0.1-0.1-0.1-0.2c0-0.1-0.1-0.2-0.1-0.2C72,26,72,26,72.1,25.9c0,0-0.1-0.1-0.1-0.1
	c0-0.1-0.1-0.2-0.2-0.3c0,0,0-0.1,0-0.1c0.1,0,0.1,0,0.1-0.1c0,0,0-0.1,0-0.1c-0.1-0.1-0.1-0.2-0.1-0.3c0-0.2-0.1-0.3-0.2-0.3
	c0,0-0.1,0-0.1,0c-0.1-0.2-0.3-0.5-0.4-0.7c-0.1-0.2-0.2-0.5-0.2-0.7c0-0.1-0.1-0.1-0.1-0.1c-0.1,0-0.2,0-0.3-0.1
	c0,0-0.1-0.1-0.1-0.1c-0.1-0.1-0.1-0.1,0-0.2c0.1,0,0.1,0,0.2,0c0,0,0,0,0,0c-0.1,0-0.2-0.1-0.2-0.1c0,0-0.1-0.1-0.1-0.1
	c0.1-0.1,0-0.2-0.1-0.2c-0.2-0.1-0.4-0.2-0.6-0.5c0,0-0.1,0.1-0.1,0.1c-0.1,0.1-0.1,0.2-0.2,0.2c-0.1,0.1-0.1,0.1-0.2,0
	c0,0,0-0.1,0-0.2c0.1-0.1,0.1-0.1,0-0.2c-0.1-0.1-0.1-0.2,0.1-0.2c0,0,0,0,0,0c0-0.1-0.1-0.2-0.1-0.3c-0.1,0-0.2,0-0.2-0.1
	c-0.1-0.3-0.1-0.4-0.4-0.3c0,0,0,0,0,0c-0.1-0.2-0.2-0.3-0.4-0.4c-0.1,0-0.1,0-0.2,0c0,0-0.1,0.1-0.1,0.1c-0.1,0-0.2-0.1-0.3-0.1
	c-0.1-0.1-0.3-0.2-0.4-0.3c-0.2-0.2-0.4-0.4-0.6-0.5c-0.2-0.1-0.4-0.1-0.7-0.2c-0.1,0-0.2-0.1-0.3-0.2c0-0.1-0.1-0.1-0.2-0.1
	c-0.2,0-0.3-0.2-0.4-0.3c0,0,0.1,0,0.1-0.1c0,0,0,0,0,0c-0.1,0-0.2-0.1-0.3-0.1c-0.1,0-0.2,0-0.3-0.2c0,0-0.1-0.1-0.1-0.1
	c0,0.1,0,0.1,0,0.1c-0.2,0-0.3-0.1-0.3-0.3c0-0.1,0-0.1-0.1-0.2c0,0-0.1-0.1-0.2-0.1c-0.2,0-0.4,0-0.6,0c-0.1,0-0.3,0-0.4,0
	c0,0-0.1,0-0.1,0c-0.2,0.1-0.2,0.1-0.3-0.1c-0.1-0.1-0.2-0.3-0.4-0.3c-0.1,0-0.2,0-0.3,0.1c-0.1,0.1-0.2,0.2-0.4,0.2c0,0,0,0,0,0
	c-0.2,0.1-0.3-0.1-0.5,0c0,0,0-0.1,0.1-0.1c0.1,0,0.1,0,0.2,0c0,0,0.1,0,0.1,0c0,0-0.1,0-0.1,0c-0.1,0-0.1,0-0.2-0.1
	c-0.1,0-0.2-0.2-0.4,0c0,0,0,0,0,0c-0.1,0-0.2,0-0.3,0c-0.1,0-0.3,0-0.5,0c0.1-0.2,0.2-0.4,0.3-0.5c0-0.1,0-0.1,0-0.2
	c-0.1-0.1-0.2-0.2-0.4-0.2c-0.1,0-0.1,0-0.2,0c0,0,0,0,0-0.1c0.1,0,0.2-0.1,0.3-0.1c0,0,0.1-0.1,0.1-0.1c0,0-0.1-0.1-0.1-0.1
	c-0.1,0-0.3,0-0.4,0c0,0-0.1,0-0.1,0c-0.2,0-0.5,0-0.7,0c-0.2,0-0.3,0-0.4,0.2c0.1,0.1,0.1,0.1,0,0.4c0,0,0.1,0,0.1,0.1
	c0,0-0.1,0-0.1,0.1c0.1,0.1,0,0.1,0,0.2c0,0-0.1,0-0.1,0c0,0-0.1,0-0.1,0.1c0,0.1,0.1,0.1,0.1,0.2c-0.1,0-0.1,0-0.2,0
	c0,0.3-0.1,0.4-0.4,0.4c0-0.1,0-0.2,0-0.3c0,0-0.1,0-0.1,0c0,0,0,0,0,0c-0.1,0.1-0.1,0.1-0.2,0.2c-0.1,0-0.2,0.1-0.3,0.1
	c-0.1,0-0.2-0.1-0.2-0.1c0,0.1,0,0.2-0.1,0.2c0,0.1-0.1,0.1-0.2,0.1c-0.4,0.1-0.7,0.2-1.1,0.3c-0.1,0-0.3,0-0.4,0.1
	c-0.1,0-0.2,0.1-0.3,0.1c-0.1,0-0.2,0.1-0.3,0.2c0,0,0,0.1-0.1,0.1c-0.1,0-0.1,0-0.2,0.1c-0.8,0.4-1.5,0.7-2.2,1.2
	c-0.5,0.4-1,0.8-1.5,1.2c-0.1,0.1-0.1,0.2-0.2,0.2c0,0-0.1,0-0.1,0.1c-0.4,0.4-0.7,0.8-1.1,1.2c-0.7,0.8-1.2,1.6-1.6,2.6
	c-0.1,0.1-0.1,0.3-0.2,0.4c0.1-0.2,0.2-0.4,0.3-0.6c0.3-0.6,0.6-1.1,1-1.6c0.4-0.5,0.8-1,1.3-1.5c0.1-0.1,0.3-0.3,0.4-0.4
	c0,0,0,0,0,0c0.5-0.4,1-0.9,1.5-1.2c0.1-0.1,0.3-0.2,0.4-0.3c0,0.1-0.1,0.2-0.1,0.3c0,0.1-0.1,0.1-0.1,0.1c-0.2-0.1-0.3,0.1-0.4,0.2
	c-0.1,0.2-0.3,0.3-0.4,0.4c0,0-0.1-0.1-0.1-0.1c0,0,0,0-0.1,0.1c-0.1,0.1-0.1,0.2-0.2,0.3c-0.3,0.3-0.7,0.7-1.1,1
	c-0.1,0.1-0.2,0.2-0.3,0.2c0,0,0,0,0,0.1c0,0,0,0.1,0,0.1c-0.2,0.3-0.5,0.6-0.7,0.9c-0.4,0.5-0.8,1.1-1.1,1.7
	c-0.2,0.5-0.5,0.9-0.7,1.4c-0.1,0.2-0.2,0.5-0.3,0.7c-0.1,0.4-0.2,0.8-0.3,1.2c-0.2,0.8-0.3,1.6-0.4,2.4c0,0.2,0,0.3,0,0.5
	c0,0-0.1,0-0.1-0.1c0-0.1,0-0.2,0-0.4c0,0.1,0,0.2,0,0.3c0,1.2,0.1,2.5,0.4,3.7c0,0.1,0.1,0.3,0.1,0.4c0,0,0,0,0,0
	c0,0-0.1,0-0.1-0.1c-0.1,0.1-0.1,0.1-0.2,0.1c0,0.1-0.1,0.2-0.1,0.2c-0.1,0-0.1,0-0.2,0c0,0,0,0.1-0.1,0.1c0-0.1-0.1-0.1-0.1-0.1
	c0-0.1-0.1-0.1-0.2-0.1c-0.1,0-0.2,0.1-0.1,0.2c0,0.1,0,0.2,0.1,0.2c0,0.1,0,0.2,0.1,0.2c0,0.1,0.1,0.3,0.1,0.4
	c0,0.1,0.1,0.2,0.1,0.4c0,0.1,0.1,0.2,0.2,0.2c0.1-0.1,0.1-0.1,0.3,0c0,0,0,0,0.1-0.1c0,0,0.1,0.1,0.1,0.1c0.1,0,0.1-0.1,0.2-0.1
	c0.1,0,0.3,0,0.4-0.1c0.1,0,0.2,0,0.3,0.1c0,0,0-0.1,0-0.1c0.1,0.1,0.1,0.1,0.2,0.2c0.2,0.5,0.5,1,0.7,1.5c0.2,0.3,0.4,0.6,0.6,1
	c0.1,0.1,0.1,0.2,0.2,0.3c0,0,0,0,0,0c0,0,0,0,0,0c0.1,0.1,0.1,0.1,0.2,0.2c0.1,0.1,0.3,0.2,0.4,0.4c0.2,0.2,0.4,0.4,0.7,0.6
	c0.2,0.2,0.3,0.5,0.5,0.7c-0.1-0.1-0.2-0.1-0.2-0.2c0,0,0-0.1,0-0.1c-0.2-0.2-0.4-0.4-0.5-0.6c-0.1-0.1-0.2-0.2-0.3-0.3
	c0.2,0.2,0.3,0.4,0.5,0.6c0.1,0.1,0.2,0.3,0.4,0.4c0.1,0.1,0.1,0.2,0.2,0.2c0.1,0.1,0.3,0.3,0.4,0.4c0,0,0,0,0,0
	c-0.5-0.3-0.8-0.8-1.2-1.2c0,0,0,0.1,0,0.1c0.2,0.3,0.4,0.5,0.5,0.8c0.1,0.2,0.3,0.3,0.4,0.5c0.1,0.1,0.1,0.2,0.1,0.4
	c0,0,0,0.1,0,0.1c-0.2,0.6-0.4,1.2-0.6,1.7c0,0.1,0,0.1,0,0.2c0.1,0,0.1,0,0.2-0.1c0.1-0.2,0.3-0.5,0.4-0.7c0.2-0.3,0.3-0.7,0.5-1
	c0,0,0.1,0,0.1-0.1c0,0,0.1,0.1,0.1,0.1c0,0.1,0,0.2,0,0.2c0,0.1,0,0.2,0,0.2c0.1-0.1,0.2-0.1,0.2-0.1c0,0.1-0.1,0.3-0.1,0.4
	c0.2,0,0.4,0.3,0.4,0.5c0,0,0,0,0,0c-0.1,0-0.2,0-0.3,0.2c0,0.1,0,0.1-0.1,0.1c0,0,0,0-0.1,0c0,0.1,0,0.1,0,0.2c-0.1,0-0.1,0-0.2,0
	c0,0,0,0,0,0c0.1,0,0.1,0.1,0.2,0.1c0,0,0,0,0,0c0.1,0,0.1,0,0.2,0c0-0.2,0.1-0.2,0.3-0.2c0,0,0-0.1-0.1-0.1c0.2,0.1,0.3,0,0.5-0.1
	c-0.1-0.1,0-0.1,0.1-0.2c-0.1-0.1-0.2-0.1-0.2-0.3c0.1,0,0.2,0,0.3,0c-0.1-0.1-0.1-0.1-0.2-0.2c0,0,0,0,0,0c0.3,0.1,0.5,0.3,0.7,0.4
	c0.3,0.1,0.5,0.3,0.8,0.4c0,0,0,0,0,0c-0.4-0.3-0.9-0.6-1.3-0.9c-0.1-0.1-0.1-0.1,0-0.2c0.2,0.1,0.4,0.2,0.7,0.4
	c0.9,0.5,1.8,0.9,2.7,1.3c0.7,0.2,1.3,0.4,2,0.5c0.5,0.1,0.9,0.2,1.4,0.2c0.3,0,0.6,0,1,0c0.9,0,1.9-0.1,2.8-0.3
	c0.8-0.2,1.5-0.5,2.3-0.7c0.3-0.1,0.7-0.2,1-0.4c0.1,0,0.1,0,0.2,0.1c0.1-0.1,0.2-0.2,0.3-0.4c0-0.2,0.2-0.3,0.4-0.3
	c0,0,0.1,0,0.1,0c0,0,0.1,0,0.1,0c0.1-0.1,0.3-0.1,0.4-0.1c0.2,0,0.4-0.1,0.4-0.3c0.1-0.1,0-0.2-0.1-0.2c-0.1,0-0.2,0-0.2,0.1
	c0,0.1-0.2,0.1-0.3,0.1c0.1-0.1,0.1-0.1,0.2-0.2c0,0,0.1-0.1,0.1-0.1c0-0.1,0.1-0.2,0.2-0.2c0,0,0,0.1,0.1,0.1
	c0.1,0.2,0.2,0.4,0.3,0.6c0.3,0.7,0.7,1.4,0.9,2.2c0,0.2,0.1,0.3,0.3,0.4c0.1-0.2,0.1-0.4,0-0.6c-0.1-0.4-0.2-0.9-0.3-1.3
	c-0.1-0.4-0.3-0.8-0.4-1.2c0-0.1,0-0.1,0.1-0.1c0.2,0.5,0.4,1,0.7,1.5c0,0,0,0,0,0c0-0.1,0-0.2,0.1-0.3c0.1,0.1,0.1,0.3,0.2,0.4
	c0.2-0.1,0.5-0.1,0.6,0.1c-0.1,0-0.2,0.1-0.2,0.1c0,0.1,0,0.2,0,0.3c0,0-0.1,0.1-0.2,0.1c0,0,0.1,0.1,0.1,0.1
	c-0.1,0-0.1,0.1-0.1,0.1c0,0,0,0,0,0c0.1,0,0.1,0,0.2,0c0,0,0,0,0,0c0,0,0.1-0.1,0.1-0.1c0.1,0,0.2-0.1,0.2-0.1
	c-0.1-0.1-0.2-0.1-0.3-0.1c0.1,0,0.1-0.1,0.2-0.1c-0.1,0-0.1,0-0.2,0c0.1-0.1,0.1-0.1,0.2-0.2c0-0.1,0.1-0.1,0.1-0.2
	c0,0-0.1-0.1-0.1-0.1c0,0,0-0.1,0-0.1c-0.1,0-0.2,0-0.3,0c0,0-0.1,0-0.1-0.1c0,0,0,0,0-0.1c0.1,0,0.1-0.1,0.2-0.1
	c-0.1,0-0.2,0-0.3-0.1c0,0-0.1,0-0.1-0.1c0,0,0-0.1,0.1-0.1c0,0,0,0,0.1-0.1c-0.1,0-0.1,0-0.2,0c0.1-0.1,0.1-0.1,0.2-0.2
	c0.1-0.1,0.3-0.2,0.4-0.3c0,0,0,0,0,0c0,0-0.1,0-0.1,0.1c0,0-0.1,0-0.1-0.1c0,0,0,0,0.1-0.1c-0.2,0.1-0.3-0.1-0.3-0.2
	c-0.1-0.1,0.1-0.3,0.1-0.4c-0.1,0-0.2-0.1-0.2-0.1c0,0,0,0,0,0c0.1,0,0.1,0,0.2-0.1c0,0,0,0,0,0c0,0-0.1,0-0.1,0c0,0,0-0.1,0.1-0.1
	c-0.2,0-0.2-0.2-0.3-0.3c0,0,0,0,0.1-0.1c0.1-0.1,0.2-0.3,0.3-0.5c0,0,0.1-0.1,0.1-0.1c0,0.1,0.1,0.1,0.1,0.1c0,0,0.1-0.1,0.1-0.1
	c0.3,0,0.4-0.2,0.5-0.4c0.1-0.2,0.2-0.4,0.2-0.7c0.1-0.3,0.2-0.6,0.4-0.8c0.1-0.1,0.2-0.2,0.3-0.3c0.3-0.4,0.6-0.8,0.8-1.3
	c0.2-0.4,0.3-0.8,0.5-1.1c0.2-0.3,0.4-0.6,0.3-1c0-0.1,0.1-0.1,0.2-0.1c0-0.1-0.1-0.1-0.1-0.2c-0.1-0.2-0.1-0.4,0.1-0.6
	c0.1-0.1,0.2-0.2,0.3-0.4c0.1-0.2,0.1-0.4,0-0.5c-0.1,0-0.1-0.1-0.1-0.2c0-0.1,0-0.1,0-0.2c0-0.3,0.1-0.4,0.4-0.4c0.1,0,0.2,0,0.3,0
	c0.3,0,0.6-0.1,0.9-0.1C74.9,32.9,75.1,32.8,75.1,32.7C75.1,32.7,75.1,32.7,75.1,32.7z M70.8,24.9C70.8,24.9,70.9,24.8,70.8,24.9
	c0.1,0,0.2,0.1,0.2,0.1c0.1,0.1,0.2,0.2,0.3,0.4c-0.1,0-0.1,0.1-0.2,0.1C71,25.3,70.9,25.1,70.8,24.9C70.8,24.9,70.8,24.9,70.8,24.9
	z M70.1,23.6c0.1,0,0.2,0.1,0.3,0.2c-0.1,0.1-0.1,0.1-0.1,0.1c0,0,0.1,0.1,0.1,0.1c0,0,0.1,0,0.1,0c0.1,0,0.1,0.1,0.1,0.2
	c-0.1-0.1-0.2-0.1-0.3,0c-0.2-0.2-0.3-0.4-0.5-0.6C70,23.6,70.1,23.6,70.1,23.6z M69.5,23C69.5,22.9,69.6,22.9,69.5,23
	c0.1,0,0.2,0,0.2,0c0,0.1-0.1,0.3-0.1,0.4C69.6,23.3,69.5,23,69.5,23z M46,34.9c-0.1-0.3-0.1-0.7-0.2-1c0.1,0,0.1,0,0.2,0
	c0,0.1,0,0.2,0,0.3c0,0,0,0.1,0,0.1c0.1,0.1,0.1,0.3,0.1,0.4c0,0,0,0.1,0,0.1C46.2,34.8,46.1,34.8,46,34.9z M46.3,34.9
	c0-0.1,0-0.3,0-0.4C46.4,34.7,46.4,34.8,46.3,34.9z M46.2,29.5c-0.1,0-0.1,0-0.1-0.1c0,0.1,0,0.1,0,0.2c0.1,0.6-0.1,1.3-0.1,1.9
	c0,0.1-0.1,0.2-0.1,0.3c0,0.1-0.1,0.1,0,0.2c0,0.2,0.1,0.4,0.1,0.5c0,0.3,0,0.7,0,1c-0.3-2-0.1-4,0.5-5.9
	C46.6,28.4,46.3,28.9,46.2,29.5z M71.6,31.8c0,0.1,0.1,0.2,0.1,0.3C71.5,32.2,71.5,32,71.6,31.8z M65.8,20.3
	C65.8,20.3,65.8,20.3,65.8,20.3c-0.4-0.1-0.8-0.3-1.2-0.5C65.1,19.8,65.5,20,65.8,20.3z M62.8,19c0.1,0,0.2,0,0.2,0.1c0,0,0,0,0.1,0
	c0.2,0,0.3,0.1,0.5,0.1c0.1,0,0.2,0.1,0.4,0.1c0,0,0.1,0,0.1,0.1c0.1,0.1,0,0.1,0,0.1c0,0-0.1,0-0.1,0c-0.3-0.1-0.5-0.2-0.8-0.3
	c-0.1,0-0.1,0-0.2-0.1C62.7,19.1,62.8,19,62.8,19z M62.6,19c0,0,0,0.1,0.1,0.1c0,0,0,0,0,0C62.6,19.1,62.5,19,62.6,19
	C62.5,19,62.6,19,62.6,19z M62.5,18.9c0,0.1,0,0.2-0.1,0.1c-0.1,0-0.1,0-0.2-0.1C62.2,18.9,62.3,18.9,62.5,18.9z M63.4,20.2
	c1.2,0.4,2.2,1,3.2,1.8c0.8,0.6,1.4,1.3,2,2c0.5,0.6,1,1.2,1.4,1.9c0.4,0.8,0.8,1.6,1,2.5c0.2,0.7,0.3,1.3,0.3,2
	c0,0.2,0,0.5,0.1,0.7c0,0.1,0,0.1-0.1,0.2c-0.2,0.1-0.2,0.3-0.2,0.5c-0.1,0-0.1-0.1-0.1-0.2c0-0.1-0.1-0.1-0.1-0.2
	c0,0.1,0,0.1-0.1,0.1c-0.1-0.1-0.1-0.1-0.2-0.2c0,0.1,0,0.1,0,0.2c-0.2-0.1-0.2-0.1-0.2,0.2c0,0-0.1,0-0.1,0c-0.2,0-0.4,0-0.6,0
	c-0.1,0-0.1,0.1-0.2,0.1c0,0-0.1,0-0.1,0c0-0.1-0.1-0.1-0.2-0.1c-0.1,0-0.1-0.1-0.1-0.2c0-0.1,0-0.1-0.1-0.1c-0.1,0-0.1,0-0.2,0
	c0,0,0,0.1,0,0.1c0,0,0,0,0,0c0-0.1-0.1-0.1-0.1-0.2c0,0-0.1,0.1-0.1,0.1c-0.1-0.1-0.1-0.2-0.2-0.3c-0.1-0.1-0.1-0.1-0.1,0
	c0,0.1,0,0.2,0,0.2c0,0,0,0.1,0,0.1c0,0-0.1,0-0.1,0c-0.1-0.1-0.1-0.1-0.2,0c-0.1,0.1-0.1,0.1-0.2,0.2c0,0-0.1,0-0.1,0
	c0.1,0,0.1-0.1,0.1-0.1c-0.1,0-0.2-0.1-0.2-0.1c-0.1,0-0.1,0-0.2,0.1c0,0-0.1,0-0.1,0.1c-0.1,0.1-0.2,0.1-0.3,0c0,0-0.1-0.1-0.1-0.1
	c0-0.2-0.2-0.3-0.3-0.4c0,0.2-0.1,0.3-0.1,0.5c0,0,0,0,0,0c0,0-0.1-0.1-0.1-0.1c0-0.1,0-0.1,0-0.2c-0.1,0.1-0.1,0.1-0.2,0.1
	c0,0-0.1,0-0.1,0c0,0,0,0.1-0.1,0.1c0,0-0.1,0-0.2,0c0,0-0.1-0.1-0.1-0.1c0-0.1-0.1-0.2-0.1-0.3c0,0,0-0.1-0.1-0.1
	c0,0.1,0.1,0.3,0.1,0.4c0,0,0,0,0,0c0-0.1-0.1-0.2-0.1-0.3c0-0.1-0.1-0.2-0.1-0.4c0-0.1-0.1-0.1,0.1-0.2c0,0,0-0.1,0-0.1
	c-0.1-0.3-0.2-0.6-0.3-0.9c-0.1-0.2-0.1-0.5-0.2-0.7c0-0.1,0-0.1-0.1-0.1c0,0.1,0.1,0.3,0.1,0.4c0,0,0,0,0,0
	c-0.2-0.6-0.5-1.2-0.7-1.7c0,0,0,0.1,0,0.2c-0.2-0.1-0.3-0.3-0.3-0.4c0-0.1,0-0.1,0-0.2c0-0.1,0-0.1,0-0.2c0-0.1-0.1-0.1-0.1-0.2
	c-0.2-0.2-0.2-0.5-0.3-0.8c0,0,0-0.1,0.1-0.1c0,0,0.1,0.1,0.1,0.1c0.2,0.5,0.3,0.9,0.5,1.4c0,0,0,0.1,0.1,0.1
	C64,27,64,26.8,63.9,26.6c-0.1-0.4-0.3-0.7-0.4-1.1c-0.2-0.6-0.4-1.2-0.6-1.8c-0.2-0.5-0.4-1.1-0.7-1.6c-0.1-0.2-0.2-0.4-0.3-0.6
	c0-0.1,0-0.1,0-0.2c0,0-0.1,0-0.2,0c-0.1,0-0.1-0.1-0.1-0.2c0-0.1,0-0.2,0-0.2c0,0,0,0,0,0c0-0.2-0.1-0.2-0.3,0c0,0,0,0,0,0.1
	c0,0,0,0.1,0,0.1c0,0-0.1,0-0.1,0c-0.1,0-0.1-0.1-0.2-0.1c0,0,0.1-0.1,0.1-0.2c0.1-0.1,0.1-0.2,0.2-0.3c0.1-0.1,0-0.2-0.1-0.2
	c-0.1,0-0.2,0-0.3-0.1c0,0-0.1,0-0.1,0c0-0.1,0.2,0,0.1-0.2c0-0.1-0.1-0.1-0.2-0.1c0-0.2,0.1-0.2,0.2-0.2c0.2,0,0.5,0.1,0.7,0.1
	C62.3,19.8,62.8,20,63.4,20.2z M69.8,32.5c-0.2,0-0.3,0.1-0.5,0.1C69.4,32.5,69.6,32.4,69.8,32.5C69.8,32.5,69.8,32.5,69.8,32.5z
	 M69,32.6C69,32.6,69,32.6,69,32.6c-0.2,0.1-0.3,0.1-0.5,0c0,0-0.1-0.1-0.1-0.1c0.1,0,0.2,0,0.3,0C68.8,32.5,68.9,32.5,69,32.6
	C69,32.5,69,32.5,69,32.6z M67.7,32.4c0.1,0,0.1,0.1,0.2,0.1c0,0,0.1-0.1,0.1-0.1c0,0,0,0,0,0c0,0.1,0,0.2,0,0.2c0,0,0,0-0.1,0
	c-0.1,0-0.2,0-0.4,0C67.6,32.5,67.7,32.4,67.7,32.4z M67.6,31.8C67.6,31.8,67.6,31.8,67.6,31.8c0.1,0,0.2,0.1,0.1,0.2c0,0,0,0,0,0
	C67.6,31.9,67.6,31.9,67.6,31.8z M66.6,35.2c0,0-0.1,0-0.1,0C66.5,35.2,66.5,35.2,66.6,35.2c0-0.1,0-0.2-0.1-0.2
	c-0.1-0.1-0.1-0.1,0-0.2c-0.1,0-0.2-0.2-0.2-0.3c0-0.2-0.1-0.3-0.1-0.5c0,0,0,0-0.1-0.1c-0.1-0.1-0.1-0.3-0.1-0.4
	c0.2,0.1,0.2,0.2,0.3,0.3c0.1,0.4,0.2,0.8,0.3,1.2C66.7,35.1,66.6,35.1,66.6,35.2z M66.8,35.4c0,0,0,0.1,0,0.1c0,0-0.1,0-0.1,0
	c0,0-0.1,0-0.1,0c0-0.1,0-0.1,0-0.2C66.7,35.4,66.7,35.4,66.8,35.4z M65.7,33.6c-0.2,0.1-0.3,0.1-0.3-0.1
	C65.5,33.5,65.6,33.5,65.7,33.6z M64.6,29.5C64.6,29.5,64.6,29.5,64.6,29.5c0.1,0.2,0.2,0.4,0.2,0.5c0,0,0,0,0,0
	c0-0.1-0.1-0.1-0.1-0.2c0,0-0.1,0-0.1,0c0,0,0-0.1,0-0.1c0-0.1,0-0.1,0-0.2C64.5,29.6,64.6,29.6,64.6,29.5z M64.5,29.4
	C64.5,29.4,64.5,29.4,64.5,29.4c0-0.1,0-0.1,0-0.1c0,0,0.1,0,0.1,0c0,0,0,0,0,0C64.6,29.3,64.5,29.4,64.5,29.4z M64.9,30.4
	c0.1,0.3,0.3,0.6,0.2,1c-0.2-0.1-0.2-0.3-0.3-0.5C64.7,30.7,64.9,30.6,64.9,30.4z M65,31.6c0.1,0,0.1,0,0.2,0c0,0.1-0.2,0.1-0.1,0.2
	c0,0,0,0,0,0C65,31.7,65,31.7,65,31.6z M64.4,28.7C64.4,28.7,64.4,28.7,64.4,28.7C64.3,28.7,64.3,28.7,64.4,28.7
	c-0.1-0.1-0.1-0.2-0.1-0.3c0-0.2-0.1-0.3-0.1-0.5c0,0,0,0,0,0C64.2,28.2,64.4,28.5,64.4,28.7z M63.7,27.5
	C63.7,27.5,63.7,27.5,63.7,27.5c-0.1,0-0.2,0-0.2-0.1c0,0,0.1-0.1,0.2-0.1C63.7,27.4,63.7,27.4,63.7,27.5z M63.3,25.5
	C63.3,25.5,63.3,25.5,63.3,25.5c-0.1,0-0.1,0-0.1,0c-0.1-0.1,0-0.2,0.1-0.2C63.3,25.4,63.3,25.4,63.3,25.5z M63.1,25.1
	c0,0-0.1,0-0.1,0c-0.1-0.1-0.1-0.2-0.2-0.4c0,0-0.1-0.1-0.1-0.1c0.1-0.1,0.1-0.1,0.2,0C63,24.7,63,24.9,63.1,25.1
	C63.1,25,63.1,25.1,63.1,25.1z M62.4,23.5c-0.1,0.1-0.1,0.2-0.2,0.1C62.3,23.6,62.3,23.6,62.4,23.5z M61.6,22
	c-0.1,0-0.2-0.1-0.1-0.2c0,0,0,0,0,0c0-0.1-0.1-0.1-0.1-0.2c0,0,0-0.1,0-0.1c0-0.1,0.1-0.1,0.1-0.2c0,0,0.1,0,0.1,0.1
	c0,0.1,0.1,0.1,0.1,0.1c0.1,0,0.2,0,0.2,0.2c0,0.2,0.1,0.3,0.2,0.5c0,0.1,0,0.3-0.1,0.3c-0.1,0-0.3,0-0.3-0.1
	C61.5,22.2,61.6,22.1,61.6,22C61.6,22,61.6,22,61.6,22z M60.7,17.9C60.7,17.9,60.8,17.9,60.7,17.9c0.2,0,0.2,0,0.3,0.1
	C60.9,18.1,60.8,18.1,60.7,17.9C60.7,18,60.7,17.9,60.7,17.9z M61.1,18.5C61.2,18.6,61.2,18.6,61.1,18.5c0.1,0.1,0.2,0.2,0.3,0.1
	c0,0,0.1,0,0.2,0c0.1,0,0.1,0,0.1,0.1c0,0.1,0,0.2-0.2,0.1c-0.1,0-0.2-0.1-0.3-0.1c-0.1,0-0.2,0-0.3,0c-0.1,0-0.2,0-0.3,0
	C60.7,18.5,60.9,18.4,61.1,18.5z M58.6,21.3c0.1,0,0.1,0,0.2,0c0.1,0,0.2-0.1,0.2-0.1c0-0.1-0.1-0.2-0.1-0.3c0-0.1-0.1-0.1-0.2-0.2
	c0,0,0,0,0,0c0,0,0.1,0,0.1,0c0,0,0.1,0,0.1,0c0,0,0-0.1,0-0.1c0,0-0.1,0-0.1-0.1c0.1-0.1,0.3-0.1,0.3-0.1c0.1,0.1,0.1,0.1,0,0.3
	c0.1,0,0.1,0,0.2,0.1c0,0,0,0.1,0.1,0.1c0.1,0.1,0.1,0.2,0.2,0.2c-0.1,0.1,0,0.2,0,0.2c0,0,0.1,0.1,0.1,0.1c0.1,0.1,0.1,0.1,0,0.3
	c0,0.1,0,0.1,0,0.2c0,0.2,0.1,0.3,0.1,0.5c0,0,0,0.1,0,0.1c0.2,0,0.2,0.2,0.3,0.3c0,0,0.1,0.1,0.1,0.2c0,0.1,0,0.2,0.1,0.2
	c0.1,0,0.2,0.1,0.3,0.1c0,0.1,0,0.1,0,0.1c0.1,0.1,0,0.3,0,0.4c0,0.2-0.1,0.4-0.1,0.6c0,0,0.1,0.1,0.1,0.1c0.1,0,0.1,0,0.2,0
	c0,0.1-0.1,0.2-0.1,0.3c0,0.1,0,0.2,0.1,0.2c0.1,0,0.1,0.1,0,0.1c0,0,0.1,0,0.1,0c-0.1,0.1-0.1,0.1-0.2,0.1c0,0,0,0,0,0
	c0,0,0.1,0,0.2,0c0,0,0,0.1,0,0.1c0,0.1-0.1,0.3,0.1,0.4c-0.1,0-0.2,0-0.3,0c0,0,0,0,0,0c0.1,0,0.1,0,0.2,0c0.1,0,0.1,0,0.1,0.1
	c0,0.1,0,0.2-0.1,0.3c0,0,0,0.1,0,0.1c0.1,0.1,0.1,0.2,0.2,0.3c0.1,0.1,0.1,0,0.2,0c0.1,0,0.1-0.1,0.2,0c-0.2,0.1-0.4,0.2-0.5,0.3
	c0,0,0,0,0,0c0.2,0,0.2,0.2,0.3,0.3c0.1,0.1,0.2,0.2,0.3,0.2c0.1,0,0.1,0.1,0.1,0.2c0,0,0,0,0,0c0,0.2,0,0.2,0.3,0.3
	c0,0.1-0.1,0.1-0.1,0.1c-0.1,0.1-0.1,0.1,0,0.2c0.1,0.1,0.3,0.3,0.3,0.5c0,0.1,0,0.2,0,0.3c-0.1,0.2-0.1,0.2,0.1,0.4
	c0.1,0.1,0.2,0.1,0.2,0.1c-0.1,0.1-0.1,0.1-0.2,0.2c0,0.1,0,0.2,0.1,0.3c0.1,0.1,0.2,0.2,0.3,0.3c0.1,0.1,0.1,0.1,0,0.2
	c-0.1,0.1-0.1,0.1-0.2,0.2c-0.1,0-0.1,0.1-0.2,0.2c0.1,0.1,0.2,0.1,0.3,0.2c-0.1,0.1-0.2,0.1-0.3,0.1c-0.7,0-1.3,0-2,0.1
	c-0.2,0-0.4,0-0.6,0c0,0,0,0,0,0c0,0,0.1,0,0.1,0c0.8,0,1.6,0,2.4,0c0.2,0,0.4,0,0.6,0c0.1,0,0.1,0,0.2,0c0,0,0.1,0.1,0,0.1
	c0,0-0.1,0.1-0.1,0.1c-0.1-0.1-0.2,0-0.4,0c-0.3,0-0.7,0-1,0c-0.6,0-1.1,0-1.7,0c-0.1,0-0.3,0-0.4,0c-0.1,0-0.1,0-0.1-0.1
	c0,0-0.1,0-0.1,0c-0.4,0-0.8,0-1.2,0.1c-0.2,0-0.4,0-0.6,0.1c0,0,0,0,0,0c0.1,0,0.3,0,0.4,0c0,0,0,0,0,0c-0.6,0.1-1.1,0.2-1.7,0.3
	c0-0.1,0-0.2,0.1-0.2c0.2,0,0.4-0.1,0.6-0.1c0,0,0.1,0,0.1,0c-0.3-0.1-0.5,0-0.8-0.1c0,0-0.1,0-0.2,0.1c0,0,0,0,0,0
	c0-0.1,0.1-0.2,0.1-0.3c0,0,0,0,0,0c0.1,0.1,0.1-0.1,0.2-0.1c0.2-0.5,0.4-1.1,0.6-1.6c0,0,0,0,0,0c-0.1,0.1-0.1,0.3-0.2,0.4
	c0,0,0,0,0,0c0.1-0.3,0.1-0.5,0.2-0.8c0.2-0.5,0.3-1.1,0.5-1.6c0.2-0.6,0.3-1.3,0.5-1.9c0.1-0.4,0.2-0.7,0.3-1.1
	c0.1-0.3,0.1-0.6,0.2-0.9c0.1-0.4,0.2-0.9,0.3-1.3c0-0.1,0-0.2,0.2-0.2c-0.1-0.1-0.1-0.1-0.2-0.2c-0.1-0.1-0.1-0.1,0-0.2
	c0,0,0.1-0.1,0.1-0.1c0,0,0,0,0.1,0c0,0,0-0.1,0-0.1c0,0,0-0.1-0.1-0.1c-0.1,0-0.1,0-0.2,0c0,0,0,0,0,0.1c0,0,0,0.1-0.1,0.1
	c0,0-0.1,0-0.1-0.1c0-0.1-0.1-0.1-0.1-0.2C58.5,21.3,58.6,21.3,58.6,21.3z M62.6,32c0,0-0.1,0-0.1,0c0,0.1,0,0.1,0,0.2
	c0,0-0.1,0.1-0.1,0.1c0,0-0.1,0-0.1-0.1c0,0,0,0,0,0C62.2,32,62.3,31.9,62.6,32z M61.7,31.9c-0.1,0.1-0.1,0.2-0.2,0.3
	c-0.1,0.1-0.2,0.1-0.2,0c-0.1,0.1-0.2,0.1-0.2,0c0,0,0-0.1,0-0.1c0,0-0.1,0-0.1-0.1C61.2,31.9,61.5,31.9,61.7,31.9z M60.8,32
	c0,0.1-0.1,0.1-0.2,0.1c-0.1,0-0.2,0-0.3,0c0,0,0-0.1-0.1-0.2c-0.4,0.2-0.7,0.2-1-0.1c0.1,0,0.2,0,0.3,0c0.3,0,0.7,0,1,0
	c0,0,0,0,0.1,0C60.7,31.9,60.8,31.9,60.8,32z M58.9,31.9c-0.1,0.1-0.3,0-0.2,0.2c-0.1,0-0.2-0.1-0.3,0c0,0-0.1-0.1-0.1-0.1
	c0,0,0-0.1,0.1-0.1C58.6,31.9,58.7,31.9,58.9,31.9z M58.2,32c-0.1,0-0.2,0-0.2,0c0,0,0-0.1,0-0.1C58.1,32,58.1,32,58.2,32z M57.5,32
	C57.5,32,57.5,32,57.5,32C57.4,32,57.4,32,57.5,32c-0.1,0-0.2,0-0.2,0c-0.2,0-0.4,0-0.6,0c0,0,0,0,0-0.1C56.9,32,57.1,32,57.5,32
	C57.4,32,57.4,32,57.5,32z M55.7,31.7c0-0.1,0-0.1,0-0.2c0.1-0.2,0.1-0.4,0.4-0.5c0,0,0.1,0,0.1-0.1c-0.1,0.2-0.1,0.5-0.3,0.7
	C55.8,31.7,55.8,31.7,55.7,31.7z M55.8,32c-0.1,0-0.2,0-0.3,0C55.6,31.9,55.7,31.9,55.8,32C55.8,32,55.8,32,55.8,32z M56,32.4
	c0,0.1,0,0.1-0.1,0.2c0,0,0,0,0,0c0-0.1,0-0.1-0.1-0.2C55.9,32.4,56,32.4,56,32.4z M56,32.2C56,32.2,56,32.2,56,32.2
	c0-0.1,0.1-0.1,0.1-0.2c0,0,0,0,0,0.1C56.1,32.1,56.1,32.2,56,32.2z M56.1,32C56.1,32,56.1,32,56.1,32c0-0.1,0-0.2,0.2-0.2
	C56.2,31.9,56.2,32,56.1,32z M56.5,30.1c-0.1,0.2-0.1,0.3-0.2,0.5c0-0.1,0-0.2-0.1-0.2c0.1-0.1,0.1-0.1,0.1-0.1c0-0.1,0-0.1,0-0.2
	C56.4,30.1,56.4,30.1,56.5,30.1z M56.4,29.9c0,0,0.1-0.1,0.1-0.1c0,0,0.1,0,0.1,0.1c0,0,0,0,0,0C56.6,29.9,56.5,29.9,56.4,29.9
	C56.4,29.9,56.4,29.9,56.4,29.9z M57,28.6C57,28.6,57.1,28.6,57,28.6c0,0.3-0.1,0.5-0.2,0.8c0-0.1-0.1-0.1-0.1-0.1c0,0,0,0,0,0
	C56.8,29.1,56.9,28.9,57,28.6z M56.8,27.8C56.8,27.8,56.8,27.8,56.8,27.8c0.1,0,0.1,0,0.2,0c0,0.1,0,0.1,0,0.2c0,0,0,0-0.1,0
	C56.9,27.9,56.8,27.9,56.8,27.8z M58.3,22.7c-0.1-0.2-0.1-0.2,0-0.3c0,0,0-0.1-0.1-0.1c0,0,0,0,0,0c0.1,0,0.1-0.1,0-0.1
	c0,0,0-0.1,0-0.1c0.1,0,0.1-0.1,0.2-0.1c0,0,0,0.1,0,0.1c0,0.1,0.1,0.1,0.1,0.2c0.1,0,0.1,0.1,0.1,0.2c-0.1,0.2-0.1,0.4-0.2,0.6
	c-0.1,0.2-0.2,0.2-0.3,0.1c0,0-0.1-0.1-0.1-0.1C58.1,22.8,58.2,22.7,58.3,22.7z M57.9,24.2C57.9,24.2,58,24.2,57.9,24.2
	c0.1,0,0.2,0,0.2,0.1c0,0,0,0,0,0C58,24.3,58,24.3,57.9,24.2C57.9,24.3,57.9,24.3,57.9,24.2C57.9,24.2,57.9,24.2,57.9,24.2z
	 M57.7,25.6c0-0.1,0-0.3,0-0.4c0.1,0,0.1,0.1,0.1,0.2c0,0.1,0,0.3-0.1,0.4c0,0,0,0-0.1,0.1c0,0-0.1,0-0.1-0.1
	C57.7,25.7,57.7,25.6,57.7,25.6z M57.8,26.1c0,0.1-0.1,0.1-0.1,0.2c0,0-0.1-0.1-0.1-0.1C57.6,26.1,57.7,26,57.8,26.1z M57.4,26.9
	c0.1-0.2,0.1-0.3,0.2-0.5c0-0.1,0.1-0.1,0.1-0.2c-0.1,0.7-0.3,1.3-0.5,2c0,0,0,0,0,0c0,0,0-0.1,0-0.1c0-0.1,0-0.2,0-0.3
	c0-0.1,0.1-0.1,0.1-0.2c0.1-0.1,0.2-0.2,0.1-0.3C57.3,27.2,57.3,27.1,57.4,26.9z M55.8,18.2C55.8,18.2,55.9,18.2,55.8,18.2
	c0.1,0.1,0.1,0.1,0,0.2c-0.2,0.1-0.3,0.1-0.5,0.1c-0.1,0-0.2,0-0.2,0c0,0,0,0,0,0C55.3,18.3,55.5,18.2,55.8,18.2z M53.8,18.9
	c0.1-0.1,0.3-0.1,0.5-0.2c0,0.1,0,0.1-0.1,0.2c0,0,0,0,0,0c0.1-0.1,0.2-0.1,0.3-0.2c0,0.1,0,0.2-0.1,0.2c-0.2,0.1-0.3,0.1-0.5,0.2
	c-0.1,0-0.1,0-0.1,0C53.8,19,53.7,18.9,53.8,18.9z M52.8,19.3C52.8,19.3,52.8,19.3,52.8,19.3c-0.1,0.1-0.1,0.2-0.2,0.2
	c0,0,0.1,0,0.1,0c0,0.1-0.3,0.3-0.4,0.3c-0.1,0-0.1-0.1-0.2-0.1c0,0,0,0,0,0C52.3,19.6,52.6,19.4,52.8,19.3z M49.3,22.7
	c0.3-0.3,0.6-0.6,0.9-0.9c0,0,0,0,0,0c0,0.1,0,0.2-0.1,0.2c-0.2,0.1-0.4,0.3-0.5,0.5c-0.1,0.1-0.2,0.3-0.3,0.4
	C49.2,22.8,49.2,22.8,49.3,22.7C49.2,22.8,49.2,22.7,49.3,22.7z M48.2,24.1c0.2-0.2,0.3-0.5,0.5-0.7c0,0,0,0,0,0
	c-0.1,0.1-0.2,0.3-0.3,0.4c-0.1,0.1-0.1,0.2,0,0.3c0.1,0.2,0,0.4-0.2,0.4c0-0.1-0.1-0.1-0.1-0.2C48.1,24.2,48.2,24.1,48.2,24.1z
	 M46.9,37.5c-0.1-0.1-0.1-0.2-0.2-0.3C46.9,37.2,47,37.3,46.9,37.5z M47.3,25.7c-0.1,0.1-0.1,0.2,0,0.3c0,0.2,0.1,0.5-0.1,0.7
	c-0.1,0.1-0.1,0.2-0.2,0.1c0.1,0.2,0,0.4-0.1,0.6c0,0-0.1,0-0.1,0c0-0.1,0-0.2,0-0.2c0,0-0.1,0-0.1,0c0.2-0.6,0.5-1.1,0.7-1.6
	c0,0,0,0,0,0C47.3,25.6,47.3,25.6,47.3,25.7z M48,39.1c-0.2-0.2-0.3-0.5-0.5-0.7c0,0,0,0,0,0C47.8,38.5,48,38.7,48,39.1
	C48,39.1,48,39.1,48,39.1z M48.6,34.4c0,0.1,0,0.1-0.1,0.2c-0.1,0,0-0.2-0.2-0.2c-0.1,0-0.1,0.1-0.1,0.2c-0.1,0-0.2-0.1-0.2-0.2
	c0,0,0-0.1-0.1-0.1c0-0.1,0-0.2,0-0.3c0.1-0.2,0.1-0.4,0.1-0.6C48,33,48,32.8,47.9,32.5c0,0,0,0,0,0c0-0.2,0-0.3,0-0.5
	c-0.1-0.1-0.2-0.2-0.2-0.4c-0.1-0.6,0.1-1.3,0.3-1.9c0.1-0.3,0.3-0.7,0.4-1c0.1-0.2,0.1-0.3-0.1-0.4c-0.2-0.1-0.2-0.3,0-0.5
	c0,0,0.1,0.1,0.1,0.1c0.1-0.3,0.1-0.5,0.2-0.8c0.1-0.4,0.3-0.7,0.4-1.1c0-0.1,0.1-0.2,0.1-0.4c0,0,0-0.1,0-0.1c0,0,0,0,0,0
	c0.2,0.1,0.2,0.1,0.2-0.1c0.1-0.1,0.1-0.3,0-0.4c0.1,0,0.1,0,0.1,0c0.1,0,0.2-0.1,0.2-0.2c0-0.1,0-0.2,0.2-0.2
	c0.1,0,0.2-0.1,0.2-0.2c0-0.3,0.2-0.5,0.3-0.7c0,0,0,0,0.1-0.1c0.1-0.3,0.3-0.5,0.6-0.6c0.1-0.1,0.2-0.2,0.2-0.3
	c0.1-0.1,0.1-0.1,0.2-0.1c0.2,0,0.3,0,0.2-0.2c0-0.1,0-0.2,0.1-0.2c0.2-0.1,0.3-0.3,0.5-0.4c0.1-0.1,0.1-0.1,0.3-0.1
	c0.1,0,0.1,0,0.2-0.1c0.2-0.2,0.5-0.5,0.8-0.6c0.4-0.1,0.7-0.4,1-0.5c0.7-0.2,1.4-0.5,2.1-0.7c0.1,0,0.2-0.1,0.3-0.1
	c0.1,0,0.2,0,0.2,0.1c0,0,0,0,0,0c0.1,0.2,0.1,0.2-0.1,0.3c0,0.1,0.2,0.1,0.1,0.3c0,0.1,0,0.2,0,0.3c-0.1,0-0.1,0.1-0.1,0.2
	c0,0.1,0,0.1,0.1,0.2c0,0.1,0,0.2-0.1,0.2c0,0-0.1,0.1-0.1,0.1c0,0.2-0.1,0.2-0.2,0.4c-0.1,0.1-0.1,0.1,0,0.3c0,0,0.1,0.1,0,0.2
	c0,0,0,0.1,0,0.1c0.1,0.2,0,0.3-0.1,0.4c0,0.1,0,0.1,0,0.2c0,0,0.1,0.1,0.1,0.1c0,0,0,0,0,0c0,0.1-0.1,0.3-0.1,0.3
	c-0.2,0.1-0.3,0.3-0.4,0.4c-0.1,0.1-0.1,0.1,0,0.3c0,0,0,0.1,0.1,0.1c-0.1,0.1-0.2,0.1-0.2,0.2c-0.1,0.1-0.1,0.1,0,0.2
	c0,0,0,0,0,0.1c0,0-0.1,0-0.1,0c0,0,0,0.1,0.1,0.1c-0.1,0-0.1,0-0.2,0c0,0,0,0,0,0c0,0,0.1,0,0.1,0.1c0,0-0.1,0.1-0.1,0.1
	c-0.1,0.1-0.2,0.2-0.1,0.3c-0.1,0-0.2-0.1-0.3-0.1c0,0,0,0,0,0c0,0,0.1,0.1,0.1,0.1c0.1,0.1,0.1,0.1,0,0.2c-0.1,0.1-0.1,0.1-0.2,0.2
	c0,0-0.1,0-0.1,0.1c0,0.1,0,0.3,0,0.4c0,0,0.1,0.1,0.1,0.1c0,0,0.1,0,0.2,0c0,0,0,0.1,0.1,0.1c0,0-0.1,0-0.1,0c0,0,0,0-0.1,0
	c-0.2,0-0.3,0-0.5,0c0,0,0,0,0,0c0.1,0.1,0,0.3,0.1,0.5c0,0.1,0,0.2,0.1,0.3c0.1,0.1,0.1,0.1,0,0.2c-0.1,0.1-0.1,0.2,0,0.4
	c0,0-0.1,0.1-0.1,0.1c-0.1,0-0.1,0.1-0.1,0.2c0,0.1,0,0.3,0,0.4c0,0.1-0.1,0.1-0.1,0.2c0,0-0.1,0.1-0.1,0.1c0,0.1,0,0.2,0,0.3
	c0,0.1,0.1,0.1,0.1,0.2c-0.1,0-0.1,0-0.2,0c-0.1,0-0.2,0.1-0.1,0.3c0,0.1,0,0.2,0.1,0.3c0,0.2,0,0.3-0.1,0.4c-0.1,0-0.1,0.1-0.2,0.1
	c-0.1,0-0.1,0.1-0.1,0.2c0,0.1,0,0.2,0,0.2c-0.1,0.3-0.3,0.6-0.5,0.9c-0.1,0.1-0.1,0.2,0,0.3c0,0,0.1,0.1,0.1,0.1
	c-0.1,0-0.1,0-0.1,0c-0.1,0.1-0.1,0.3-0.2,0.4c0,0.1-0.1,0.1-0.2,0.1c-0.3,0.1-0.6,0.1-0.8,0.2c-0.5,0.2-1.1,0.4-1.6,0.6
	c-0.3,0.1-0.6,0.2-0.8,0.3c-0.1,0-0.2,0.1-0.2-0.1c0,0.1,0,0.2-0.1,0.2c0,0.1-0.1,0.2-0.2,0.1c0,0-0.1,0-0.1,0c0,0-0.1,0-0.1,0
	c0,0-0.1,0-0.1,0c0,0,0,0.1,0,0.1c0,0.1,0.1,0.1,0.1,0.2c0,0,0.1,0,0.1,0c0,0,0.1,0,0.1,0c0,0,0,0,0,0.1c0,0.1-0.1,0.1-0.1,0.2
	c-0.1-0.1-0.1-0.1-0.2-0.2c-0.1-0.1-0.2-0.2-0.3-0.2C48.7,34.1,48.7,34.3,48.6,34.4z M54.2,36.4c0-0.1,0.1-0.1,0.3-0.1
	c0,0,0,0.2-0.1,0.1C54.3,36.4,54.3,36.5,54.2,36.4c0.1,0.1,0.1,0.1,0,0.1C54.2,36.5,54.2,36.4,54.2,36.4z M54.2,36.9
	c0,0,0,0.1-0.1,0.1c-0.1,0-0.1-0.1-0.2-0.1c0,0,0,0,0-0.1C54,36.9,54.1,36.9,54.2,36.9z M54.4,35.8C54.4,35.8,54.5,35.7,54.4,35.8
	c0.1-0.1,0.2-0.1,0.2-0.1c0,0.1,0,0.1,0,0.2C54.5,35.9,54.5,35.9,54.4,35.8C54.5,35.9,54.4,35.8,54.4,35.8z M54.6,35.5
	C54.6,35.5,54.6,35.5,54.6,35.5c0.2-0.1,0.2-0.1,0.1-0.2c-0.1-0.1,0-0.2,0.1-0.2c-0.1-0.1,0-0.3,0.1-0.4c0.1-0.1,0.1-0.1,0.1-0.2
	c0,0,0-0.1,0-0.1c0,0,0,0,0,0c0,0,0,0.1,0.1,0.2c-0.1,0.3-0.3,0.7-0.4,1C54.7,35.6,54.6,35.5,54.6,35.5z M53.1,33
	c-0.1-0.1,0.1-0.2,0.4-0.3c0,0.1,0,0.1-0.1,0.1C53.3,32.9,53.2,32.9,53.1,33z M53.4,38.6c-0.1,0-0.1,0-0.2,0
	C53.2,38.5,53.3,38.5,53.4,38.6z M53,34.9c0,0-0.1,0.1-0.1,0.1c0,0,0,0,0,0c0-0.1,0-0.2,0-0.2c0,0,0,0,0,0
	C52.9,34.8,53,34.8,53,34.9z M52.2,33.2c0,0.1,0,0.1,0,0.2C52.1,33.3,52.1,33.2,52.2,33.2z M50.7,33.9c-0.1,0.1-0.1,0-0.2-0.1
	c0,0.1-0.1,0.2-0.1,0.2c0,0-0.1,0-0.2,0c0,0,0,0,0,0.1c0,0,0,0,0,0c0,0-0.1,0.1-0.1,0.1c0,0-0.1,0-0.1,0c-0.1,0-0.1-0.1-0.2-0.1
	c0,0,0.1-0.1,0.1-0.1c0-0.1,0.1-0.1,0-0.2c0-0.1,0-0.2,0.1-0.2c0.2,0,0.4-0.1,0.6-0.1c0.1,0,0.2,0,0.3,0.1
	C50.9,33.7,50.8,33.9,50.7,33.9z M49.6,40.9c0,0-0.1,0-0.1-0.1c-0.1-0.1-0.1-0.2-0.2-0.2c0,0,0-0.1-0.1-0.1c0,0,0,0,0,0
	c0.2,0,0.3,0.1,0.4,0.3C49.6,40.7,49.6,40.8,49.6,40.9z M50.9,42.6c-0.1-0.1-0.1-0.1,0-0.2c0,0,0,0,0,0
	C50.9,42.5,50.9,42.5,50.9,42.6z M51.2,39.5c0,0.1-0.1,0.2-0.1,0.2c-0.1,0.1-0.1,0.1-0.2,0c-0.1-0.1-0.1-0.3-0.2-0.4
	c-0.1-0.1-0.1-0.2-0.2-0.2c0,0-0.1,0-0.2,0c-0.1,0-0.1,0-0.1-0.1c0-0.1,0-0.2,0-0.3c0-0.1,0-0.1,0-0.2c-0.1-0.1-0.3-0.2-0.4-0.4
	c-0.2-0.2-0.3-0.5-0.5-0.7c0,0,0,0,0-0.1C49,37.3,49,37,49,36.7c0-0.2-0.1-0.4-0.1-0.6c0.1,0,0.1,0.1,0.2,0.1c0.1-0.1,0-0.3,0.2-0.2
	c0.1-0.1,0.2-0.1,0.3-0.2c0,0,0.1,0,0.1,0.1c0.1-0.1,0.2-0.2,0.3-0.2c0.1-0.1,0.1-0.1,0.2,0c0,0,0.1,0,0.2,0c0.1,0,0.3,0,0.4,0
	c0.2,0,0.2-0.1,0.3-0.2c0.1,0,0.1-0.1,0.2-0.1c0.1,0,0.2-0.1,0.3-0.1c0,0,0.1,0,0.1,0c0-0.1,0.1-0.2,0.1-0.3c0.2,0.1,0.3,0,0.5,0
	c0.1,0,0.2,0,0.3,0.1c0.1,0,0.1,0.1,0.2,0.1c0,0,0.1,0,0.2,0c0.1,0.1,0,0.3-0.1,0.4c0,0,0,0,0,0.1c0,0.2-0.1,0.3-0.1,0.5
	c-0.3,0.7-0.5,1.4-0.7,2C51.6,38.5,51.4,39,51.2,39.5z M52.7,38.8C52.7,38.8,52.7,38.8,52.7,38.8c-0.1,0-0.2,0-0.2-0.1
	c0,0,0,0,0-0.1c0-0.1,0.1-0.2,0.1-0.3c0.1,0.1,0.1,0.1,0.2,0.2c-0.1,0-0.1,0.1-0.2,0.1C52.6,38.7,52.7,38.7,52.7,38.8z M52.4,39.1
	c0,0.1,0,0.2-0.1,0.2c0,0.1-0.1,0.1-0.1,0.2c0,0-0.1,0-0.1,0c0,0,0,0,0-0.1c0-0.1,0.1-0.2,0.1-0.3C52.3,39.1,52.3,39.1,52.4,39.1z
	 M52,40.3C51.9,40.3,51.9,40.3,52,40.3c0-0.2,0-0.3,0-0.5C52.1,40,52.1,40.1,52,40.3z M53.2,44.1c-0.4-0.2-0.9-0.5-1.3-0.7
	c0.1,0,0.1-0.1,0.2-0.1C52.4,43.5,52.8,43.8,53.2,44.1C53.2,44.1,53.2,44.1,53.2,44.1z M53.3,44.2c0.2-0.1,0.6,0,0.7,0.3
	C53.7,44.3,53.5,44.3,53.3,44.2z M56.4,45.2c-0.4-0.1-0.8-0.2-1.2-0.3c-0.1,0-0.3-0.1-0.4-0.1c-0.1,0-0.1-0.1-0.2-0.1c0,0,0,0,0,0
	c0.1,0,0.1,0,0.2,0c0.3,0.1,0.5,0.2,0.8,0.3c0.2,0,0.3,0.1,0.5,0.1c0.1,0,0.3,0,0.4,0c0.1,0,0.1,0,0.2,0.2
	C56.5,45.2,56.5,45.2,56.4,45.2z M57,45.3c0.1,0,0.2,0,0.3,0C57.3,45.3,57.2,45.3,57,45.3z M59.2,45.5c-0.1,0-0.2,0-0.3-0.1
	c0.1-0.1,0.1-0.1,0.2-0.1c0,0,0.1,0,0.1,0C59.3,45.3,59.3,45.4,59.2,45.5C59.3,45.4,59.2,45.5,59.2,45.5z M62.7,45.2
	c-0.1,0-0.1,0.1-0.2,0.1c0,0,0,0,0,0C62.5,45.1,62.6,45.1,62.7,45.2C62.6,45.1,62.7,45.1,62.7,45.2C62.7,45.1,62.7,45.1,62.7,45.2z
	 M65.3,44.2c0.1,0.1,0.2,0.1,0.3,0.2c-0.1,0-0.1,0.1-0.2,0.1c-0.4,0.2-0.8,0.3-1.3,0.5c-0.3,0.1-0.6,0.2-0.9,0.2c-0.1,0-0.3,0-0.4,0
	c-0.1,0-0.1-0.1,0-0.1c0.1-0.1,0.2-0.2,0.3-0.2c0.1-0.1,0.1,0,0.2,0.1c0,0,0.1-0.1,0.1-0.1c0.1-0.1,0.1-0.1,0.3,0c0,0,0,0,0.1,0
	c0,0,0.1,0,0.1-0.1c0.1-0.3,0.4-0.3,0.7-0.3c0,0,0.1,0,0.1-0.1c0.1-0.1,0.1-0.1,0.3-0.1c0.1,0,0.2,0.1,0.2,0
	c0.1-0.1,0.2-0.2,0.3-0.3c0.1-0.1,0.3-0.1,0.4-0.1C65.8,44,65.5,44,65.3,44.2z M66.2,41.9c-0.1,0.1-0.3,0.2-0.4,0.3
	c-0.1,0.1-0.2,0.1-0.2,0c0,0-0.1,0-0.2,0c-0.4,0.3-1,0.4-1.5,0.4c-0.1,0-0.2,0.1-0.3,0.2c0,0.1-0.2,0.2-0.2,0.2c0,0,0,0-0.1,0
	c-0.1-0.1-0.1,0-0.2,0c-0.2,0.2-0.5,0.3-0.7,0.4c-0.1,0-0.2,0-0.3,0c-0.1,0-0.2,0-0.2-0.1c-0.1-0.1-0.1-0.1-0.2,0
	c-0.1,0.1-0.1,0.1-0.1,0.2c-0.1,0.1-0.2,0.2-0.3,0.1c-0.1,0-0.1,0-0.2,0c-0.3,0-0.7,0-1,0c-0.3,0-0.5,0-0.7-0.2c-0.1,0-0.2,0-0.2,0
	c-0.1,0-0.2,0-0.3,0c-0.1,0-0.2,0-0.4,0.1c0,0-0.1,0-0.2,0c-0.1-0.1-0.2-0.2-0.3-0.2c-0.2-0.2-0.4-0.2-0.6-0.1c0,0,0,0,0,0
	c-0.2,0.1-0.2,0-0.3-0.1c0,0-0.1,0-0.1,0.1c0,0-0.1,0-0.1,0.1c0-0.1,0-0.1,0-0.2c0,0-0.1-0.1-0.1-0.1c0,0,0,0.1-0.1,0.1
	c0,0.1-0.2,0.1-0.3,0c-0.1-0.1-0.2-0.2-0.2-0.3c-0.1-0.1-0.1-0.1-0.2-0.1c-0.1,0-0.3,0-0.4,0c0,0,0-0.1,0-0.1c0,0-0.1,0-0.1,0
	c0,0,0-0.1,0-0.1c-0.1,0.1-0.2,0-0.2-0.1c-0.2-0.1-0.3-0.2-0.5-0.3c0-0.1,0-0.2-0.2-0.3c-0.3-0.2-0.6-0.3-1-0.4
	c-0.1-0.1-0.2,0-0.2,0.1c0,0.1-0.1,0.1-0.2,0.2c0-0.1,0-0.1,0-0.1c-0.1,0-0.1,0-0.2-0.1c0.1-0.1,0.1-0.2,0.2-0.2c0,0-0.1,0-0.1-0.1
	c0.1-0.2,0-0.3-0.1-0.4c-0.1-0.1-0.1-0.2,0-0.3c0.1-0.1,0.1-0.2,0-0.3c0,0,0-0.1,0-0.1c0.1-0.1,0.1-0.1,0.2-0.2
	c0.1-0.1,0.1-0.1,0.2,0c0,0,0,0,0.1,0c0-0.1,0-0.1,0-0.1c0,0,0-0.1,0.1-0.1c0,0-0.1,0-0.1,0c0,0,0,0,0,0c0.1,0,0.1,0,0.2-0.1
	c0,0,0-0.1-0.1-0.1c0.1,0,0.2,0,0.3,0c0.1,0,0.1-0.1,0.1-0.2c0-0.1-0.1-0.1-0.2-0.1c0,0-0.1,0-0.1-0.1c0,0,0,0,0.1,0
	c0.2-0.1,0.2-0.1,0.1-0.2c0-0.1-0.1-0.2-0.1-0.3c0,0,0-0.1,0.1-0.1c0,0.1,0,0.1,0.1,0.1c0.1-0.1,0.1-0.1,0.2-0.2
	c-0.1,0-0.1-0.1,0-0.2c0,0,0-0.1,0-0.1c0-0.1,0-0.1,0-0.2c0,0,0-0.1,0.1-0.1c0.2,0.1,0.4,0.1,0.6-0.1c-0.1-0.1-0.3-0.2-0.4-0.3
	c0.1,0,0.1-0.1,0.2-0.1c0.1,0,0.1,0,0.2,0.1c0-0.1-0.1-0.1-0.1-0.2c0,0,0.1-0.1,0.1-0.1c-0.1-0.1-0.1-0.2,0-0.4
	c0.1-0.1,0.1-0.3,0.3-0.2c0,0,0.1,0,0.1,0c0-0.1,0-0.1-0.1-0.2c-0.1,0-0.1-0.1,0-0.1c0.2-0.5,0.4-1,0.6-1.5c0-0.1,0.1-0.1,0.2-0.2
	c0.2-0.1,0.4-0.1,0.5-0.4c0-0.1,0.1-0.1,0.2-0.1c0.2,0.1,0.3,0,0.3-0.2c0,0,0.1,0.1,0.1,0.1c0,0.1,0.1,0.1,0.2,0
	c0.1-0.1,0.2-0.2,0.4-0.2c0.2,0,0.3,0,0.4,0.1c0.1,0.1,0.1,0.1,0.2,0c0.1-0.1,0.2-0.2,0.3-0.2c0,0,0,0.1,0.1,0.1c0,0,0.1,0,0.1,0
	c0,0,0,0,0.1,0c0.2,0.1,0.3-0.1,0.5-0.1c0.1,0,0.2,0,0.4,0.1c0,0,0,0,0.1,0c0.2,0.1,0.2,0.1,0.3,0c0.2-0.1,0.4-0.1,0.6-0.1
	c0.2,0,0.4,0.1,0.5,0.2c0.2,0.1,0.2,0,0.3-0.2c0,0,0-0.1,0.1-0.2c0,0,0.1,0.1,0.1,0.1c0.1,0.1,0.2,0.2,0.3,0.1
	c0.1-0.1,0.2-0.2,0.3-0.2c0.1-0.1,0.3-0.1,0.4,0c0,0,0.1,0.1,0.1,0c0.1,0,0.2-0.1,0.3-0.2c0,0.1,0,0.1,0.1,0.2c0,0.1,0.1,0.1,0.1,0
	c0-0.1,0.1-0.2,0.1-0.2c0.1,0,0.2,0.1,0.2,0c0.1,0,0.3-0.1,0.4,0c0,0,0.1,0,0.1-0.1c0,0.1,0.1,0.1,0.1,0.2c0,0,0.1,0,0.1-0.1
	c0,0.1,0.1,0.1,0.1,0.2c-0.1,0.1-0.1,0.2,0,0.2c0,0,0,0,0,0c0,0.1,0.1,0.1,0.1,0.2c0,0-0.1,0-0.1,0.1c0,0,0,0.1-0.1,0.1
	c0,0,0.1,0,0.1,0.1c0,0,0,0,0,0c0.2,0,0.2,0,0.2,0.2c0,0.1,0,0.1,0.1,0.2c0,0,0,0.1,0.1,0.1c0,0,0,0.1,0,0.1c0.1,0.1,0.1,0.1,0,0.2
	c0,0,0,0-0.1,0.1c0.1,0,0.2,0,0.2,0c0,0.1,0.1,0.2,0.1,0.3c0,0,0,0.1,0,0.1c-0.1,0.1,0,0.1,0,0.2c0.1,0.1,0.1,0.2,0.1,0.4
	c0,0,0,0.1,0,0.1c0.1,0.2,0.2,0.3,0.2,0.5c0.2,0.7,0.5,1.4,0.7,2c0.2,0.7,0.5,1.4,0.7,2.1c0,0.1,0.1,0.3,0.1,0.5
	C66.4,41.4,66.3,41.7,66.2,41.9z M66.9,36c0,0.1,0.1,0.1,0,0.2c0,0,0,0.1,0,0.1c-0.1,0-0.1,0-0.1-0.1C66.7,36.1,66.8,36,66.9,36z
	 M67.1,36.5C67.1,36.5,67.1,36.5,67.1,36.5c0,0.1,0,0.2,0.1,0.2c-0.1,0-0.1,0-0.2,0C67,36.7,67,36.6,67.1,36.5z M66.9,39.2
	C66.9,39.2,66.9,39.2,66.9,39.2c0-0.2-0.1-0.3-0.2-0.4c0.1,0,0.2,0,0.3,0c0,0.1,0,0.1,0,0.2c0.1,0,0.2,0,0.1,0.1
	C67.1,39.2,67,39.2,66.9,39.2z M67.3,40.1c-0.2-0.2-0.2-0.5-0.1-0.5c0,0.1,0.1,0.2,0.1,0.2C67.3,39.9,67.3,40,67.3,40.1z M67.5,40.8
	c-0.1-0.1-0.1-0.2-0.2-0.4C67.5,40.5,67.6,40.6,67.5,40.8z M67.4,38.6c0.1,0,0.1-0.1,0.2-0.1c0,0,0,0,0,0
	C67.6,38.6,67.5,38.7,67.4,38.6z M68.6,42.4c-0.1,0.1-0.1,0.1-0.2,0.2C68.4,42.5,68.4,42.5,68.6,42.4z M68.8,43c-0.1,0-0.2,0-0.2,0
	c0,0,0,0,0-0.1c0-0.1,0-0.1-0.1-0.2c-0.1,0,0-0.2,0-0.2c0.1,0,0.2-0.1,0.2-0.1c0.1,0.1-0.1,0.2,0.1,0.3c0,0,0,0-0.1,0.1
	c0,0,0.1,0,0.1,0C68.8,42.9,68.9,42.9,68.8,43C68.9,43,68.8,43,68.8,43z M68.9,41.8c-0.1,0-0.1,0.1-0.2,0.1c0-0.1,0-0.2,0.1-0.2
	C68.9,41.7,68.9,41.7,68.9,41.8C69,41.8,69,41.8,68.9,41.8z M69.3,39.6c0-0.1,0-0.1,0.1-0.2c0,0,0,0,0,0
	C69.4,39.5,69.4,39.5,69.3,39.6z M71.7,33.6c-0.1,0.3-0.2,0.7-0.3,1c-0.1,0.1-0.1,0.3-0.2,0.4c-0.1,0.3-0.3,0.7-0.4,1
	c-0.2,0.5-0.5,0.9-0.7,1.4c0,0-0.1,0.1-0.1,0.1c0,0.1,0,0.2,0,0.3c0,0,0,0,0,0c-0.2,0-0.2,0-0.2,0.2c0,0.1,0,0.2-0.1,0.2
	c-0.2,0.3-0.5,0.7-0.7,1c-0.1,0.1-0.1,0.2-0.3,0.2c-0.1,0-0.2,0.1-0.2,0.2c-0.1,0.1-0.1,0.2-0.2,0.3c0,0,0,0,0,0c0,0,0-0.1,0-0.2
	c0,0-0.1,0-0.1,0c0,0,0,0,0,0c0-0.1,0.1-0.1,0.1-0.2c0,0-0.1,0-0.1-0.1c0.1-0.1,0.2-0.2,0.2-0.3c0.1-0.1,0.1-0.1-0.1-0.2
	c-0.1,0-0.2,0-0.2,0c0,0-0.1,0-0.1,0c0,0,0,0,0-0.1c0.1-0.2,0.1-0.2-0.1-0.2c-0.1,0-0.2-0.1-0.2-0.2c0,0,0-0.1,0-0.1
	c0.1,0,0.1,0,0.2,0.1c0-0.1,0-0.1,0-0.2c0,0,0-0.1,0.1-0.1c-0.1,0-0.2,0-0.2-0.1c0-0.1,0-0.1-0.1-0.1c-0.1,0-0.1-0.2-0.1-0.3
	c0,0,0.1-0.1,0.1-0.1c0.1-0.1,0.2-0.1,0.2-0.3c0,0,0-0.1,0-0.1c-0.2,0-0.3,0-0.5,0.1c0-0.2,0.2-0.2,0.3-0.2c-0.2,0-0.3-0.1-0.2-0.2
	c-0.2,0-0.3-0.1-0.3-0.3c0-0.1-0.1-0.3,0.1-0.4c0.1-0.1,0-0.2-0.1-0.2c-0.1,0-0.1-0.1-0.1-0.1c-0.2-0.7-0.4-1.4-0.6-2
	c-0.1-0.2,0-0.3,0.2-0.3c0.8,0,1.6,0,2.3,0c0.6,0,1.3,0,1.9,0c0.2,0,0.3,0,0.5,0C71.7,33.3,71.8,33.5,71.7,33.6z M71.7,32.7
	c-0.3,0.1-0.6,0.1-0.9,0.2c-0.1,0-0.2,0-0.3,0c0,0-0.1,0-0.1-0.1c0.5-0.1,1-0.2,1.5-0.2c0,0,0,0,0,0C71.8,32.7,71.7,32.7,71.7,32.7z
	 M71.9,32.1C71.8,32.1,71.8,32.1,71.9,32.1c0-0.1,0-0.2,0-0.3c0,0,0.1,0,0.1-0.1c0,0,0,0.1,0,0.1C71.9,31.9,71.9,32,71.9,32.1z"/>
<path d="M45.4,30.7c0.1-0.8,0.3-1.7,0.4-2.5C45.5,29,45.3,29.8,45.4,30.7z"/>
<path d="M72.6,31c0,0,0.1,0,0.1,0c0.2,0,0.2-0.1,0.2-0.3c0,0,0,0,0,0c0-0.1,0-0.1,0-0.2c-0.2-0.1-0.3-0.1-0.5,0
	c0.1,0.1,0.3,0.2,0.4,0.3c0,0,0,0,0,0.1C72.7,30.9,72.6,30.9,72.6,31C72.5,31,72.5,31,72.6,31z"/>
<path d="M50.5,44.8C50.5,44.9,50.5,44.9,50.5,44.8c0.1,0.1,0.2,0.2,0.3,0.2c-0.1,0-0.1,0-0.2,0c0,0,0.1,0.1,0.1,0.1c0,0,0.1,0,0.1,0
	c0-0.1,0-0.1,0-0.1C50.7,44.9,50.6,44.9,50.5,44.8z"/>
<path d="M69.4,45.5C69.4,45.5,69.4,45.5,69.4,45.5c0.1,0,0.2,0,0.3,0c-0.1,0.1-0.1,0.1-0.1,0.1c0,0,0,0,0,0c0,0,0.1,0,0.1,0
	c0,0,0.1-0.1,0.1-0.1c0,0-0.1-0.1-0.1-0.1C69.6,45.4,69.5,45.5,69.4,45.5z"/>
<path d="M72.6,26.2C72.6,26.2,72.6,26.2,72.6,26.2c-0.1,0.1-0.2,0-0.3-0.1c0,0.1,0,0.2,0.1,0.3C72.5,26.3,72.6,26.3,72.6,26.2z"/>
<path d="M74.6,31.6c0,0,0-0.1,0.1-0.1c0,0.1,0.1,0.1,0.1,0.2c0,0,0,0,0,0c0,0,0-0.1,0-0.1c0,0,0-0.1-0.1-0.1c0,0-0.1,0-0.1,0.1
	C74.6,31.5,74.6,31.5,74.6,31.6C74.6,31.6,74.6,31.6,74.6,31.6z"/>
<path d="M71.9,28.6c0-0.1,0-0.2,0-0.3c0,0,0,0,0,0C71.9,28.4,71.8,28.5,71.9,28.6z"/>
<path d="M72.1,24.9C72.1,24.9,72.1,24.9,72.1,24.9c0-0.1,0-0.1-0.1-0.2c0,0,0,0,0,0C71.9,24.9,72,24.9,72.1,24.9z"/>
<path d="M63.8,25.5c0.1,1,0.5,2,0.9,2.9C64.5,27.4,64.2,26.4,63.8,25.5z"/>
<path d="M58.1,26.5c-0.1,0.2-0.2,0.5-0.3,0.7c-0.1,0.4-0.2,0.8-0.3,1.2c0,0.2-0.1,0.4-0.1,0.5c0,0.1-0.1,0.2-0.1,0.3c0,0,0,0,0,0
	c0-0.1,0.1-0.2,0.1-0.3c0.1-0.1,0.1-0.3,0.2-0.4c0.1-0.4,0.3-0.7,0.4-1.1C58,27.1,58,26.8,58.1,26.5C58.1,26.5,58.1,26.5,58.1,26.5
	C58.1,26.5,58.1,26.5,58.1,26.5z"/>
<path d="M46.2,28.6c0,0,0,0.1,0,0.1c0,0,0,0,0,0c0-0.1,0.1-0.1,0.1-0.2c0,0,0,0,0,0C46.3,28.6,46.2,28.6,46.2,28.6z"/>
</svg>
