<?xml version="1.0" encoding="utf-8"?>
<!-- Generator: Adobe Illustrator 22.0.1, SVG Export Plug-In . SVG Version: 6.00 Build 0)  -->
<svg version="1.1" id="Camada_1" xmlns="http://www.w3.org/2000/svg" xmlns:xlink="http://www.w3.org/1999/xlink" x="0px" y="0px"
	 viewBox="0 0 150 150" style="enable-background:new 0 0 150 150;" xml:space="preserve">
<style type="text/css">
	.st0{fill:url(#SVGID_1_);}
	.st1{fill:url(#SVGID_2_);}
	.st2{stroke:#000000;stroke-width:0.7457;stroke-miterlimit:10;}
	.st3{fill:url(#SVGID_3_);}
	.st4{fill:#FFFFFF;}
	.st5{opacity:0.8;fill:url(#SVGID_4_);}
	.st6{opacity:0.8;fill:url(#SVGID_5_);}
	.st7{fill:none;stroke:#BE1823;stroke-width:0.2538;stroke-miterlimit:10;}
	.st8{fill:none;stroke:#BE1823;stroke-width:0.2698;stroke-miterlimit:10;}
	.st9{fill:url(#SVGID_6_);stroke:#BE1823;stroke-width:0.2831;stroke-miterlimit:10;}
	.st10{fill:url(#SVGID_7_);stroke:#BE1823;stroke-width:0.2831;stroke-miterlimit:10;}
	.st11{fill:url(#SVGID_8_);stroke:#BE1823;stroke-width:0.1922;stroke-miterlimit:10;}
	.st12{fill:url(#SVGID_9_);stroke:#BE1823;stroke-width:0.2831;stroke-miterlimit:10;}
	.st13{fill:url(#SVGID_10_);stroke:#BE1823;stroke-width:0.2831;stroke-miterlimit:10;}
	.st14{fill:url(#SVGID_11_);stroke:#BE1823;stroke-width:0.2831;stroke-miterlimit:10;}
	.st15{fill:url(#SVGID_12_);stroke:#BE1823;stroke-width:0.2831;stroke-miterlimit:10;}
	.st16{fill:url(#SVGID_13_);stroke:#BE1823;stroke-width:0.2831;stroke-miterlimit:10;}
	.st17{fill:url(#SVGID_14_);stroke:#BE1823;stroke-width:0.3401;stroke-miterlimit:10;}
	.st18{fill:url(#SVGID_15_);stroke:#BE1823;stroke-width:0.2831;stroke-miterlimit:10;}
	.st19{fill:url(#SVGID_16_);stroke:#BE1823;stroke-width:0.2831;stroke-miterlimit:10;}
	.st20{fill:url(#SVGID_17_);stroke:#BE1823;stroke-width:0.2831;stroke-miterlimit:10;}
	.st21{fill:url(#SVGID_18_);stroke:#BE1823;stroke-width:0.2831;stroke-miterlimit:10;}
	.st22{fill:url(#SVGID_19_);stroke:#BE1823;stroke-width:0.1722;stroke-miterlimit:10;}
	.st23{fill:url(#SVGID_20_);stroke:#BE1823;stroke-width:0.1371;stroke-miterlimit:10;}
	.st24{fill:#1E1E1C;}
</style>
<g>
	
		<linearGradient id="SVGID_1_" gradientUnits="userSpaceOnUse" x1="330.6297" y1="82.4921" x2="445.128" y2="82.4921" gradientTransform="matrix(-0.9993 -3.628246e-02 -3.628246e-02 0.9993 465.6184 14.1874)">
		<stop  offset="0" style="stop-color:#FEEC31"/>
		<stop  offset="6.430217e-02" style="stop-color:#FEDD22"/>
		<stop  offset="0.1335" style="stop-color:#FED114"/>
		<stop  offset="0.2049" style="stop-color:#FDCA08"/>
		<stop  offset="0.2809" style="stop-color:#FDC704"/>
		<stop  offset="0.6685" style="stop-color:#F08F33"/>
		<stop  offset="0.8876" style="stop-color:#E86131"/>
		<stop  offset="1" style="stop-color:#E2322E"/>
	</linearGradient>
	<circle class="st0" cx="75" cy="82.6" r="57.2"/>
	
		<linearGradient id="SVGID_2_" gradientUnits="userSpaceOnUse" x1="335.6273" y1="80.8534" x2="440.2493" y2="80.8534" gradientTransform="matrix(-0.9993 -3.628246e-02 -3.628246e-02 0.9993 465.6184 14.1874)">
		<stop  offset="0" style="stop-color:#FEEC31"/>
		<stop  offset="6.430217e-02" style="stop-color:#FEDD22"/>
		<stop  offset="0.1335" style="stop-color:#FED114"/>
		<stop  offset="0.2049" style="stop-color:#FDCA08"/>
		<stop  offset="0.2809" style="stop-color:#FDC704"/>
		<stop  offset="0.6685" style="stop-color:#F08F33"/>
		<stop  offset="0.8876" style="stop-color:#E86131"/>
		<stop  offset="1" style="stop-color:#E2322E"/>
	</linearGradient>
	<path class="st1" d="M22.7,79c1.1-31.6,25.5-56.4,54.4-55.3c28.9,1,51.3,27.5,50.2,59.1c-1.1,31.6-25.5,56.4-54.4,55.3
		S21.6,110.6,22.7,79z"/>
	<g>
		<path class="st2" d="M16.9,70.6c-0.1,0.8-0.5,1.5-0.9,2s-1,0.9-1.7,1.1c-0.7,0.2-1.5,0.2-2.3,0.1l-3.1-0.6
			c-0.9-0.2-1.6-0.5-2.2-0.9c-0.6-0.4-1-1-1.2-1.7c-0.2-0.7-0.3-1.4-0.1-2.2c0.1-0.7,0.4-1.2,0.8-1.7c0.4-0.5,0.9-0.9,1.4-1.2
			c0.6-0.3,1.2-0.4,1.9-0.4L9,66.7c-0.4,0-0.7,0.1-1.1,0.3c-0.3,0.2-0.6,0.4-0.8,0.7C7,68,6.8,68.4,6.8,68.7c-0.1,0.7,0,1.3,0.4,1.8
			c0.4,0.5,1,0.9,1.8,1l3.1,0.6c0.8,0.1,1.5,0.1,2.1-0.3s0.9-0.9,1.1-1.6c0.1-0.5,0-1-0.2-1.5s-0.6-0.9-1.1-1.1l0.3-1.6
			c0.6,0.3,1.1,0.6,1.6,1.1c0.4,0.5,0.7,1,0.9,1.6C17,69.3,17,69.9,16.9,70.6z"/>
		<path class="st2" d="M17.6,66.1l-9.5-8l0.5-1.3l12.4-0.1l-0.6,1.7l-9.9-0.1l7.7,6.2L17.6,66.1z M15.8,63.3l-1.5-0.5l2.1-5.8
			l1.5,0.5L15.8,63.3z"/>
		<path class="st2" d="M20.6,49.3l-4.9-6.9l0.8-1.3l10,5.9l-0.8,1.4l-7.5-4.5l0.5,0.2l4.2,5.8l-0.6,1l-7-0.8l-0.5-0.4l7.5,4.5
			l-0.8,1.4l-10-5.9l0.8-1.3L20.6,49.3z"/>
		<path class="st2" d="M27.3,46l-5.9-10.9l0.9-1l11.6,4.5l-1.2,1.3L23.5,36l4.9,8.6L27.3,46z M26.7,42.8l-1.2-1l4.1-4.6l1.2,1
			L26.7,42.8z"/>
		<path class="st2" d="M34.9,37.7l-7.3-9.1l1.3-1l7.3,9.1L34.9,37.7z M32.4,33.4l-1-1.2l3.3-2.7c0.3-0.2,0.4-0.6,0.4-1
			c0-0.4-0.2-0.8-0.6-1.2c-0.3-0.4-0.7-0.7-1.1-0.8c-0.4-0.1-0.7-0.1-1,0.2l-3.3,2.7l-1-1.2l3.3-2.6c0.5-0.4,1-0.6,1.5-0.7
			c0.5-0.1,1.1,0,1.6,0.2s1,0.6,1.4,1.1s0.7,1.1,0.8,1.6c0.1,0.6,0.1,1.1-0.1,1.6c-0.2,0.5-0.5,1-1,1.3L32.4,33.4z M40,33.6
			l-5.4-2.5l1-1.3l5.9,2.5L40,33.6z"/>
		<path class="st2" d="M41.5,18c-0.2,0.1-0.5,0.2-0.7,0.3c-0.2,0.1-0.4,0.1-0.6,0.1c-0.3,0-0.5,0-0.8,0c-0.2,0-0.4,0.1-0.6,0.2
			c-0.3,0.2-0.4,0.5-0.2,0.8l0.1,0.1l-1.2,0.7L37.4,20c-0.7-1.2-0.5-2.1,0.4-2.6c0.3-0.2,0.6-0.3,0.9-0.3c0.3,0,0.5-0.1,0.8-0.1
			c0.2,0,0.4,0,0.6,0c0.2,0,0.4-0.1,0.5-0.1c0.3-0.2,0.4-0.5,0.2-0.9l-0.1-0.1l1.2-0.7l0.1,0.2C42.6,16.6,42.5,17.5,41.5,18z
			 M41.9,32.1L40,19.8l1.2-0.7l9.4,8.1l-1.5,0.9l-7.4-6.6l1.7,9.8L41.9,32.1z M42.4,28.9l-0.8-1.4l5.4-3l0.8,1.4L42.4,28.9z"/>
		<path class="st2" d="M55.6,24.7c-0.8,0.3-1.5,0.4-2.2,0.4c-0.7-0.1-1.3-0.4-1.9-0.8c-0.6-0.5-1-1.1-1.4-1.9l-1.3-3
			c-0.3-0.8-0.5-1.5-0.4-2.3c0.1-0.7,0.3-1.4,0.7-1.9s1-1,1.8-1.3s1.5-0.4,2.2-0.4c0.7,0.1,1.3,0.4,1.9,0.8c0.6,0.5,1,1.1,1.4,1.9
			l1.3,3c0.3,0.8,0.5,1.5,0.4,2.3s-0.3,1.4-0.7,1.9C57,23.9,56.4,24.4,55.6,24.7z M55,23.2c0.7-0.3,1.1-0.7,1.3-1.4s0.2-1.3-0.1-2
			l-1.3-3.1c-0.3-0.7-0.8-1.2-1.4-1.5c-0.6-0.3-1.2-0.3-1.9,0c-0.7,0.3-1.1,0.7-1.3,1.4s-0.2,1.3,0.1,2l1.3,3.1
			c0.3,0.7,0.8,1.2,1.4,1.5C53.7,23.5,54.3,23.5,55,23.2z"/>
		<path class="st2" d="M61.2,22.6L60.8,21l1.6-0.4l0.4,1.6L61.2,22.6z"/>
		<path class="st2" d="M68.6,21.1c-0.8,0.1-1.5,0-2.2-0.2c-0.7-0.3-1.2-0.7-1.6-1.3c-0.4-0.6-0.7-1.3-0.8-2.2l-0.4-3.2
			c-0.1-0.9-0.1-1.6,0.2-2.3c0.2-0.7,0.6-1.3,1.2-1.7c0.6-0.4,1.2-0.7,2-0.8c0.7-0.1,1.3,0,1.9,0.2c0.6,0.2,1.1,0.5,1.6,1
			s0.8,1,1,1.7l-1.7,0.2c-0.2-0.4-0.4-0.7-0.6-0.9s-0.6-0.4-0.9-0.5c-0.3-0.1-0.7-0.1-1-0.1c-0.7,0.1-1.2,0.4-1.6,1
			c-0.4,0.6-0.5,1.3-0.4,2.1l0.4,3.2c0.1,0.8,0.4,1.4,0.9,1.9c0.5,0.4,1.1,0.6,1.8,0.5c0.5-0.1,1-0.3,1.4-0.6
			c0.4-0.4,0.6-0.8,0.7-1.4l1.7-0.2c0,0.7-0.2,1.3-0.5,1.8s-0.7,1-1.2,1.3S69.3,21,68.6,21.1z"/>
		<path class="st2" d="M78.2,20.7c-0.8,0-1.5-0.3-2.1-0.7c-0.6-0.4-1-0.9-1.3-1.6s-0.4-1.4-0.4-2.3l0.2-3.3c0-0.9,0.3-1.6,0.6-2.2
			c0.4-0.6,0.9-1.1,1.5-1.4s1.4-0.5,2.2-0.4c0.8,0,1.5,0.3,2.1,0.7c0.6,0.4,1,0.9,1.3,1.6s0.4,1.4,0.4,2.3l-0.2,3.3
			c0,0.9-0.3,1.6-0.6,2.2S81,20,80.4,20.3C79.8,20.6,79,20.8,78.2,20.7z M78.3,19.1c0.7,0,1.3-0.2,1.8-0.6c0.5-0.5,0.7-1.1,0.8-1.9
			l0.2-3.4c0-0.8-0.1-1.4-0.6-1.9c-0.4-0.5-1-0.8-1.7-0.8s-1.3,0.2-1.8,0.6c-0.5,0.5-0.7,1.1-0.8,1.9L76,16.4c0,0.8,0.1,1.4,0.5,1.9
			C77,18.8,77.6,19.1,78.3,19.1z"/>
		<path class="st2" d="M90.2,18.7l5.4-6.4l1.5,0.4l-3.2,11.2l-1.5-0.4l2.4-8.4l-0.1,0.5l-4.6,5.5L89,20.8l-1-7l0.3-0.6l-2.4,8.4
			l-1.5-0.4l3.2-11.2l1.5,0.4L90.2,18.7z"/>
		<path class="st2" d="M99.2,26.8c-0.7-0.4-1.3-0.9-1.6-1.5c-0.4-0.6-0.5-1.3-0.5-2c0-0.7,0.2-1.5,0.6-2.2l1.5-2.8
			c0.4-0.8,0.9-1.4,1.5-1.8c0.6-0.4,1.3-0.6,2-0.7s1.4,0.1,2.1,0.5c0.6,0.3,1.1,0.7,1.4,1.3s0.6,1.1,0.7,1.7c0.1,0.6,0,1.3-0.2,2
			l-1.5-0.8c0.1-0.4,0.1-0.7,0-1.1c-0.1-0.4-0.2-0.7-0.4-1c-0.2-0.3-0.5-0.5-0.8-0.7c-0.6-0.3-1.3-0.4-1.9-0.2
			c-0.6,0.2-1.1,0.7-1.5,1.4l-1.5,2.8c-0.4,0.7-0.5,1.4-0.4,2.1c0.1,0.6,0.5,1.1,1.2,1.5c0.4,0.2,0.9,0.3,1.5,0.3
			c0.5,0,1-0.3,1.4-0.7l1.5,0.8c-0.4,0.5-0.9,0.9-1.5,1.2c-0.6,0.3-1.2,0.4-1.8,0.3C100.4,27.2,99.8,27.1,99.2,26.8z"/>
		<path class="st2" d="M104.7,30.1l6.4-9.7l1.4,0.9l-6.4,9.7L104.7,30.1z M105.4,30.5l0.9-1.3l5.6,3.7l-0.9,1.3L105.4,30.5z
			 M108.1,26.3L109,25l4.8,3.2l-0.9,1.3L108.1,26.3z M110.9,22.1l0.9-1.3l5.6,3.7l-0.9,1.3L110.9,22.1z M114.9,22l-0.3-1.4l3-0.4
			l0.4,1.7L114.9,22z"/>
		<path class="st2" d="M112.4,35.4l7.9-8.6l1.2,1.1l-7.9,8.6L112.4,35.4z M116.3,32.3l1.1-1.1l3.2,2.9c0.3,0.3,0.6,0.3,1,0.3
			s0.8-0.3,1.1-0.7c0.4-0.4,0.6-0.8,0.6-1.2c0.1-0.4-0.1-0.7-0.3-1l-3.2-2.9l1.1-1.1l3.1,2.9c0.5,0.4,0.8,0.9,0.9,1.4
			c0.1,0.5,0.1,1,0,1.6c-0.2,0.5-0.5,1.1-0.9,1.6c-0.5,0.5-1,0.8-1.5,1c-0.5,0.2-1.1,0.2-1.6,0.1c-0.5-0.1-1-0.4-1.5-0.8L116.3,32.3
			z M117.2,39.8l1.6-5.7l1.4,0.8l-1.7,6.2L117.2,39.8z"/>
		<path class="st2" d="M119.7,42.4l9.2-7.2l1,1.3l-9.2,7.2L119.7,42.4z M120.2,43l1.2-1l4.1,5.3l-1.2,1L120.2,43z M124.1,40l1.2-1
			l3.6,4.6l-1.2,1L124.1,40z M128.1,36.8l1.2-1l4.1,5.3l-1.2,1L128.1,36.8z"/>
		<path class="st2" d="M125.3,49.9l10.2-5.6l0.8,1.4l-10.2,5.6L125.3,49.9z M125.7,50.7l1.3-0.7l1.5,2.8c0.4,0.8,0.9,1.2,1.3,1.4
			c0.5,0.2,0.9,0.1,1.4-0.1l0,0c0.5-0.3,0.8-0.6,1-1.1c0.2-0.4,0.1-1-0.3-1.6l-1.7-3.1l1.3-0.7l1.7,3.1c0.6,1.1,1.4,1.3,2.4,0.8
			c1-0.6,1.2-1.4,0.5-2.6l-1.6-2.9l1.3-0.7l1.7,3.2c0.5,1,0.7,1.9,0.5,2.7s-0.8,1.4-1.6,1.8c-0.5,0.3-1,0.4-1.6,0.3
			c-0.6-0.1-1.1-0.4-1.6-1c0.3,0.7,0.2,1.3,0,1.9c-0.3,0.6-0.7,1.1-1.3,1.4l0,0c-0.8,0.5-1.7,0.5-2.5,0.3s-1.5-0.9-2-1.8L125.7,50.7
			z"/>
		<path class="st2" d="M129.9,58.8l11-3.7l0.5,1.5l-11,3.7L129.9,58.8z M132,65l4.1-4.2l0.9,1.4l-4.4,4.6L132,65z M134.8,57.9
			l1.5-0.5l1.4,4.1c0.1,0.4,0.4,0.6,0.8,0.7c0.4,0.1,0.8,0.1,1.4-0.1s0.9-0.4,1.1-0.7c0.2-0.3,0.3-0.7,0.2-1l-1.4-4.1l1.5-0.5l1.4,4
			c0.2,0.6,0.2,1.1,0.1,1.7c-0.1,0.5-0.4,1-0.8,1.4c-0.4,0.4-0.9,0.7-1.6,0.9c-0.6,0.2-1.2,0.3-1.8,0.2s-1-0.3-1.5-0.6
			c-0.4-0.3-0.7-0.8-0.9-1.4L134.8,57.9z"/>
		<path class="st2" d="M133.4,72.2c-0.1-0.8-0.1-1.5,0.2-2.2c0.3-0.7,0.7-1.2,1.3-1.6c0.6-0.4,1.3-0.7,2.2-0.9l3.3-0.5
			c0.8-0.1,1.6-0.1,2.3,0.2c0.7,0.2,1.3,0.6,1.7,1.2c0.4,0.6,0.7,1.2,0.9,2c0.1,0.8,0.1,1.5-0.2,2.2c-0.3,0.7-0.7,1.2-1.3,1.6
			c-0.6,0.4-1.3,0.7-2.2,0.9l-3.3,0.5c-0.8,0.1-1.6,0.1-2.3-0.2c-0.7-0.2-1.3-0.6-1.7-1.2C133.8,73.7,133.5,73,133.4,72.2z M135,72
			c0.1,0.7,0.4,1.3,1,1.6c0.5,0.4,1.2,0.5,2,0.4l3.4-0.5c0.8-0.1,1.4-0.4,1.8-0.9s0.6-1.1,0.4-1.8c-0.1-0.7-0.4-1.3-1-1.6
			c-0.5-0.4-1.2-0.5-2-0.4l-3.4,0.5c-0.8,0.1-1.4,0.4-1.8,0.9S134.9,71.3,135,72z"/>
	</g>
	
		<linearGradient id="SVGID_3_" gradientUnits="userSpaceOnUse" x1="336.1224" y1="84.1641" x2="439.5139" y2="84.1641" gradientTransform="matrix(-0.9993 -3.628246e-02 -3.628246e-02 0.9993 465.6184 14.1874)">
		<stop  offset="0" style="stop-color:#E2322E"/>
		<stop  offset="0.1124" style="stop-color:#E86131"/>
		<stop  offset="0.3315" style="stop-color:#F08F33"/>
		<stop  offset="0.7191" style="stop-color:#FDC704"/>
		<stop  offset="0.7951" style="stop-color:#FDCA08"/>
		<stop  offset="0.8665" style="stop-color:#FED114"/>
		<stop  offset="0.9357" style="stop-color:#FEDD22"/>
		<stop  offset="1" style="stop-color:#FEEC31"/>
	</linearGradient>
	<path class="st3" d="M23.3,82.3C24.5,50.8,48.5,26,77.1,27c28.5,1,50.7,27.5,49.6,59.1s-25.2,56.4-53.7,55.3S22.2,113.9,23.3,82.3z
		"/>
	<circle class="st4" cx="75" cy="82.7" r="53.7"/>
	<linearGradient id="SVGID_4_" gradientUnits="userSpaceOnUse" x1="40.8527" y1="15.8798" x2="76.4024" y2="83.2211">
		<stop  offset="0.11" style="stop-color:#1E1E1C"/>
		<stop  offset="0.1199" style="stop-color:#252523;stop-opacity:0.9836"/>
		<stop  offset="0.1734" style="stop-color:#4B4947;stop-opacity:0.8949"/>
		<stop  offset="0.2304" style="stop-color:#736F6E;stop-opacity:0.8003"/>
		<stop  offset="0.2901" style="stop-color:#999595;stop-opacity:0.7012"/>
		<stop  offset="0.3533" style="stop-color:#BCB9B9;stop-opacity:0.5964"/>
		<stop  offset="0.4212" style="stop-color:#D8D6D7;stop-opacity:0.4837"/>
		<stop  offset="0.496" style="stop-color:#EEEDED;stop-opacity:0.3595"/>
		<stop  offset="0.5833" style="stop-color:#FBFBFB;stop-opacity:0.2146"/>
		<stop  offset="0.7127" style="stop-color:#FFFFFF;stop-opacity:0"/>
	</linearGradient>
	<path class="st5" d="M74.9,29.6c-29,0-52.5,23.5-52.5,52.5c0,4.3,0.5,8.4,1.5,12.4c26.8,0.8,71.6-1.5,102.6-22.3
		C121.9,48,100.5,29.6,74.9,29.6z"/>
	<linearGradient id="SVGID_5_" gradientUnits="userSpaceOnUse" x1="119.1148" y1="138.0599" x2="77.4511" y2="86.037">
		<stop  offset="7.527030e-02" style="stop-color:#1E1E1C"/>
		<stop  offset="8.644342e-02" style="stop-color:#252523;stop-opacity:0.9836"/>
		<stop  offset="0.1467" style="stop-color:#4B4947;stop-opacity:0.8949"/>
		<stop  offset="0.211" style="stop-color:#736F6E;stop-opacity:0.8003"/>
		<stop  offset="0.2784" style="stop-color:#999595;stop-opacity:0.7012"/>
		<stop  offset="0.3496" style="stop-color:#BCB9B9;stop-opacity:0.5964"/>
		<stop  offset="0.4262" style="stop-color:#D8D6D7;stop-opacity:0.4837"/>
		<stop  offset="0.5107" style="stop-color:#EEEDED;stop-opacity:0.3595"/>
		<stop  offset="0.6091" style="stop-color:#FBFBFB;stop-opacity:0.2146"/>
		<stop  offset="0.755" style="stop-color:#FFFFFF;stop-opacity:0"/>
	</linearGradient>
	<path class="st6" d="M112.4,120.3c-20.5,20.5-53.8,20.5-74.3,0c-3-3-5.6-6.3-7.7-9.8C48.7,90.9,82,60.9,118.7,53.7
		C132.6,74.1,130.5,102.2,112.4,120.3z"/>
	<g>
		<path class="st7" d="M78.9,76.9c20.6-2.1,38.5,3.7,41-11.7c0.8-5.1-5.5-35-56.8-17.2"/>
		<path class="st8" d="M78.9,76.9c20.9-3.3,31-0.6,36.5-8.4c4-5.7-2.2-17.9-17.3-19.3c-15.6-1.4-17.7,3.5-28.3,3.5"/>
		
			<linearGradient id="SVGID_6_" gradientUnits="userSpaceOnUse" x1="362.0802" y1="105.7571" x2="398.6217" y2="105.7571" gradientTransform="matrix(-0.996 -8.912564e-02 -8.912564e-02 0.996 469.2956 13.2853)">
			<stop  offset="0" style="stop-color:#FEEC31"/>
			<stop  offset="6.430217e-02" style="stop-color:#FEDD22"/>
			<stop  offset="0.1335" style="stop-color:#FED114"/>
			<stop  offset="0.2049" style="stop-color:#FDCA08"/>
			<stop  offset="0.2809" style="stop-color:#FDC704"/>
			<stop  offset="0.6685" style="stop-color:#F08F33"/>
			<stop  offset="0.8876" style="stop-color:#E86131"/>
			<stop  offset="1" style="stop-color:#E2322E"/>
		</linearGradient>
		<path class="st9" d="M66.6,80.1c0,0,5.5,2,10.9,2c5.4,0,17,1.7,17,1.7s3,0.1,3.9,2c0.9,2,0.5,3.1,0.5,3.1l-1.2-2.4l0.2,3l-4.7-5.1
			c0,0-12.9-1.9-15.6-1.1C75,84.1,64,82.2,63.2,80.8C62.3,79.4,66.6,80.1,66.6,80.1z"/>
		
			<linearGradient id="SVGID_7_" gradientUnits="userSpaceOnUse" x1="369.0369" y1="70.4898" x2="405.5783" y2="70.4898" gradientTransform="matrix(-0.999 4.435669e-02 4.435669e-02 0.999 464.7815 -6.5366)">
			<stop  offset="0" style="stop-color:#FEEC31"/>
			<stop  offset="6.430217e-02" style="stop-color:#FEDD22"/>
			<stop  offset="0.1335" style="stop-color:#FED114"/>
			<stop  offset="0.2049" style="stop-color:#FDCA08"/>
			<stop  offset="0.2809" style="stop-color:#FDC704"/>
			<stop  offset="0.6685" style="stop-color:#F08F33"/>
			<stop  offset="0.8876" style="stop-color:#E86131"/>
			<stop  offset="1" style="stop-color:#E2322E"/>
		</linearGradient>
		<path class="st10" d="M66.1,78.5c0,0,5.7,1.3,11.1,0.5c5.4-0.7,17.1-0.6,17.1-0.6s3-0.3,4.1,1.5c1.1,1.8,0.9,3,0.9,3l-1.5-2.2
			l0.6,2.9l-5.3-4.4c0,0-13-0.2-15.7,1c-2.6,1.2-13.7,0.7-14.7-0.6C61.7,78.3,66.1,78.5,66.1,78.5z"/>
		
			<linearGradient id="SVGID_8_" gradientUnits="userSpaceOnUse" x1="356.5489" y1="152.9112" x2="381.0339" y2="152.9112" gradientTransform="matrix(-0.9775 -0.3007 -0.2773 0.9649 475.0989 49.4474)">
			<stop  offset="0" style="stop-color:#FEEC31"/>
			<stop  offset="6.430217e-02" style="stop-color:#FEDD22"/>
			<stop  offset="0.1335" style="stop-color:#FED114"/>
			<stop  offset="0.2049" style="stop-color:#FDCA08"/>
			<stop  offset="0.2809" style="stop-color:#FDC704"/>
			<stop  offset="0.6685" style="stop-color:#F08F33"/>
			<stop  offset="0.8876" style="stop-color:#E86131"/>
			<stop  offset="1" style="stop-color:#E2322E"/>
		</linearGradient>
		<path class="st11" d="M63.1,81c0,0,3.4,2.1,7.1,2.9s11.2,3.5,11.2,3.5s2,0.5,2.3,1.9c0.3,1.4,0,2.1,0,2.1l-0.5-1.7l-0.2,2l-2.5-4
			c0,0-8.4-3.1-10.3-3s-9-2.7-9.4-3.7S63.1,81,63.1,81z"/>
		
			<linearGradient id="SVGID_9_" gradientUnits="userSpaceOnUse" x1="376.6575" y1="-26.6797" x2="400.6464" y2="-26.6797" gradientTransform="matrix(-0.8199 0.5725 0.5725 0.8199 419.545 -126.1137)">
			<stop  offset="0" style="stop-color:#FEEC31"/>
			<stop  offset="6.430217e-02" style="stop-color:#FEDD22"/>
			<stop  offset="0.1335" style="stop-color:#FED114"/>
			<stop  offset="0.2049" style="stop-color:#FDCA08"/>
			<stop  offset="0.2809" style="stop-color:#FDC704"/>
			<stop  offset="0.6685" style="stop-color:#F08F33"/>
			<stop  offset="0.8876" style="stop-color:#E86131"/>
			<stop  offset="1" style="stop-color:#E2322E"/>
		</linearGradient>
		<path class="st12" d="M81.2,69.2c-6.7,5.4-5.9,10.3-5.6,11.9c9.9-15.9,23.8-7.8,23.8-7.8C92.9,65.7,87.1,65.7,81.2,69.2z"/>
		
			<linearGradient id="SVGID_10_" gradientUnits="userSpaceOnUse" x1="449.104" y1="72.7423" x2="429.4307" y2="89.0188" gradientTransform="matrix(-1 0 0 1 466.175 0)">
			<stop  offset="0" style="stop-color:#FEEC31"/>
			<stop  offset="6.430217e-02" style="stop-color:#FEDD22"/>
			<stop  offset="0.1335" style="stop-color:#FED114"/>
			<stop  offset="0.2049" style="stop-color:#FDCA08"/>
			<stop  offset="0.2809" style="stop-color:#FDC704"/>
			<stop  offset="0.6685" style="stop-color:#F08F33"/>
			<stop  offset="0.8876" style="stop-color:#E86131"/>
			<stop  offset="1" style="stop-color:#E2322E"/>
		</linearGradient>
		<path class="st13" d="M30,91.4c0,1.6,0.1,3.2,0.3,4.7c3.1,1.1,6.3,1.6,9.5,1.5c2.2,0,4.3-0.3,6.4-0.8c1.8-0.5,3.7-1.1,5.4-1.9
			c0.2-1.7,0.6-3.4,1.2-4.9c-1.7-0.3-3.3-0.8-4.9-1.5c-2-0.8-3.9-1.8-5.6-3c-3.6-2.5-6.5-5.8-8.6-9.7C31.4,80.5,30,85.8,30,91.4z"/>
		
			<linearGradient id="SVGID_11_" gradientUnits="userSpaceOnUse" x1="452.6465" y1="100.1959" x2="432.8317" y2="100.1959" gradientTransform="matrix(-1 0 0 1 466.175 0)">
			<stop  offset="0" style="stop-color:#FEEC31"/>
			<stop  offset="6.430217e-02" style="stop-color:#FEDD22"/>
			<stop  offset="0.1335" style="stop-color:#FED114"/>
			<stop  offset="0.2049" style="stop-color:#FDCA08"/>
			<stop  offset="0.2809" style="stop-color:#FDC704"/>
			<stop  offset="0.6685" style="stop-color:#F08F33"/>
			<stop  offset="0.8876" style="stop-color:#E86131"/>
			<stop  offset="1" style="stop-color:#E2322E"/>
		</linearGradient>
		<path class="st14" d="M30.4,96.2c0.4,3.2,1.3,6.3,2.6,9.2c1.2,0,2.4,0,3.5-0.1c4.4-0.5,8.7-2,12.4-4.4c1-0.6,1.9-1.3,2.8-2.1
			c0-0.5-0.1-1-0.1-1.5c0-0.8,0-1.6,0.1-2.4c-1.7,0.8-3.5,1.5-5.4,1.9c-2.1,0.5-4.3,0.8-6.4,0.8C36.7,97.8,33.4,97.3,30.4,96.2z"/>
		
			<linearGradient id="SVGID_12_" gradientUnits="userSpaceOnUse" x1="371.3774" y1="116.3811" x2="425.3586" y2="116.3811" gradientTransform="matrix(-1 0 0 1 466.175 0)">
			<stop  offset="0" style="stop-color:#FEEC31"/>
			<stop  offset="6.430217e-02" style="stop-color:#FEDD22"/>
			<stop  offset="0.1335" style="stop-color:#FED114"/>
			<stop  offset="0.2049" style="stop-color:#FDCA08"/>
			<stop  offset="0.2809" style="stop-color:#FDC704"/>
			<stop  offset="0.6685" style="stop-color:#F08F33"/>
			<stop  offset="0.8876" style="stop-color:#E86131"/>
			<stop  offset="1" style="stop-color:#E2322E"/>
		</linearGradient>
		<path class="st15" d="M40.8,116.7c6.3,6,14.8,9.7,24.2,9.7c12.1,0,22.8-6.2,29.1-15.5c0.2-0.3,0.4-0.7,0.7-1
			c-0.6,0.3-1.1,0.7-1.7,1c-2.3,1.2-4.8,2.2-7.4,2.8c0,0,0,0,0,0c-3.6,2.9-8.1,4.6-13.1,4.6c-8.4,0-15.6-4.9-19-11.9
			C50.5,110.9,46.1,114.6,40.8,116.7z"/>
		
			<linearGradient id="SVGID_13_" gradientUnits="userSpaceOnUse" x1="434.3317" y1="53.6055" x2="420.0367" y2="75.6849" gradientTransform="matrix(-1 0 0 1 466.175 0)">
			<stop  offset="0" style="stop-color:#FEEC31"/>
			<stop  offset="6.430217e-02" style="stop-color:#FEDD22"/>
			<stop  offset="0.1335" style="stop-color:#FED114"/>
			<stop  offset="0.2049" style="stop-color:#FDCA08"/>
			<stop  offset="0.2809" style="stop-color:#FDC704"/>
			<stop  offset="0.6685" style="stop-color:#F08F33"/>
			<stop  offset="0.8876" style="stop-color:#E86131"/>
			<stop  offset="1" style="stop-color:#E2322E"/>
		</linearGradient>
		<path class="st16" d="M33.7,75.8c2.1,3.9,5.1,7.2,8.6,9.7c1.7,1.2,3.6,2.2,5.6,3c1.6,0.6,3.2,1.1,4.9,1.5c0.4-1.1,0.9-2.2,1.5-3.3
			c-0.5-0.5-0.9-1.1-1.3-1.7c-0.8-1.1-1.6-2.3-2.2-3.5c-3.4-6.5-4.2-14.1-2.1-21.2c-0.6,0.3-1.1,0.6-1.6,0.9
			C41.4,64.7,36.7,69.8,33.7,75.8z"/>
		
			<linearGradient id="SVGID_14_" gradientUnits="userSpaceOnUse" x1="360.2895" y1="68.5946" x2="411.2005" y2="68.5946" gradientTransform="matrix(-1 0 0 1 466.175 0)">
			<stop  offset="0" style="stop-color:#FEEC31"/>
			<stop  offset="6.430217e-02" style="stop-color:#FEDD22"/>
			<stop  offset="0.1335" style="stop-color:#FED114"/>
			<stop  offset="0.2049" style="stop-color:#FDCA08"/>
			<stop  offset="0.2809" style="stop-color:#FDC704"/>
			<stop  offset="0.6685" style="stop-color:#F08F33"/>
			<stop  offset="0.8876" style="stop-color:#E86131"/>
			<stop  offset="1" style="stop-color:#E2322E"/>
		</linearGradient>
		<path class="st17" d="M55.8,83.8c0.1,0.2,0.1,0.5,0.2,0.7c0.3-0.4,0.6-0.8,1-1.2c4-1.6,8.4-2.5,12.9-2.5c2,0,3.9,0.2,5.8,0.5
			c2.2-7,8.2-12,15.1-12c7.7,0,18.6-6.5,14.1-16.6c-0.4,1.2-2.9,10.2-14.1,11.7c-1.1,0.1-9.6,0.8-15.5-6.5c-2.1-0.6-4.3-1.1-6.5-1.3
			c-1.2-0.1-2.4-0.2-3.7-0.2c-0.3,0-0.6,0-0.8,0c-5.3,4.8-8.5,11.4-9.1,18.3v0C54.8,77.7,55,80.8,55.8,83.8z"/>
		
			<linearGradient id="SVGID_15_" gradientUnits="userSpaceOnUse" x1="434.0645" y1="50.8631" x2="410.9944" y2="68.4134" gradientTransform="matrix(-1 0 0 1 466.175 0)">
			<stop  offset="0" style="stop-color:#FEEC31"/>
			<stop  offset="6.430217e-02" style="stop-color:#FEDD22"/>
			<stop  offset="0.1335" style="stop-color:#FED114"/>
			<stop  offset="0.2049" style="stop-color:#FDCA08"/>
			<stop  offset="0.2809" style="stop-color:#FDC704"/>
			<stop  offset="0.6685" style="stop-color:#F08F33"/>
			<stop  offset="0.8876" style="stop-color:#E86131"/>
			<stop  offset="1" style="stop-color:#E2322E"/>
		</linearGradient>
		<path class="st18" d="M50.9,81.6c0.6,1.2,1.4,2.4,2.2,3.5c0.4,0.6,0.9,1.1,1.3,1.7c0.5-0.8,1-1.5,1.5-2.3
			c-0.1-0.2-0.1-0.5-0.2-0.7c-0.7-3-0.9-6.1-0.7-9.1v0c0.6-6.9,3.8-13.5,9.1-18.3c-5.6,0.1-10.8,1.6-15.4,4
			C46.7,67.5,47.5,75.1,50.9,81.6z"/>
		
			<linearGradient id="SVGID_16_" gradientUnits="userSpaceOnUse" x1="446.7108" y1="106.4803" x2="431.2835" y2="107.188" gradientTransform="matrix(-1 0 0 1 466.175 0)">
			<stop  offset="0" style="stop-color:#FEEC31"/>
			<stop  offset="6.430217e-02" style="stop-color:#FEDD22"/>
			<stop  offset="0.1335" style="stop-color:#FED114"/>
			<stop  offset="0.2049" style="stop-color:#FDCA08"/>
			<stop  offset="0.2809" style="stop-color:#FDC704"/>
			<stop  offset="0.6685" style="stop-color:#F08F33"/>
			<stop  offset="0.8876" style="stop-color:#E86131"/>
			<stop  offset="1" style="stop-color:#E2322E"/>
		</linearGradient>
		<path class="st19" d="M32.9,105.4c0.7,1.6,1.5,3.1,2.4,4.5c1.5,2.5,3.4,4.8,5.5,6.8c5.3-2.1,9.7-5.7,12.8-10.4
			c-0.1-0.2-0.2-0.4-0.3-0.6c-1-2.2-1.6-4.5-1.7-7c-0.9,0.7-1.8,1.4-2.8,2.1c-3.7,2.4-8,4-12.4,4.4
			C35.3,105.3,34.1,105.4,32.9,105.4z"/>
		
			<linearGradient id="SVGID_17_" gradientUnits="userSpaceOnUse" x1="447.8343" y1="116.3811" x2="437.9269" y2="116.3811" gradientTransform="matrix(-1 0 0 1 466.175 0)">
			<stop  offset="0" style="stop-color:#FEEC31"/>
			<stop  offset="6.430217e-02" style="stop-color:#FEDD22"/>
			<stop  offset="0.1335" style="stop-color:#FED114"/>
			<stop  offset="0.2049" style="stop-color:#FDCA08"/>
			<stop  offset="0.2809" style="stop-color:#FDC704"/>
			<stop  offset="0.6685" style="stop-color:#F08F33"/>
			<stop  offset="0.8876" style="stop-color:#E86131"/>
			<stop  offset="1" style="stop-color:#E2322E"/>
		</linearGradient>
		<path class="st20" d="M40.8,116.7c6.3,6,14.8,9.7,24.2,9.7c12.1,0,22.8-6.2,29.1-15.5c0.2-0.3,0.4-0.7,0.7-1
			c-0.6,0.3-1.1,0.7-1.7,1c-2.3,1.2-4.8,2.2-7.4,2.8c0,0,0,0,0,0c-3.6,2.9-8.1,4.6-13.1,4.6c-8.4,0-15.6-4.9-19-11.9
			C50.5,110.9,46.1,114.6,40.8,116.7z"/>
		
			<linearGradient id="SVGID_18_" gradientUnits="userSpaceOnUse" x1="447.8343" y1="116.3811" x2="437.9269" y2="116.3811" gradientTransform="matrix(-1 0 0 1 466.175 0)">
			<stop  offset="0" style="stop-color:#FEEC31"/>
			<stop  offset="6.430217e-02" style="stop-color:#FEDD22"/>
			<stop  offset="0.1335" style="stop-color:#FED114"/>
			<stop  offset="0.2049" style="stop-color:#FDCA08"/>
			<stop  offset="0.2809" style="stop-color:#FDC704"/>
			<stop  offset="0.6685" style="stop-color:#F08F33"/>
			<stop  offset="0.8876" style="stop-color:#E86131"/>
			<stop  offset="1" style="stop-color:#E2322E"/>
		</linearGradient>
		<path class="st21" d="M40.8,116.7c6.3,6,14.8,9.7,24.2,9.7c12.1,0,22.8-6.2,29.1-15.5c0.2-0.3,0.4-0.7,0.7-1
			c-0.6,0.3-1.1,0.7-1.7,1c-2.3,1.2-4.8,2.2-7.4,2.8c0,0,0,0,0,0c-3.6,2.9-8.1,4.6-13.1,4.6c-8.4,0-15.6-4.9-19-11.9
			C50.5,110.9,46.1,114.6,40.8,116.7z"/>
		<path class="st4" d="M65.1,125.3c10.7,0,20.8-5,27.3-13.5c0.2-0.1,0.5-0.2,0.7-0.3c-6.5,9-16.8,14.4-28,14.4
			c-8.6,0-16.9-3.2-23.2-9c0.1-0.1,0.3-0.1,0.4-0.2C48.6,122.2,56.6,125.3,65.1,125.3z"/>
		
			<linearGradient id="SVGID_19_" gradientUnits="userSpaceOnUse" x1="403.9112" y1="96.4202" x2="414.6116" y2="96.4202" gradientTransform="matrix(-1 0 0 1 466.175 0)">
			<stop  offset="0" style="stop-color:#FEEC31"/>
			<stop  offset="6.430217e-02" style="stop-color:#FEDD22"/>
			<stop  offset="0.1335" style="stop-color:#FED114"/>
			<stop  offset="0.2049" style="stop-color:#FDCA08"/>
			<stop  offset="0.2809" style="stop-color:#FDC704"/>
			<stop  offset="0.6685" style="stop-color:#F08F33"/>
			<stop  offset="0.8876" style="stop-color:#E86131"/>
			<stop  offset="1" style="stop-color:#E2322E"/>
		</linearGradient>
		<path class="st22" d="M51.7,95.1c-0.1,1-0.1,2,0,3c3.4-1.3,7.1-1.7,10.6-1.2c0,0,0,0,0,0C59.2,94.8,55.3,94.1,51.7,95.1z"/>
		
			<linearGradient id="SVGID_20_" gradientUnits="userSpaceOnUse" x1="407.9584" y1="77.3165" x2="416.4785" y2="77.3165" gradientTransform="matrix(-0.9952 9.813283e-02 9.813283e-02 0.9952 458.6166 -18.504)">
			<stop  offset="0" style="stop-color:#FEEC31"/>
			<stop  offset="6.430217e-02" style="stop-color:#FEDD22"/>
			<stop  offset="0.1335" style="stop-color:#FED114"/>
			<stop  offset="0.2049" style="stop-color:#FDCA08"/>
			<stop  offset="0.2809" style="stop-color:#FDC704"/>
			<stop  offset="0.6685" style="stop-color:#F08F33"/>
			<stop  offset="0.8876" style="stop-color:#E86131"/>
			<stop  offset="1" style="stop-color:#E2322E"/>
		</linearGradient>
		<path class="st23" d="M51.7,98.3c0,0.8,0,1.6,0.2,2.4c2.6-1.3,5.5-1.9,8.3-1.8c0,0,0,0,0,0C57.7,97.5,54.5,97.2,51.7,98.3z"/>
		<path class="st24" d="M75.4,66.5c-0.2,0.3-0.2,0.7,0,0.9c0.7,1,1.7,1.6,2.8,1.6c1,0,1.9-0.5,2.6-1.3c0.2-0.3,0.2-0.7,0-0.9
			c-0.7-1-1.7-1.6-2.8-1.6C77,65.2,76.1,65.7,75.4,66.5z"/>
		<path class="st4" d="M77,66.2c0.1,0.2,0.4,0.4,0.6,0.4c0.2,0,0.4-0.1,0.6-0.4c-0.1-0.2-0.4-0.4-0.6-0.4C77.3,65.8,77.1,66,77,66.2
			z"/>
		<g>
			<path class="st4" d="M34.6,76.3l-0.4-0.4c3-5.9,7.5-10.7,13.2-14.1c0.3-0.2,0.5-0.3,0.8-0.5l-0.1,0.4c-0.1,0-0.1,0.1-0.2,0.1
				c-5.7,3.4-10.3,8.3-13.2,14.2C34.7,76.1,34.7,76.2,34.6,76.3z"/>
			<path class="st4" d="M33.8,76.9l0.4,0.5c-2,4.4-3,9.1-3,14c0,1.4,0.1,2.9,0.3,4.3c2.7,0.9,5.6,1.4,8.5,1.4c0,0,0,0,0,0l-0.3,0
				c-3,0-5.9-0.5-8.7-1.4c-0.2-1.4-0.3-2.9-0.3-4.3C30.6,86.3,31.7,81.5,33.8,76.9z"/>
		</g>
	</g>
</g>
</svg>
