<?xml version="1.0" encoding="utf-8"?>
<!-- Generator: Adobe Illustrator 22.0.1, SVG Export Plug-In . SVG Version: 6.00 Build 0)  -->
<svg version="1.1" id="Camada_1" xmlns="http://www.w3.org/2000/svg" xmlns:xlink="http://www.w3.org/1999/xlink" x="0px" y="0px"
	 viewBox="0 0 200 200" style="enable-background:new 0 0 200 200;" xml:space="preserve">
<style type="text/css">
	.st0{fill:url(#SVGID_1_);}
	.st1{fill:url(#SVGID_2_);}
	.st2{fill:url(#SVGID_3_);}
	.st3{fill:url(#SVGID_4_);}
	.st4{fill:#009DE1;}
	.st5{fill:url(#SVGID_5_);}
	.st6{fill:url(#SVGID_6_);}
	.st7{fill:#36A7DF;}
	.st8{fill:url(#SVGID_7_);}
	.st9{fill:#BC1622;}
	.st10{fill:#2D2E81;}
	.st11{fill:#E10613;}
	.st12{fill:url(#SVGID_8_);}
	.st13{fill:url(#SVGID_9_);}
	.st14{fill:url(#SVGID_10_);}
	.st15{fill:url(#SVGID_11_);}
	.st16{fill:url(#SVGID_12_);}
	.st17{fill:url(#SVGID_13_);}
	.st18{fill:url(#SVGID_14_);}
	.st19{fill:url(#SVGID_15_);}
	.st20{fill:url(#SVGID_16_);}
	.st21{fill:url(#SVGID_17_);}
	.st22{fill:url(#SVGID_18_);}
	.st23{fill:url(#SVGID_19_);}
	.st24{fill:url(#SVGID_20_);}
	.st25{fill:url(#SVGID_21_);}
	.st26{fill:url(#SVGID_22_);}
</style>
<g>
	<linearGradient id="SVGID_1_" gradientUnits="userSpaceOnUse" x1="36.2701" y1="130.2285" x2="167.9992" y2="130.2285">
		<stop  offset="0" style="stop-color:#312781"/>
		<stop  offset="1" style="stop-color:#000000"/>
	</linearGradient>
	<polygon class="st0" points="102.1,156.1 36.3,119 63.2,104.4 102.2,126.7 140.9,104.4 168,119.7 	"/>
	<linearGradient id="SVGID_2_" gradientUnits="userSpaceOnUse" x1="133.2319" y1="105.7446" x2="158.9721" y2="106.5017">
		<stop  offset="0" style="stop-color:#312781"/>
		<stop  offset="5.059487e-02" style="stop-color:#2D2476"/>
		<stop  offset="0.2614" style="stop-color:#1D174C"/>
		<stop  offset="0.4669" style="stop-color:#100D2B"/>
		<stop  offset="0.6627" style="stop-color:#070613"/>
		<stop  offset="0.8449" style="stop-color:#020105"/>
		<stop  offset="1" style="stop-color:#000000"/>
	</linearGradient>
	<polygon class="st1" points="168,107.6 168,119.7 140.9,104.4 140.8,93.1 	"/>
	<linearGradient id="SVGID_3_" gradientUnits="userSpaceOnUse" x1="129.284" y1="38.3144" x2="176.7267" y2="37.6415">
		<stop  offset="0" style="stop-color:#312781"/>
		<stop  offset="0.5798" style="stop-color:#000000"/>
	</linearGradient>
	<polygon class="st2" points="168,37.6 168,53.3 139.9,37.8 140.4,22.6 	"/>
	<linearGradient id="SVGID_4_" gradientUnits="userSpaceOnUse" x1="102.1347" y1="56.7036" x2="168" y2="56.7036">
		<stop  offset="0" style="stop-color:#312781"/>
		<stop  offset="1" style="stop-color:#000000"/>
	</linearGradient>
	<polygon class="st3" points="168,53.3 127.2,75.6 102.1,61 139.9,37.8 	"/>
	<polygon class="st4" points="128.3,129.4 168,107.6 140.8,93.1 102.1,113.9 	"/>
	<linearGradient id="SVGID_5_" gradientUnits="userSpaceOnUse" x1="49.594" y1="75.2489" x2="49.594" y2="6.5931">
		<stop  offset="0" style="stop-color:#312781"/>
		<stop  offset="1" style="stop-color:#000000"/>
	</linearGradient>
	<polygon class="st5" points="36.3,37 63.2,22.3 60.4,56.7 36,68 	"/>
	<linearGradient id="SVGID_6_" gradientUnits="userSpaceOnUse" x1="115.2357" y1="157.754" x2="115.2357" y2="34.6902">
		<stop  offset="0" style="stop-color:#312781"/>
		<stop  offset="1" style="stop-color:#000000"/>
	</linearGradient>
	<polygon class="st6" points="128.3,129.4 102.1,113.9 102.1,61 127.2,75.6 	"/>
	<polygon class="st7" points="102.1,74.1 36.3,37 63.2,22.3 102.2,44.7 140.9,22.3 168,37.6 	"/>
	<linearGradient id="SVGID_7_" gradientUnits="userSpaceOnUse" x1="49.5867" y1="134.0475" x2="49.5867" y2="47.2367">
		<stop  offset="0" style="stop-color:#312781"/>
		<stop  offset="1" style="stop-color:#000000"/>
	</linearGradient>
	<polygon class="st8" points="63.1,104.4 36.3,119 36,91.2 63.2,92.5 	"/>
	<line class="st9" x1="91.7" y1="97.2" x2="91.6" y2="97.2"/>
	<line class="st9" x1="101.9" y1="92" x2="101.9" y2="92"/>
	<polygon class="st7" points="80.6,93.3 36,91.2 61.1,81.2 99.2,81.2 	"/>
	<polygon class="st10" points="80.6,93.3 36,68 60.4,56.7 99.2,81.2 	"/>
	<polygon class="st11" points="91.6,97.2 91.6,97.2 91.6,97.2 	"/>
</g>
<g>
	<linearGradient id="SVGID_8_" gradientUnits="userSpaceOnUse" x1="42.7572" y1="202.688" x2="42.7572" y2="151.2076">
		<stop  offset="0" style="stop-color:#312781"/>
		<stop  offset="1" style="stop-color:#000000"/>
	</linearGradient>
	<path class="st12" d="M37.3,181v-12.7c0-0.4,0.1-0.6,0.3-0.8c0.2-0.2,0.4-0.3,0.7-0.3c0.4,0,0.7,0.1,0.9,0.2
		c0.2,0.2,0.5,0.5,0.7,0.9l2.8,5.2l2.8-5.2c0.2-0.5,0.5-0.8,0.7-0.9c0.2-0.2,0.5-0.2,0.9-0.2c0.3,0,0.6,0.1,0.7,0.3
		c0.2,0.2,0.3,0.4,0.3,0.8V181c0,0.2-0.1,0.4-0.3,0.5c-0.2,0.1-0.5,0.2-0.7,0.2c-0.3,0-0.5-0.1-0.7-0.2c-0.2-0.1-0.3-0.3-0.3-0.5
		v-9.5l-2.6,4.9c-0.2,0.3-0.5,0.5-0.8,0.5c-0.3,0-0.6-0.2-0.7-0.5l-2.6-5v9.6c0,0.2-0.1,0.4-0.3,0.5c-0.2,0.1-0.5,0.2-0.7,0.2
		c-0.3,0-0.5-0.1-0.7-0.2C37.4,181.3,37.3,181.2,37.3,181z"/>
	<linearGradient id="SVGID_9_" gradientUnits="userSpaceOnUse" x1="53.8049" y1="202.688" x2="53.8049" y2="151.2076">
		<stop  offset="0" style="stop-color:#312781"/>
		<stop  offset="1" style="stop-color:#000000"/>
	</linearGradient>
	<path class="st13" d="M50,179.2c0-1.1,0.4-1.8,1.2-2.2c0.8-0.4,1.9-0.6,3.4-0.6h0.9V176c0-0.6-0.2-1.1-0.5-1.5
		c-0.3-0.4-0.8-0.6-1.5-0.6c-0.6,0-1.1,0.1-1.5,0.3c-0.4,0.2-0.7,0.3-0.7,0.3c-0.2,0-0.4-0.1-0.5-0.3c-0.1-0.2-0.2-0.5-0.2-0.7
		c0-0.3,0.3-0.6,1-0.9c0.6-0.2,1.3-0.4,2-0.4c1.4,0,2.4,0.4,3,1.1c0.7,0.7,1,1.6,1,2.7v5c0,0.2-0.1,0.3-0.3,0.5
		c-0.2,0.1-0.4,0.2-0.7,0.2c-0.3,0-0.5-0.1-0.7-0.2c-0.2-0.1-0.3-0.3-0.3-0.5v-0.7c-0.9,1-1.9,1.5-3,1.5c-0.8,0-1.4-0.2-1.9-0.7
		C50.3,180.7,50,180,50,179.2z M52.1,179c0,0.4,0.1,0.7,0.4,1c0.2,0.2,0.5,0.3,0.9,0.3c0.5,0,1-0.2,1.4-0.6c0.5-0.4,0.7-0.9,0.7-1.3
		v-0.7H55c-0.6,0-1.1,0-1.5,0.1c-0.4,0.1-0.7,0.2-1,0.4C52.3,178.2,52.1,178.6,52.1,179z"/>
	<linearGradient id="SVGID_10_" gradientUnits="userSpaceOnUse" x1="62.6333" y1="202.688" x2="62.6333" y2="151.2076">
		<stop  offset="0" style="stop-color:#312781"/>
		<stop  offset="1" style="stop-color:#000000"/>
	</linearGradient>
	<path class="st14" d="M59.7,181v-8c0-0.2,0.1-0.4,0.3-0.5c0.2-0.1,0.4-0.2,0.7-0.2c0.3,0,0.5,0.1,0.7,0.2c0.2,0.1,0.3,0.3,0.3,0.5
		v0.9c0.2-0.5,0.6-0.9,1-1.2c0.5-0.3,1-0.5,1.5-0.5h0.6c0.2,0,0.4,0.1,0.6,0.3c0.2,0.2,0.2,0.4,0.2,0.6c0,0.3-0.1,0.5-0.2,0.7
		c-0.2,0.2-0.3,0.3-0.6,0.3h-0.6c-0.6,0-1.2,0.3-1.7,0.8c-0.5,0.5-0.7,1.2-0.7,2.1v4c0,0.2-0.1,0.3-0.3,0.5
		c-0.2,0.1-0.5,0.2-0.7,0.2c-0.3,0-0.5-0.1-0.7-0.2C59.8,181.3,59.7,181.1,59.7,181z"/>
	<linearGradient id="SVGID_11_" gradientUnits="userSpaceOnUse" x1="73.5821" y1="202.688" x2="73.5821" y2="151.2076">
		<stop  offset="0" style="stop-color:#312781"/>
		<stop  offset="1" style="stop-color:#000000"/>
	</linearGradient>
	<path class="st15" d="M66.8,181v-8c0-0.2,0.1-0.4,0.3-0.5c0.2-0.1,0.4-0.2,0.7-0.2c0.2,0,0.5,0.1,0.7,0.2c0.2,0.1,0.3,0.3,0.3,0.5
		v0.7c0.6-1,1.4-1.5,2.6-1.5c0.6,0,1.1,0.2,1.5,0.5c0.5,0.4,0.8,0.8,1,1.4c0.3-0.7,0.8-1.1,1.3-1.5c0.5-0.3,1.1-0.5,1.7-0.5
		c0.9,0,1.7,0.4,2.4,1.1c0.7,0.7,1,1.6,1,2.8v4.9c0,0.2-0.1,0.3-0.3,0.5c-0.2,0.1-0.5,0.2-0.7,0.2c-0.3,0-0.5-0.1-0.7-0.2
		c-0.2-0.1-0.3-0.3-0.3-0.5v-4.9c0-0.6-0.2-1.1-0.6-1.5c-0.4-0.4-0.8-0.6-1.3-0.6c-0.5,0-0.9,0.2-1.3,0.6c-0.4,0.4-0.6,0.9-0.6,1.5
		v4.9c0,0.2-0.1,0.4-0.3,0.5c-0.2,0.1-0.5,0.2-0.7,0.2c-0.3,0-0.5-0.1-0.7-0.2c-0.2-0.1-0.3-0.3-0.3-0.5v-4.9c0-0.6-0.2-1.1-0.5-1.5
		c-0.4-0.4-0.8-0.6-1.3-0.6s-0.9,0.2-1.3,0.6c-0.4,0.4-0.5,0.9-0.5,1.5v4.9c0,0.2-0.1,0.3-0.3,0.5c-0.2,0.1-0.5,0.2-0.7,0.2
		c-0.3,0-0.5-0.1-0.7-0.2C66.9,181.3,66.8,181.1,66.8,181z"/>
	<linearGradient id="SVGID_12_" gradientUnits="userSpaceOnUse" x1="83.4855" y1="202.688" x2="83.4855" y2="151.2076">
		<stop  offset="0" style="stop-color:#312781"/>
		<stop  offset="1" style="stop-color:#000000"/>
	</linearGradient>
	<path class="st16" d="M82.3,168.9c0-0.3,0.1-0.6,0.4-0.8c0.2-0.2,0.5-0.3,0.8-0.3c0.3,0,0.6,0.1,0.8,0.3c0.2,0.2,0.4,0.5,0.4,0.8
		c0,0.3-0.1,0.5-0.4,0.8c-0.2,0.2-0.5,0.3-0.8,0.3c-0.3,0-0.6-0.1-0.8-0.3C82.4,169.4,82.3,169.2,82.3,168.9z M82.5,181v-8
		c0-0.2,0.1-0.4,0.3-0.5c0.2-0.1,0.4-0.2,0.7-0.2c0.3,0,0.6,0.1,0.7,0.2c0.2,0.1,0.3,0.3,0.3,0.5v8c0,0.2-0.1,0.3-0.3,0.5
		c-0.2,0.1-0.5,0.2-0.7,0.2c-0.3,0-0.5-0.1-0.7-0.2C82.6,181.3,82.5,181.1,82.5,181z"/>
	<linearGradient id="SVGID_13_" gradientUnits="userSpaceOnUse" x1="89.2066" y1="202.688" x2="89.2066" y2="151.2076">
		<stop  offset="0" style="stop-color:#312781"/>
		<stop  offset="1" style="stop-color:#000000"/>
	</linearGradient>
	<path class="st17" d="M86.7,178.6v-9.9c0-0.2,0.1-0.3,0.3-0.5c0.2-0.1,0.4-0.2,0.7-0.2c0.3,0,0.5,0.1,0.7,0.2
		c0.2,0.1,0.3,0.3,0.3,0.5v3.6h2.4c0.2,0,0.3,0.1,0.4,0.2c0.1,0.2,0.2,0.3,0.2,0.5c0,0.2-0.1,0.4-0.2,0.5c-0.1,0.2-0.2,0.2-0.4,0.2
		h-2.4v4.7c0,0.5,0.1,0.8,0.3,1c0.2,0.2,0.6,0.3,1.1,0.3h0.7c0.3,0,0.5,0.1,0.7,0.3c0.2,0.2,0.2,0.4,0.2,0.6s-0.1,0.5-0.2,0.6
		c-0.2,0.2-0.4,0.3-0.7,0.3h-0.7C87.8,181.7,86.7,180.6,86.7,178.6z"/>
	<linearGradient id="SVGID_14_" gradientUnits="userSpaceOnUse" x1="96.3777" y1="202.688" x2="96.3777" y2="151.2076">
		<stop  offset="0" style="stop-color:#312781"/>
		<stop  offset="1" style="stop-color:#000000"/>
	</linearGradient>
	<path class="st18" d="M92.6,179.2c0-1.1,0.4-1.8,1.2-2.2c0.8-0.4,1.9-0.6,3.4-0.6h0.9V176c0-0.6-0.2-1.1-0.5-1.5
		c-0.3-0.4-0.8-0.6-1.5-0.6c-0.6,0-1.1,0.1-1.5,0.3c-0.4,0.2-0.7,0.3-0.7,0.3c-0.2,0-0.4-0.1-0.5-0.3c-0.1-0.2-0.2-0.5-0.2-0.7
		c0-0.3,0.3-0.6,1-0.9c0.6-0.2,1.3-0.4,2-0.4c1.4,0,2.4,0.4,3,1.1c0.7,0.7,1,1.6,1,2.7v5c0,0.2-0.1,0.3-0.3,0.5
		c-0.2,0.1-0.4,0.2-0.7,0.2c-0.3,0-0.5-0.1-0.7-0.2c-0.2-0.1-0.3-0.3-0.3-0.5v-0.7c-0.9,1-1.9,1.5-3,1.5c-0.8,0-1.4-0.2-1.9-0.7
		C92.8,180.7,92.6,180,92.6,179.2z M94.7,179c0,0.4,0.1,0.7,0.4,1c0.2,0.2,0.5,0.3,0.9,0.3c0.5,0,1-0.2,1.4-0.6
		c0.5-0.4,0.7-0.9,0.7-1.3v-0.7h-0.5c-0.6,0-1.1,0-1.5,0.1c-0.4,0.1-0.7,0.2-1,0.4C94.8,178.2,94.7,178.6,94.7,179z"/>
	<linearGradient id="SVGID_15_" gradientUnits="userSpaceOnUse" x1="110.7199" y1="202.688" x2="110.7199" y2="151.2076">
		<stop  offset="0" style="stop-color:#312781"/>
		<stop  offset="1" style="stop-color:#000000"/>
	</linearGradient>
	<path class="st19" d="M106.3,177.4v-5.7c0-1.5,0.4-2.6,1.2-3.3c0.8-0.7,1.9-1.1,3.2-1.1c1.3,0,2.4,0.3,3.2,1
		c0.8,0.7,1.2,1.5,1.2,2.6c0,0.4-0.1,0.7-0.2,0.9c-0.2,0.2-0.4,0.2-0.8,0.2c-0.7,0-1-0.2-1-0.7c-0.1-1.4-0.8-2.1-2.3-2.1
		c-1.6,0-2.4,0.8-2.4,2.5v5.7c0,1.7,0.8,2.5,2.4,2.5c0.5,0,0.9-0.1,1.2-0.2c0.3-0.1,0.5-0.3,0.7-0.6c0.1-0.3,0.2-0.5,0.3-0.7
		c0.1-0.2,0.1-0.4,0.1-0.7c0-0.5,0.4-0.7,1-0.7c0.4,0,0.7,0.1,0.8,0.2c0.2,0.2,0.2,0.4,0.2,0.9c0,1.1-0.4,2-1.2,2.7
		c-0.8,0.7-1.9,1-3.3,1c-1.3,0-2.4-0.4-3.2-1.1C106.7,180,106.3,178.9,106.3,177.4z"/>
	<linearGradient id="SVGID_16_" gradientUnits="userSpaceOnUse" x1="120.8799" y1="202.688" x2="120.8799" y2="151.2076">
		<stop  offset="0" style="stop-color:#312781"/>
		<stop  offset="1" style="stop-color:#000000"/>
	</linearGradient>
	<path class="st20" d="M116.8,177.9V173c0-0.2,0.1-0.3,0.3-0.5c0.2-0.1,0.5-0.2,0.7-0.2c0.3,0,0.5,0.1,0.7,0.2
		c0.2,0.1,0.3,0.3,0.3,0.5v4.9c0,0.5,0.2,1,0.6,1.4c0.4,0.4,0.9,0.6,1.4,0.6c0.6,0,1-0.2,1.4-0.6c0.4-0.4,0.6-0.9,0.6-1.4V173
		c0-0.2,0.1-0.3,0.3-0.5c0.2-0.1,0.5-0.2,0.7-0.2c0.3,0,0.5,0.1,0.7,0.2c0.2,0.1,0.3,0.3,0.3,0.5v5c0,1-0.4,1.9-1.2,2.7
		c-0.8,0.8-1.8,1.2-2.9,1.2c-1.1,0-2.1-0.4-2.9-1.2C117.2,179.9,116.8,179,116.8,177.9z"/>
	<linearGradient id="SVGID_17_" gradientUnits="userSpaceOnUse" x1="128.2581" y1="202.688" x2="128.2581" y2="151.2076">
		<stop  offset="0" style="stop-color:#312781"/>
		<stop  offset="1" style="stop-color:#000000"/>
	</linearGradient>
	<path class="st21" d="M127.2,181v-13.6c0-0.2,0.1-0.4,0.3-0.5c0.2-0.1,0.4-0.2,0.7-0.2c0.3,0,0.5,0.1,0.7,0.2
		c0.2,0.1,0.3,0.3,0.3,0.5V181c0,0.2-0.1,0.3-0.3,0.5c-0.2,0.1-0.5,0.2-0.7,0.2c-0.3,0-0.5-0.1-0.7-0.2
		C127.3,181.3,127.2,181.1,127.2,181z"/>
	<linearGradient id="SVGID_18_" gradientUnits="userSpaceOnUse" x1="134.1466" y1="202.688" x2="134.1466" y2="151.2076">
		<stop  offset="0" style="stop-color:#312781"/>
		<stop  offset="1" style="stop-color:#000000"/>
	</linearGradient>
	<path class="st22" d="M131.6,178.6v-9.9c0-0.2,0.1-0.3,0.3-0.5c0.2-0.1,0.4-0.2,0.7-0.2c0.3,0,0.5,0.1,0.7,0.2
		c0.2,0.1,0.3,0.3,0.3,0.5v3.6h2.4c0.2,0,0.3,0.1,0.4,0.2c0.1,0.2,0.2,0.3,0.2,0.5c0,0.2-0.1,0.4-0.2,0.5c-0.1,0.2-0.2,0.2-0.4,0.2
		h-2.4v4.7c0,0.5,0.1,0.8,0.3,1c0.2,0.2,0.6,0.3,1.1,0.3h0.7c0.3,0,0.5,0.1,0.7,0.3c0.2,0.2,0.2,0.4,0.2,0.6s-0.1,0.5-0.2,0.6
		c-0.2,0.2-0.4,0.3-0.7,0.3h-0.7C132.8,181.7,131.6,180.6,131.6,178.6z"/>
	<linearGradient id="SVGID_19_" gradientUnits="userSpaceOnUse" x1="142.1267" y1="202.688" x2="142.1267" y2="151.2076">
		<stop  offset="0" style="stop-color:#312781"/>
		<stop  offset="1" style="stop-color:#000000"/>
	</linearGradient>
	<path class="st23" d="M138.1,177.9V173c0-0.2,0.1-0.3,0.3-0.5c0.2-0.1,0.5-0.2,0.7-0.2c0.3,0,0.5,0.1,0.7,0.2
		c0.2,0.1,0.3,0.3,0.3,0.5v4.9c0,0.5,0.2,1,0.6,1.4c0.4,0.4,0.9,0.6,1.4,0.6c0.6,0,1-0.2,1.4-0.6c0.4-0.4,0.6-0.9,0.6-1.4V173
		c0-0.2,0.1-0.3,0.3-0.5c0.2-0.1,0.5-0.2,0.7-0.2c0.3,0,0.5,0.1,0.7,0.2c0.2,0.1,0.3,0.3,0.3,0.5v5c0,1-0.4,1.9-1.2,2.7
		c-0.8,0.8-1.8,1.2-2.9,1.2c-1.1,0-2.1-0.4-2.9-1.2C138.5,179.9,138.1,179,138.1,177.9z"/>
	<linearGradient id="SVGID_20_" gradientUnits="userSpaceOnUse" x1="151.2312" y1="202.688" x2="151.2312" y2="151.2076">
		<stop  offset="0" style="stop-color:#312781"/>
		<stop  offset="1" style="stop-color:#000000"/>
	</linearGradient>
	<path class="st24" d="M148.3,181v-8c0-0.2,0.1-0.4,0.3-0.5c0.2-0.1,0.4-0.2,0.7-0.2c0.3,0,0.5,0.1,0.7,0.2c0.2,0.1,0.3,0.3,0.3,0.5
		v0.9c0.2-0.5,0.6-0.9,1-1.2c0.5-0.3,1-0.5,1.5-0.5h0.6c0.2,0,0.4,0.1,0.6,0.3c0.2,0.2,0.2,0.4,0.2,0.6c0,0.3-0.1,0.5-0.2,0.7
		c-0.2,0.2-0.3,0.3-0.6,0.3h-0.6c-0.6,0-1.2,0.3-1.7,0.8c-0.5,0.5-0.7,1.2-0.7,2.1v4c0,0.2-0.1,0.3-0.3,0.5
		c-0.2,0.1-0.5,0.2-0.7,0.2c-0.3,0-0.5-0.1-0.7-0.2C148.4,181.3,148.3,181.1,148.3,181z"/>
	<linearGradient id="SVGID_21_" gradientUnits="userSpaceOnUse" x1="158.5797" y1="202.688" x2="158.5797" y2="151.2076">
		<stop  offset="0" style="stop-color:#312781"/>
		<stop  offset="1" style="stop-color:#000000"/>
	</linearGradient>
	<path class="st25" d="M154.8,179.2c0-1.1,0.4-1.8,1.2-2.2c0.8-0.4,1.9-0.6,3.4-0.6h0.9V176c0-0.6-0.2-1.1-0.5-1.5
		c-0.3-0.4-0.8-0.6-1.5-0.6c-0.6,0-1.1,0.1-1.5,0.3c-0.4,0.2-0.7,0.3-0.7,0.3c-0.2,0-0.4-0.1-0.5-0.3c-0.1-0.2-0.2-0.5-0.2-0.7
		c0-0.3,0.3-0.6,1-0.9c0.6-0.2,1.3-0.4,2-0.4c1.4,0,2.4,0.4,3,1.1c0.7,0.7,1,1.6,1,2.7v5c0,0.2-0.1,0.3-0.3,0.5
		c-0.2,0.1-0.4,0.2-0.7,0.2c-0.3,0-0.5-0.1-0.7-0.2c-0.2-0.1-0.3-0.3-0.3-0.5v-0.7c-0.9,1-1.9,1.5-3,1.5c-0.8,0-1.4-0.2-1.9-0.7
		C155,180.7,154.8,180,154.8,179.2z M156.9,179c0,0.4,0.1,0.7,0.4,1c0.2,0.2,0.5,0.3,0.9,0.3c0.5,0,1-0.2,1.4-0.6
		c0.5-0.4,0.7-0.9,0.7-1.3v-0.7h-0.5c-0.6,0-1.1,0-1.5,0.1c-0.4,0.1-0.7,0.2-1,0.4C157,178.2,156.9,178.6,156.9,179z"/>
	<linearGradient id="SVGID_22_" gradientUnits="userSpaceOnUse" x1="165.6817" y1="202.688" x2="165.6817" y2="151.2076">
		<stop  offset="0" style="stop-color:#312781"/>
		<stop  offset="1" style="stop-color:#000000"/>
	</linearGradient>
	<path class="st26" d="M164.6,181v-13.6c0-0.2,0.1-0.4,0.3-0.5c0.2-0.1,0.4-0.2,0.7-0.2c0.3,0,0.5,0.1,0.7,0.2
		c0.2,0.1,0.3,0.3,0.3,0.5V181c0,0.2-0.1,0.3-0.3,0.5c-0.2,0.1-0.5,0.2-0.7,0.2c-0.3,0-0.5-0.1-0.7-0.2
		C164.7,181.3,164.6,181.1,164.6,181z"/>
</g>
</svg>
